<?xml version="1.0" encoding="UTF-8" standalone="no"?>
<!-- Created with Inkscape (http://www.inkscape.org/) -->

<svg
   width="127.67451mm"
   height="71.154457mm"
   viewBox="0 0 127.67451 71.154457"
   version="1.1"
   id="svg1"
   inkscape:version="1.3 (0e150ed, 2023-07-21)"
   sodipodi:docname="ac.svg"
   xmlns:inkscape="http://www.inkscape.org/namespaces/inkscape"
   xmlns:sodipodi="http://sodipodi.sourceforge.net/DTD/sodipodi-0.dtd"
   xmlns="http://www.w3.org/2000/svg"
   xmlns:svg="http://www.w3.org/2000/svg">
  <sodipodi:namedview
     id="namedview1"
     pagecolor="#000000"
     bordercolor="#000000"
     borderopacity="0.25"
     inkscape:showpageshadow="2"
     inkscape:pageopacity="0.0"
     inkscape:pagecheckerboard="0"
     inkscape:deskcolor="#d1d1d1"
     inkscape:document-units="mm"
     inkscape:zoom="1.3105313"
     inkscape:cx="231.58547"
     inkscape:cy="175.50134"
     inkscape:window-width="1512"
     inkscape:window-height="859"
     inkscape:window-x="294"
     inkscape:window-y="1118"
     inkscape:window-maximized="1"
     inkscape:current-layer="layer1" />
  <defs
     id="defs1" />
  <g
     inkscape:label="Layer 1"
     inkscape:groupmode="layer"
     id="layer1"
     transform="translate(-45.595218,-85.964882)">
    <g
       id="path1"
       style="fill:#ffffff">
      <g
         id="g3"
         style="fill:#ffffff">
        <path
           d="m 165.56973,124.8589 7.7,2.8 -7.7,2.8 c 1.4,-1.631 1.4,-3.962 0,-5.6 z"
           style="color:#000000;fill:#ffffff;fill-rule:evenodd;-inkscape-stroke:none"
           id="path3" />
      </g>
      <path
         style="color:#000000;fill:#ffffff;stroke-linecap:round;stroke-linejoin:round;-inkscape-stroke:none;paint-order:markers stroke fill"
         d="m 59.167969,127.1582 a 0.5,0.5 0 0 0 -0.5,0.5 0.5,0.5 0 0 0 0.5,0.5 H 166.9707 a 0.5,0.5 0 0 0 0.5,-0.5 0.5,0.5 0 0 0 -0.5,-0.5 z"
         id="path4" />
      <path
         style="color:#000000;fill:#ffffff;stroke-linecap:round;stroke-linejoin:round;-inkscape-stroke:none;paint-order:markers stroke fill"
         d="M 59.168887,127.6589 H 166.96973"
         id="path5" />
    </g>
    <g
       id="path2"
       style="fill:#ffffff">
      <g
         id="g6"
         style="fill:#ffffff">
        <path
           d="m 55.963619,97.042855 2.8,-7.7 2.8,7.7 c -1.631,-1.4 -3.962,-1.4 -5.6,0 z"
           style="color:#000000;fill:#ffffff;fill-rule:evenodd;-inkscape-stroke:none"
           id="path6" />
      </g>
      <path
         style="color:#000000;fill:#ffffff;stroke-linecap:round;stroke-linejoin:round;-inkscape-stroke:none;paint-order:markers stroke fill"
         d="m 58.763672,95.142578 a 0.5,0.5 0 0 0 -0.5,0.5 v 60.791012 a 0.5,0.5 0 0 0 0.5,0.5 0.5,0.5 0 0 0 0.5,-0.5 V 95.642578 a 0.5,0.5 0 0 0 -0.5,-0.5 z"
         id="path8" />
      <path
         style="color:#000000;fill:#ffffff;stroke-linecap:round;stroke-linejoin:round;-inkscape-stroke:none;paint-order:markers stroke fill"
         d="M 58.763619,156.43281 V 95.642855"
         id="path9" />
    </g>
    <path
       d="m 168.7209,134.46994 q 0,-0.19822 0.0915,-0.24396 0.10674,-0.0457 0.33546,-0.0457 h 1.29608 l 0.59467,-2.42443 q 0.15248,-0.54893 0.59467,-0.54893 0.4117,0 0.4117,0.39645 0,0.10674 -0.061,0.32021 l -0.56418,2.2567 h 1.21984 q 0.15248,0 0.21347,0.0153 0.061,0 0.10674,0.0457 0.061,0.0305 0.061,0.12199 0,0.19822 -0.10673,0.24397 -0.0915,0.0457 -0.32021,0.0457 h -1.29608 l -1.12835,4.52866 q -0.10674,0.42694 -0.10674,0.77764 0,0.62517 0.4117,0.62517 0.57942,0 1.02161,-0.57942 0.45744,-0.57943 0.73191,-1.29608 0.0915,-0.21347 0.12198,-0.24397 0.0457,-0.0457 0.18298,-0.0457 0.22872,0 0.22872,0.15248 0,0.0457 -0.0915,0.27446 -0.0915,0.22872 -0.28971,0.59467 -0.19823,0.35071 -0.45744,0.68616 -0.25922,0.32021 -0.65567,0.56418 -0.39645,0.22872 -0.82339,0.22872 -0.57942,0 -0.94538,-0.39645 -0.3507,-0.39645 -0.3507,-0.97587 0,-0.21347 0.0762,-0.51843 l 1.09786,-4.37618 h -1.21984 q -0.15248,0 -0.21348,0 -0.061,-0.0152 -0.12198,-0.0457 -0.0457,-0.0457 -0.0457,-0.13724 z"
       id="text2"
       style="font-style:italic;font-weight:500;font-size:15.248px;font-family:'CMU Serif';-inkscape-font-specification:'CMU Serif Medium Italic';text-align:justify;letter-spacing:0.336354px;fill:#ffffff;stroke-width:2.54251;stroke-linecap:round;stroke-linejoin:round;paint-order:markers stroke fill"
       aria-label="t" />
    <path
       style="fill:none;stroke:#00ffff;stroke-width:1;stroke-linecap:round;stroke-linejoin:round;-inkscape-stroke:none;paint-order:markers stroke fill"
       d="m 58.548137,126.98889 c 0,0 7.86557,-30.761645 17.760246,-30.761645 12.330183,0 22.590021,60.392095 34.867387,60.392095 12.27737,0 23.66833,-60.051774 34.67091,-60.051774 11.00258,0 17.71827,30.688944 17.71827,30.688944"
       id="path10"
       sodipodi:nodetypes="cczzc" />
    <g
       id="path11"
       style="fill:#ffaaaa">
      <g
         id="g13"
         style="fill:#ffaaaa">
        <path
           d="m 121.34919,128.42859 7.7,2.8 -7.7,2.8 c 1.4,-1.631 1.4,-3.962 0,-5.6 z"
           style="color:#000000;fill:#ffaaaa;fill-rule:evenodd;-inkscape-stroke:none"
           id="path14" />
        <path
           d="m 66.206731,134.02859 -7.7,-2.8 7.7,-2.8 c -1.4,1.631 -1.4,3.962 0,5.6 z"
           style="color:#000000;fill:#ffaaaa;fill-rule:evenodd;-inkscape-stroke:none"
           id="path13" />
      </g>
      <path
         style="color:#000000;fill:#ffaaaa;stroke-linecap:round;stroke-linejoin:round;-inkscape-stroke:none;paint-order:markers stroke fill"
         d="m 64.806641,130.72852 a 0.5,0.5 0 0 0 -0.5,0.5 0.5,0.5 0 0 0 0.5,0.5 H 122.75 a 0.5,0.5 0 0 0 0.5,-0.5 0.5,0.5 0 0 0 -0.5,-0.5 z"
         id="path15" />
    </g>
    <path
       style="font-weight:500;font-size:9.41198px;font-family:'CMU Serif';-inkscape-font-specification:'CMU Serif Medium';text-align:justify;letter-spacing:0.207617px;fill:#ffaaaa;stroke-width:1.56939;stroke-linecap:round;stroke-linejoin:round;paint-order:markers stroke fill"
       d="m 81.81399,139.37414 q 0,-1.38356 0.348243,-2.13652 0.489423,-1.12003 1.637684,-1.12003 0.244712,0 0.498835,0.0659 0.254124,0.0659 0.574131,0.32 0.329419,0.25413 0.527071,0.66825 0.376479,0.80002 0.376479,2.20241 0,1.37415 -0.348243,2.1271 -0.508247,1.09179 -1.637685,1.09179 -0.423539,0 -0.85649,-0.21647 -0.423539,-0.21648 -0.696486,-0.73414 -0.423539,-0.78119 -0.423539,-2.26828 z m 0.781194,-0.11295 q 0,1.42121 0.103532,1.98593 0.112943,0.61178 0.423539,0.87532 0.320007,0.26353 0.66825,0.26353 0.376479,0 0.687075,-0.28236 0.320007,-0.28236 0.414127,-0.89414 0.103532,-0.60236 0.103532,-1.94828 0,-1.30826 -0.09412,-1.83533 -0.122356,-0.61178 -0.451775,-0.85649 -0.329419,-0.24471 -0.658839,-0.24471 -0.122355,0 -0.254123,0.0376 -0.131768,0.0376 -0.320008,0.14118 -0.188239,0.10354 -0.338831,0.36707 -0.141179,0.26354 -0.207063,0.65884 -0.0753,0.50825 -0.0753,1.7318 z m 4.706525,2.97419 q -0.14118,-0.15059 -0.14118,-0.34824 0,-0.19766 0.14118,-0.33884 0.141179,-0.15059 0.357655,-0.15059 0.207064,0 0.348243,0.14118 0.14118,0.13177 0.14118,0.34825 0,0.21647 -0.150592,0.35765 -0.150591,0.14118 -0.338831,0.14118 -0.216476,0 -0.357655,-0.15059 z m 2.250015,-2.86124 q 0,-1.38356 0.348244,-2.13652 0.489422,-1.12003 1.637684,-1.12003 0.244711,0 0.498835,0.0659 0.254123,0.0659 0.574131,0.32 0.329419,0.25413 0.527071,0.66825 0.376479,0.80002 0.376479,2.20241 0,1.37415 -0.348244,2.1271 -0.508246,1.09179 -1.637684,1.09179 -0.423539,0 -0.85649,-0.21647 -0.423539,-0.21648 -0.696487,-0.73414 -0.423539,-0.78119 -0.423539,-2.26828 z m 0.781195,-0.11295 q 0,1.42121 0.103531,1.98593 0.112944,0.61178 0.423539,0.87532 0.320008,0.26353 0.668251,0.26353 0.376479,0 0.687075,-0.28236 0.320007,-0.28236 0.414127,-0.89414 0.103531,-0.60236 0.103531,-1.94828 0,-1.30826 -0.09412,-1.83533 -0.122356,-0.61178 -0.451775,-0.85649 -0.32942,-0.24471 -0.658839,-0.24471 -0.122356,0 -0.254123,0.0376 -0.131768,0.0376 -0.320008,0.14118 -0.188239,0.10354 -0.338831,0.36707 -0.14118,0.26354 -0.207064,0.65884 -0.07529,0.50825 -0.07529,1.7318 z m 4.235926,3.12478 q 0,-0.16941 0.0094,-0.21647 0.01882,-0.0565 0.09412,-0.13177 l 1.8071,-2.01417 q 0.988258,-1.11061 0.988258,-2.08004 0,-0.63061 -0.329419,-1.08238 -0.329419,-0.45178 -0.931786,-0.45178 -0.414127,0 -0.76237,0.25413 -0.348244,0.25412 -0.508247,0.7059 0.02824,-0.009 0.122356,-0.009 0.235299,0 0.367067,0.1506 0.131767,0.14118 0.131767,0.33883 0,0.25412 -0.169415,0.37648 -0.160004,0.12235 -0.320007,0.12235 -0.06588,0 -0.150592,-0.009 -0.08471,-0.0188 -0.216476,-0.15059 -0.131767,-0.13177 -0.131767,-0.36707 0,-0.65884 0.498835,-1.1765 0.498834,-0.52707 1.261205,-0.52707 0.865902,0 1.430621,0.51766 0.564718,0.50825 0.564718,1.30827 0,0.28236 -0.08471,0.53648 -0.08471,0.25412 -0.197652,0.45177 -0.112944,0.19766 -0.414127,0.51766 -0.301183,0.3106 -0.545895,0.53649 -0.244711,0.22588 -0.790606,0.70589 l -0.99767,0.96944 h 1.694156 q 0.828255,0 0.894138,-0.0753 0.09412,-0.13176 0.207064,-0.83766 h 0.235299 l -0.263535,1.63768 z m 8.095375,-0.12235 v -1.24239 q 0,-0.10353 0,-0.14118 0.009,-0.0376 0.0376,-0.0659 0.0282,-0.0282 0.0847,-0.0282 0.0659,0 0.0847,0.0282 0.0282,0.0282 0.0471,0.13177 0.14118,0.64942 0.44237,0.99767 0.31059,0.33883 0.8659,0.33883 0.52707,0 0.7906,-0.2353 0.27295,-0.2353 0.27295,-0.62119 0,-0.68708 -0.97884,-0.8659 -0.56472,-0.11295 -0.80002,-0.18824 -0.2353,-0.0753 -0.44237,-0.24471 -0.40471,-0.32942 -0.40471,-0.80002 0,-0.4706 0.35765,-0.80943 0.35766,-0.34825 1.14827,-0.34825 0.52707,0 0.88472,0.26354 0.10353,-0.0847 0.16001,-0.15059 0.12235,-0.11295 0.18824,-0.11295 0.0753,0 0.0847,0.0471 0.0188,0.0471 0.0188,0.17883 v 0.95061 q 0,0.10353 -0.009,0.14118 0,0.0377 -0.0282,0.0659 -0.0282,0.0188 -0.0847,0.0188 -0.10353,0 -0.11294,-0.0847 -0.0753,-1.13885 -1.1012,-1.13885 -0.55531,0 -0.80943,0.21648 -0.24472,0.20706 -0.24472,0.49883 0,0.16001 0.0753,0.28236 0.0753,0.12236 0.16942,0.19765 0.10353,0.0659 0.28236,0.13177 0.18824,0.0659 0.30118,0.0941 0.11294,0.0188 0.32942,0.0659 0.75296,0.14118 1.07296,0.45178 0.39531,0.3953 0.39531,0.89414 0,0.5553 -0.37648,0.93178 -0.37648,0.37648 -1.13885,0.37648 -0.61178,0 -1.03532,-0.40471 -0.0565,0.0565 -0.10353,0.10353 -0.0376,0.0471 -0.0565,0.0659 -0.009,0.0188 -0.0188,0.0282 0,0.009 -0.009,0.0188 -0.18824,0.18824 -0.2353,0.18824 -0.0753,0 -0.0941,-0.0471 -0.009,-0.0471 -0.009,-0.17882 z"
       id="text15"
       aria-label="0.02 s" />
    <path
       d="m 47.657966,86.575973 q 0,-0.265585 0.251608,-0.265585 0.223651,0 0.69891,0.02796 0.489237,0.01398 0.726866,0.01398 0.265586,0 0.810736,-0.01398 0.54515,-0.02796 0.796757,-0.02796 0.195695,0 0.195695,0.167738 0,0.181717 -0.08387,0.223651 -0.08387,0.04193 -0.265586,0.04193 -0.880626,0 -0.880626,0.433324 l 0.712888,7.324577 4.0397,-6.751471 q 0.209673,-0.363433 0.209673,-0.559128 0,-0.419346 -0.559128,-0.447302 -0.223652,-0.02796 -0.223652,-0.167739 0,-0.265585 0.251608,-0.265585 0.195695,0 0.629019,0.02796 0.447302,0.01398 0.656975,0.01398 0.181717,0 0.531172,-0.01398 0.363433,-0.02796 0.531172,-0.02796 0.181716,0 0.181716,0.15376 0,0.09785 -0.02796,0.15376 -0.01398,0.05591 -0.06989,0.08387 -0.05591,0.02796 -0.08387,0.02796 -0.01398,0 -0.08387,0.01398 -0.46128,0.04193 -0.824713,0.265586 -0.363434,0.223651 -0.740845,0.866648 l -4.794523,8.023487 q -0.111825,0.181716 -0.181716,0.223651 -0.06989,0.04193 -0.209673,0.04193 -0.15376,0 -0.195695,-0.06989 -0.04194,-0.05591 -0.06989,-0.265586 l -0.838692,-8.610571 q -0.01398,-0.209673 -0.05591,-0.279564 -0.04193,-0.08387 -0.195695,-0.139782 -0.15376,-0.05591 -0.503215,-0.05591 -0.335477,0 -0.335477,-0.167739 z"
       id="text16"
       style="font-style:italic;font-weight:500;font-size:13.9782px;font-family:'CMU Serif';-inkscape-font-specification:'CMU Serif Medium Italic';text-align:justify;letter-spacing:0.308344px;fill:#f9f9f9;stroke-width:2.33078;stroke-linecap:round;stroke-linejoin:round;paint-order:markers stroke fill"
       aria-label="V" />
  </g>
</svg>
