<?xml version="1.0" encoding="UTF-8" standalone="no"?>
<!-- Created with Inkscape (http://www.inkscape.org/) -->

<svg
   width="155.34824mm"
   height="121.36901mm"
   viewBox="0 0 155.34824 121.36901"
   version="1.1"
   id="svg1"
   inkscape:version="1.3 (0e150ed, 2023-07-21)"
   sodipodi:docname="dayahead-curves.svg"
   xmlns:inkscape="http://www.inkscape.org/namespaces/inkscape"
   xmlns:sodipodi="http://sodipodi.sourceforge.net/DTD/sodipodi-0.dtd"
   xmlns="http://www.w3.org/2000/svg"
   xmlns:svg="http://www.w3.org/2000/svg">
  <sodipodi:namedview
     id="namedview1"
     pagecolor="#666666"
     bordercolor="#000000"
     borderopacity="0.25"
     inkscape:showpageshadow="2"
     inkscape:pageopacity="0.0"
     inkscape:pagecheckerboard="0"
     inkscape:deskcolor="#d1d1d1"
     inkscape:document-units="mm"
     inkscape:zoom="0.64845803"
     inkscape:cx="128.76701"
     inkscape:cy="129.53807"
     inkscape:window-width="1512"
     inkscape:window-height="859"
     inkscape:window-x="0"
     inkscape:window-y="38"
     inkscape:window-maximized="1"
     inkscape:current-layer="layer1" />
  <defs
     id="defs1" />
  <g
     inkscape:label="Layer 1"
     inkscape:groupmode="layer"
     id="layer1"
     transform="translate(-19.687721,-41.205921)">
    <path
       style="fill:none;stroke:#999999;stroke-width:1;stroke-linecap:round;stroke-linejoin:round;stroke-miterlimit:3.9;stroke-dasharray:1, 4;stroke-dashoffset:0;paint-order:markers stroke fill"
       d="M 51.465824,96.891266 H 85.342062 V 140.53951"
       id="path9"
       sodipodi:nodetypes="ccc" />
    <g
       id="path1">
      <g
         id="g23">
        <path
           d="m 138.97169,137.57169 7.7,2.8 -7.7,2.8 c 1.4,-1.631 1.4,-3.962 0,-5.6 z"
           style="color:#000000;fill:#ffffff;fill-rule:evenodd;-inkscape-stroke:none"
           id="path24" />
        <path
           d="m 48.244252,55.151143 2.8,-7.7 2.8,7.7 c -1.631,-1.4 -3.962,-1.4 -5.6,0 z"
           style="color:#000000;fill:#ffffff;fill-rule:evenodd;-inkscape-stroke:none"
           id="path23" />
      </g>
      <path
         style="color:#000000;fill:#ffffff;stroke-linecap:round;stroke-linejoin:round;stroke-miterlimit:3.9;-inkscape-stroke:none;paint-order:markers stroke fill"
         d="m 51.044922,53.251953 a 0.5,0.5 0 0 0 -0.5,0.5 v 86.619137 a 0.50005,0.50005 0 0 0 0.5,0.5 h 89.326168 a 0.5,0.5 0 0 0 0.5,-0.5 0.5,0.5 0 0 0 -0.5,-0.5 H 51.544922 V 53.751953 a 0.5,0.5 0 0 0 -0.5,-0.5 z"
         id="path25" />
    </g>
    <g
       id="text2"
       style="font-weight:600;font-size:5.99723px;font-family:FreeSans;-inkscape-font-specification:'FreeSans Semi-Bold';text-align:center;letter-spacing:0.132292px;text-anchor:middle;fill:#ffffff;stroke-linecap:round;stroke-linejoin:round;stroke-miterlimit:3.9;paint-order:markers stroke fill"
       aria-label="Price&#10;(€/)MWh">
      <path
         style="font-weight:500;font-family:'CMU Serif';-inkscape-font-specification:'CMU Serif Medium';text-align:end;text-anchor:end"
         d="m 32.989909,45.302029 v -0.185914 h 0.143933 q 0.323851,0 0.395818,-0.05398 0.07796,-0.05398 0.07796,-0.227894 v -3.160541 q 0,-0.173919 -0.07796,-0.227894 -0.07197,-0.05398 -0.395818,-0.05398 h -0.143933 v -0.185914 h 2.117022 q 0.60572,0 1.007535,0.335844 0.407811,0.329848 0.407811,0.77964 0,0.443795 -0.413809,0.767646 -0.407811,0.317853 -0.953559,0.317853 h -1.013532 v 1.427341 q 0,0.173919 0.07197,0.227894 0.07796,0.05398 0.401814,0.05398 h 0.143934 v 0.185914 q -0.209903,-0.01799 -0.88759,-0.01799 -0.67169,0 -0.881593,0.01799 z m 1.133476,-2.051053 h 0.827618 q 0.269875,0 0.461787,-0.07197 0.197908,-0.07796 0.287867,-0.167922 0.08996,-0.09596 0.137936,-0.245887 0.05397,-0.14993 0.05997,-0.233892 0.006,-0.08396 0.006,-0.209903 0,-0.131939 -0.006,-0.2159 -0.006,-0.08396 -0.05997,-0.233892 -0.04798,-0.149931 -0.137936,-0.239889 -0.08996,-0.09596 -0.287867,-0.167923 -0.191912,-0.07197 -0.461787,-0.07197 H 34.41725 q -0.203906,0 -0.251884,0.04198 -0.04198,0.04198 -0.04198,0.197909 z m 3.034942,2.051053 v -0.185914 q 0.317853,0 0.38982,-0.03598 0.07796,-0.04198 0.07796,-0.233892 v -1.607257 q 0,-0.221898 -0.07796,-0.275873 -0.07796,-0.05997 -0.38982,-0.05997 v -0.185914 l 0.833615,-0.06597 v 0.659695 q 0.08396,-0.257881 0.263878,-0.455789 0.179917,-0.203906 0.473781,-0.203906 0.191912,0 0.317853,0.10795 0.125942,0.10795 0.125942,0.257881 0,0.131939 -0.08396,0.197909 -0.07796,0.06597 -0.17392,0.06597 -0.10795,0 -0.185914,-0.06597 -0.07197,-0.07197 -0.07197,-0.191912 0,-0.07197 0.02999,-0.125942 0.03598,-0.05997 0.05997,-0.07796 0.02999,-0.02399 0.04798,-0.02999 -0.012,-0.006 -0.06597,-0.006 -0.329847,0 -0.521759,0.329848 -0.185914,0.329847 -0.185914,0.797631 v 0.923574 q 0,0.173919 0.07197,0.227894 0.07197,0.05398 0.383823,0.05398 h 0.125941 v 0.185914 q -0.239889,-0.01799 -0.761648,-0.01799 -0.07197,0 -0.185914,0.006 -0.113947,0 -0.263878,0.006 -0.149931,0.006 -0.233892,0.006 z m 2.507188,0 v -0.185914 q 0.317853,0 0.38982,-0.03598 0.07796,-0.04198 0.07796,-0.233892 v -1.613255 q 0,-0.221897 -0.07796,-0.275872 -0.07197,-0.05398 -0.365831,-0.05398 v -0.185914 l 0.839612,-0.06597 v 2.200983 q 0,0.179917 0.05997,0.221898 0.06597,0.04198 0.359834,0.04198 v 0.185914 q -0.611717,-0.01799 -0.623712,-0.01799 -0.08396,0 -0.659695,0.01799 z m 0.251884,-3.694294 q 0,-0.119945 0.08996,-0.2159 0.09596,-0.101953 0.227895,-0.101953 0.131939,0 0.221897,0.08996 0.09596,0.08996 0.09596,0.227895 0,0.137936 -0.09596,0.227895 -0.08996,0.08996 -0.221897,0.08996 -0.137936,0 -0.227895,-0.09596 -0.08996,-0.09595 -0.08996,-0.221897 z m 1.925454,3.364446 q -0.377825,-0.395817 -0.377825,-0.965554 0,-0.569737 0.371828,-0.977549 0.377826,-0.413808 0.929571,-0.413808 0.365831,0 0.641703,0.173919 0.275873,0.17392 0.275873,0.467784 0,0.131939 -0.07796,0.209903 -0.07796,0.07197 -0.197909,0.07197 -0.125941,0 -0.203905,-0.07796 -0.07197,-0.07796 -0.07197,-0.197909 0,-0.05398 0.01799,-0.101952 0.01799,-0.05398 0.08396,-0.107951 0.06597,-0.05997 0.179917,-0.06597 -0.215901,-0.221898 -0.641704,-0.221898 -0.305859,0 -0.557742,0.287867 -0.251884,0.287867 -0.251884,0.941566 0,0.341842 0.08396,0.593725 0.08396,0.251884 0.221898,0.383823 0.137936,0.125942 0.269875,0.185914 0.137936,0.05997 0.269875,0.05997 0.587729,0 0.785638,-0.629709 0.01799,-0.05997 0.07796,-0.05997 0.07796,0 0.07796,0.05997 0,0.02999 -0.02399,0.10795 -0.02399,0.07197 -0.09596,0.191912 -0.07197,0.119944 -0.179917,0.227895 -0.101953,0.101952 -0.287867,0.179916 -0.179917,0.07197 -0.407812,0.07197 -0.527756,0 -0.911579,-0.395817 z m 2.381244,-0.989543 q 0,-0.56374 0.359834,-0.965554 0.365831,-0.401814 0.88759,-0.401814 0.527756,0 0.797631,0.341842 0.275873,0.341842 0.275873,0.833615 0,0.08996 -0.02399,0.10795 -0.02399,0.01799 -0.125942,0.01799 h -1.673227 q 0,0.611717 0.179917,0.899584 0.251884,0.401814 0.677687,0.401814 0.05997,0 0.125942,-0.01199 0.07197,-0.01199 0.2159,-0.05997 0.143934,-0.05398 0.269876,-0.191912 0.125941,-0.137936 0.197908,-0.353836 0.01799,-0.08396 0.07796,-0.08396 0.07796,0 0.07796,0.07197 0,0.05398 -0.05997,0.17392 -0.05398,0.113947 -0.161925,0.257881 -0.107951,0.137936 -0.317854,0.245886 -0.209903,0.101953 -0.461786,0.101953 -0.527757,0 -0.923574,-0.395817 -0.395817,-0.401814 -0.395817,-0.989543 z m 0.503767,-0.191911 h 1.421344 q 0,-0.125942 -0.02399,-0.263878 -0.01799,-0.143934 -0.08396,-0.335845 -0.05997,-0.197909 -0.209903,-0.317854 -0.143934,-0.125941 -0.359834,-0.125941 -0.09596,0 -0.203906,0.04198 -0.101953,0.04198 -0.227895,0.143934 -0.125941,0.09595 -0.2159,0.32385 -0.08396,0.221898 -0.09596,0.533754 z"
         id="path21" />
      <path
         style="font-weight:500;font-family:'CMU Serif';-inkscape-font-specification:'CMU Serif Medium';text-align:end;text-anchor:end"
         d="m 19.687721,51.299259 q 0,-1.013532 0.377826,-1.829155 0.161925,-0.341843 0.383822,-0.62971 0.227895,-0.287867 0.377826,-0.413808 0.149931,-0.125942 0.191911,-0.125942 0.05997,0 0.05997,0.05997 0,0.02999 -0.07796,0.101953 -0.965555,0.983546 -0.965555,2.83669 0,1.859141 0.941566,2.806703 0.101953,0.101953 0.101953,0.131939 0,0.05997 -0.05997,0.05997 -0.04198,0 -0.185914,-0.119945 -0.143933,-0.119944 -0.365831,-0.395817 -0.221897,-0.275873 -0.383823,-0.611718 -0.395817,-0.815623 -0.395817,-1.871135 z m 1.877478,-0.239889 q 0,-0.02399 0.006,-0.05997 0.01199,-0.03598 0.05997,-0.09596 0.04798,-0.05997 0.119945,-0.05997 h 0.473781 V 50.657555 H 21.69114 q -0.125941,0 -0.125941,-0.07197 0,-0.02399 0.006,-0.05997 0.01199,-0.03598 0.05997,-0.09596 0.04798,-0.05997 0.125942,-0.05997 h 0.503767 q 0.155928,-0.77964 0.73766,-1.223435 0.581731,-0.443795 1.271412,-0.443795 0.479779,0 0.893588,0.209903 0.419806,0.209903 0.503767,0.371828 v 0.01799 q 0,0.07796 -0.06597,0.2159 -0.05997,0.137937 -0.113947,0.137937 -0.02399,0 -0.125942,-0.07796 -0.09596,-0.07796 -0.221897,-0.17392 -0.125942,-0.09596 -0.365831,-0.17392 -0.233892,-0.07796 -0.503768,-0.07796 -0.545748,0 -0.977548,0.335845 -0.425804,0.335845 -0.569737,0.881593 h 2.33892 q 0.119944,0.006 0.119944,0.06597 0,0.02999 -0.02999,0.10795 -0.02999,0.07197 -0.07197,0.09596 -0.02999,0.01799 -0.143933,0.01799 h -2.254959 v 0.185914 h 2.159003 q 0.131939,0 0.131939,0.06597 0,0.04198 -0.02399,0.08996 -0.03598,0.08396 -0.07197,0.10795 -0.03598,0.02399 -0.101953,0.02399 h -2.051053 q 0.143933,0.557743 0.575734,0.88759 0.437798,0.323851 0.977549,0.323851 0.707673,0 1.235429,-0.443795 0.08396,-0.07197 0.119945,-0.07197 0.05997,0 0.05997,0.119945 v 0.167922 q 0,0.08996 -0.04798,0.149931 -0.04198,0.05997 -0.227895,0.185914 -0.527756,0.347839 -1.139473,0.347839 -0.707674,0 -1.289405,-0.449792 -0.575734,-0.449792 -0.725665,-1.217438 h -0.563739 q -0.131939,0 -0.131939,-0.07197 z m 4.792129,3.154543 q 0,-0.02999 0.02399,-0.09596 l 2.117022,-5.655388 q 0,-0.006 0.01199,-0.03598 0.01799,-0.03598 0.02399,-0.05398 0.01199,-0.02399 0.02999,-0.04198 0.01799,-0.01799 0.04198,-0.01799 0.05997,0 0.05997,0.07197 0,0.006 -0.01799,0.07796 l -2.12302,5.661385 q -0.03598,0.101953 -0.05997,0.131939 -0.01799,0.02999 -0.05398,0.02999 -0.05398,0 -0.05398,-0.07197 z m 3.130895,0.02399 q 0,-0.02999 0.07796,-0.101952 0.965554,-0.983546 0.965554,-2.83669 0,-1.859142 -0.929571,-2.800707 -0.113947,-0.10795 -0.113947,-0.137936 0,-0.05997 0.05997,-0.05997 0.04198,0 0.185914,0.119944 0.143934,0.119945 0.365831,0.395817 0.221898,0.275873 0.383823,0.611718 0.395817,0.815623 0.395817,1.871136 0,1.013532 -0.377825,1.829155 -0.161926,0.341842 -0.38982,0.629709 -0.221898,0.287867 -0.371829,0.413809 -0.14993,0.125942 -0.191911,0.125942 -0.05997,0 -0.05997,-0.05997 z m 2.339265,-1.439335 v -0.185914 q 0.2159,0 0.353836,-0.04198 0.137937,-0.04198 0.185914,-0.119944 0.05398,-0.08396 0.06597,-0.137936 0.01199,-0.05397 0.01199,-0.143934 v -2.998615 q 0,-0.17392 -0.07796,-0.227895 -0.07197,-0.05398 -0.395817,-0.05398 h -0.143933 v -0.185914 h 1.013532 q 0.10795,0 0.137936,0.01799 0.02999,0.01799 0.07197,0.113947 l 1.301399,3.358449 1.313393,-3.376441 q 0.02999,-0.08396 0.05398,-0.09596 0.02999,-0.01799 0.143933,-0.01799 h 1.013532 v 0.185914 h -0.143933 q -0.323851,0 -0.401815,0.05398 -0.07197,0.05398 -0.07197,0.227895 v 3.16054 q 0,0.17392 0.07197,0.227895 0.07796,0.05397 0.401815,0.05397 h 0.143933 v 0.185914 q -0.221897,-0.01799 -0.857604,-0.01799 -0.641703,0 -0.863601,0.01799 v -0.185914 h 0.143934 q 0.32385,0 0.395817,-0.05397 0.07796,-0.05398 0.07796,-0.227895 v -3.44241 h -0.006 l -1.475319,3.796247 q -0.04198,0.113947 -0.10795,0.113947 -0.07197,0 -0.119945,-0.131939 L 32.619122,48.93635 h -0.006 v 3.232507 q 0,0.08996 0.01199,0.143934 0.01199,0.05398 0.05997,0.137936 0.05398,0.07796 0.191911,0.119944 0.137936,0.04198 0.353836,0.04198 v 0.185914 q -0.629709,-0.01799 -0.701675,-0.01799 -0.07197,0 -0.701676,0.01799 z m 5.511798,-3.910194 v -0.185914 q 0.08396,0 0.233892,0.006 0.155928,0.006 0.275873,0.01199 0.119944,0 0.221897,0 0.635707,0 0.851607,-0.01799 v 0.185914 q -0.503768,0 -0.503768,0.179917 0,0.04198 0.01199,0.07796 l 0.965554,2.950637 0.833615,-2.572811 -0.131939,-0.419806 q -0.04798,-0.149931 -0.149931,-0.179917 -0.101953,-0.03598 -0.38982,-0.03598 v -0.185914 q 0.08396,0 0.233892,0.006 0.155928,0.006 0.275873,0.01199 0.119944,0 0.221897,0 0.635707,0 0.851607,-0.01799 v 0.185914 q -0.503767,0 -0.503767,0.179917 0,0.01799 0.01799,0.08996 l 0.959557,2.938642 0.899585,-2.77072 q 0.02999,-0.08996 0.02999,-0.119945 0,-0.10795 -0.125942,-0.209903 -0.125942,-0.101953 -0.395817,-0.10795 v -0.185914 q 0.467784,0.01799 0.71367,0.01799 0.275873,0 0.545748,-0.01799 v 0.185914 q -0.473781,0 -0.599723,0.401815 l -1.145471,3.520374 q -0.01199,0.04798 -0.02399,0.06597 -0.006,0.02399 -0.02999,0.03598 -0.02399,0.01799 -0.06597,0.01799 -0.07796,0 -0.113947,-0.113947 l -0.99554,-3.05259 -0.989543,3.046593 q -0.01199,0.04798 -0.02399,0.06597 -0.006,0.02399 -0.02999,0.03598 -0.02399,0.01799 -0.06597,0.01799 -0.07796,0 -0.113947,-0.113947 l -1.199446,-3.676302 q -0.05397,-0.17392 -0.137936,-0.209903 -0.07796,-0.04198 -0.407812,-0.04198 z m 6.375398,3.910194 v -0.185914 q 0.317854,0 0.38982,-0.03598 0.07796,-0.04198 0.07796,-0.233892 v -3.11856 q 0,-0.221897 -0.07796,-0.275872 -0.07796,-0.05997 -0.38982,-0.05997 v -0.185914 l 0.863602,-0.06597 v 2.087036 h 0.006 q 0.09596,-0.215901 0.311856,-0.395818 0.2159,-0.179916 0.551745,-0.179916 0.449792,0 0.629709,0.221897 0.131939,0.149931 0.155928,0.317853 0.02999,0.167923 0.02999,0.599723 v 1.145471 q 0.006,0.125942 0.101953,0.155928 0.09596,0.02399 0.365831,0.02399 v 0.185914 q -0.611717,-0.01799 -0.67169,-0.01799 -0.04798,0 -0.677687,0.01799 v -0.185914 q 0.317854,0 0.38982,-0.03598 0.07796,-0.04198 0.07796,-0.233892 v -1.397355 q 0,-0.305859 -0.09595,-0.485775 -0.08996,-0.179917 -0.34784,-0.179917 -0.311856,0 -0.563739,0.263878 -0.245887,0.257881 -0.245887,0.695678 v 1.103491 q 0,0.191911 0.07197,0.233892 0.07796,0.03598 0.395817,0.03598 v 0.185914 q -0.611717,-0.01799 -0.67169,-0.01799 -0.04798,0 -0.677687,0.01799 z"
         id="path22" />
    </g>
    <path
       style="font-weight:500;font-size:5.99723px;font-family:'CMU Serif';-inkscape-font-specification:'CMU Serif Medium';letter-spacing:0.132292px;fill:#ffffff;stroke-linecap:round;stroke-linejoin:round;stroke-miterlimit:3.9;paint-order:markers stroke fill"
       d="m 133.00959,146.71218 v -0.18591 q 0.6477,0.018 0.76165,0.018 0.6417,0 0.8576,-0.018 v 0.18591 q -0.49177,0 -0.49177,0.17392 0,0.024 0.036,0.10795 l 1.14547,3.0286 1.09749,-2.89066 q 0.03,-0.09 0.03,-0.11995 0,-0.11994 -0.11395,-0.2039 -0.10795,-0.09 -0.32385,-0.096 v -0.18591 q 0.46778,0.018 0.68368,0.018 0.30586,0 0.58173,-0.018 v 0.18591 q -0.50376,0.006 -0.65369,0.40182 l -1.33739,3.52637 q -0.024,0.072 -0.048,0.09 -0.024,0.024 -0.0959,0.024 -0.06,0 -0.09,-0.024 -0.03,-0.024 -0.06,-0.10795 l -1.39136,-3.6823 q -0.06,-0.16193 -0.16792,-0.19192 -0.10195,-0.036 -0.41981,-0.036 z m 4.58223,3.58635 q -0.39582,-0.38982 -0.39582,-0.95956 0,-0.56974 0.38382,-0.98355 0.38982,-0.4198 0.94756,-0.4198 0.54575,0 0.93557,0.41381 0.38982,0.4138 0.38982,0.98954 0,0.56374 -0.39582,0.95956 -0.38982,0.38982 -0.93556,0.38982 -0.53376,0 -0.92957,-0.38982 z m 0.10195,-1.00754 q 0,0.58173 0.14993,0.84561 0.23389,0.40181 0.68368,0.40181 0.2219,0 0.40782,-0.11994 0.18591,-0.11994 0.28786,-0.32385 0.13194,-0.26388 0.13194,-0.80363 0,-0.57573 -0.15593,-0.83361 -0.23389,-0.38982 -0.67768,-0.38982 -0.19191,0 -0.38383,0.10195 -0.18591,0.10195 -0.29986,0.29986 -0.14393,0.26388 -0.14393,0.82162 z m 2.66311,1.33139 v -0.18592 q 0.31785,0 0.38982,-0.036 0.078,-0.042 0.078,-0.23389 v -3.11856 q 0,-0.2219 -0.078,-0.27588 -0.078,-0.06 -0.38982,-0.06 v -0.18591 l 0.8636,-0.066 v 3.70629 q 0,0.19191 0.072,0.23389 0.078,0.036 0.39582,0.036 v 0.18592 q -0.072,0 -0.2279,-0.006 -0.14993,-0.006 -0.26388,-0.006 -0.10795,-0.006 -0.17392,-0.006 -0.072,0 -0.66569,0.018 z m 1.78752,-2.3989 v -0.18591 l 0.88159,-0.066 v 1.99108 q 0,0.14393 0.012,0.22789 0.012,0.084 0.06,0.17992 0.048,0.096 0.16192,0.14394 0.11395,0.042 0.29387,0.042 0.32385,0 0.52176,-0.26388 0.2039,-0.26988 0.2039,-0.66569 v -1.06751 q 0,-0.2219 -0.078,-0.27587 -0.078,-0.06 -0.38982,-0.06 v -0.18591 l 0.88159,-0.066 v 2.12902 q 0,0.22189 0.078,0.28187 0.078,0.054 0.38982,0.054 v 0.18592 l -0.86361,0.066 v -0.53976 q -0.25188,0.53976 -0.77364,0.53976 -0.26388,0 -0.44379,-0.066 -0.17992,-0.066 -0.26988,-0.14994 -0.09,-0.084 -0.13793,-0.24588 -0.048,-0.16193 -0.054,-0.25788 -0.006,-0.10196 -0.006,-0.29387 v -0.89958 q 0,-0.40781 -0.06,-0.47978 -0.06,-0.072 -0.40781,-0.072 z m 3.46075,2.3989 v -0.18592 q 0.31785,0 0.38982,-0.036 0.078,-0.042 0.078,-0.23389 v -1.60726 q 0,-0.2219 -0.078,-0.27587 -0.078,-0.06 -0.38982,-0.06 v -0.18591 l 0.8456,-0.066 v 0.62971 q 0.28187,-0.62971 0.88759,-0.62971 0.70168,0 0.79764,0.58773 0.10195,-0.2279 0.31785,-0.40781 0.2159,-0.17992 0.55174,-0.17992 0.4498,0 0.62971,0.2219 0.13194,0.14993 0.15593,0.31785 0.03,0.16792 0.03,0.59972 v 1.14547 q 0.006,0.12595 0.10195,0.15593 0.096,0.024 0.36583,0.024 v 0.18592 q -0.61172,-0.018 -0.67169,-0.018 -0.048,0 -0.67768,0.018 v -0.18592 q 0.31785,0 0.38981,-0.036 0.078,-0.042 0.078,-0.23389 v -1.39736 q 0,-0.30586 -0.096,-0.48577 -0.09,-0.17992 -0.34784,-0.17992 -0.31185,0 -0.56374,0.26388 -0.24588,0.25788 -0.24588,0.69568 v 1.10349 q 0,0.19191 0.072,0.23389 0.078,0.036 0.39582,0.036 v 0.18592 q -0.61172,-0.018 -0.67169,-0.018 -0.048,0 -0.67768,0.018 v -0.18592 q 0.31785,0 0.38982,-0.036 0.078,-0.042 0.078,-0.23389 v -1.39736 q 0,-0.30586 -0.096,-0.48577 -0.09,-0.17992 -0.34784,-0.17992 -0.31185,0 -0.56374,0.26388 -0.24588,0.25788 -0.24588,0.69568 v 1.10349 q 0,0.19191 0.072,0.23389 0.078,0.036 0.39582,0.036 v 0.18592 q -0.61172,-0.018 -0.67169,-0.018 -0.048,0 -0.67768,0.018 z m 5.10398,-1.3194 q 0,-0.56373 0.35983,-0.96555 0.36584,-0.40181 0.88759,-0.40181 0.52776,0 0.79764,0.34184 0.27587,0.34184 0.27587,0.83361 0,0.09 -0.024,0.10795 -0.024,0.018 -0.12594,0.018 h -1.67323 q 0,0.61171 0.17992,0.89958 0.25188,0.40181 0.67768,0.40181 0.06,0 0.12595,-0.012 0.072,-0.012 0.2159,-0.06 0.14393,-0.054 0.26987,-0.19191 0.12594,-0.13794 0.19791,-0.35384 0.018,-0.084 0.078,-0.084 0.078,0 0.078,0.072 0,0.054 -0.06,0.17391 -0.054,0.11395 -0.16193,0.25789 -0.10795,0.13793 -0.31785,0.24588 -0.20991,0.10196 -0.46179,0.10196 -0.52775,0 -0.92357,-0.39582 -0.39582,-0.40182 -0.39582,-0.98955 z m 0.50377,-0.19191 h 1.42134 q 0,-0.12594 -0.024,-0.26387 -0.018,-0.14394 -0.084,-0.33585 -0.06,-0.19791 -0.2099,-0.31785 -0.14394,-0.12594 -0.35984,-0.12594 -0.0959,0 -0.2039,0.042 -0.10195,0.042 -0.2279,0.14393 -0.12594,0.096 -0.2159,0.32385 -0.084,0.2219 -0.096,0.53375 z m 4.84645,0.012 q 0,-1.01353 0.37782,-1.82916 0.16193,-0.34184 0.38382,-0.62971 0.2279,-0.28786 0.37783,-0.41381 0.14993,-0.12594 0.19191,-0.12594 0.06,0 0.06,0.06 0,0.03 -0.078,0.10195 -0.96555,0.98354 -0.96555,2.83669 0,1.85914 0.94156,2.8067 0.10195,0.10195 0.10195,0.13194 0,0.06 -0.06,0.06 -0.042,0 -0.18591,-0.11994 -0.14394,-0.11995 -0.36583,-0.39582 -0.2219,-0.27587 -0.38383,-0.61172 -0.39581,-0.81562 -0.39581,-1.87113 z m 2.08738,1.49931 v -0.18592 q 0.2159,0 0.35383,-0.042 0.13794,-0.042 0.18592,-0.11994 0.054,-0.084 0.066,-0.13794 0.012,-0.054 0.012,-0.14393 v -2.99862 q 0,-0.17392 -0.078,-0.22789 -0.072,-0.054 -0.39582,-0.054 h -0.14393 v -0.18591 h 1.01353 q 0.10795,0 0.13793,0.018 0.03,0.018 0.072,0.11395 l 1.3014,3.35845 1.31339,-3.37645 q 0.03,-0.084 0.054,-0.0959 0.03,-0.018 0.14393,-0.018 h 1.01353 v 0.18591 h -0.14393 q -0.32385,0 -0.40182,0.054 -0.072,0.054 -0.072,0.22789 v 3.16054 q 0,0.17392 0.072,0.2279 0.078,0.054 0.40182,0.054 h 0.14393 v 0.18592 q -0.22189,-0.018 -0.8576,-0.018 -0.6417,0 -0.8636,0.018 v -0.18592 h 0.14393 q 0.32385,0 0.39582,-0.054 0.078,-0.054 0.078,-0.2279 v -3.44241 h -0.006 l -1.47532,3.79625 q -0.042,0.11395 -0.10795,0.11395 -0.072,0 -0.11995,-0.13194 l -1.44533,-3.73028 h -0.006 v 3.23251 q 0,0.0899 0.012,0.14393 0.012,0.054 0.06,0.13794 0.054,0.078 0.19191,0.11994 0.13794,0.042 0.35384,0.042 v 0.18592 q -0.62971,-0.018 -0.70168,-0.018 -0.072,0 -0.70167,0.018 z m 5.51179,-3.9102 v -0.18591 q 0.084,0 0.2339,0.006 0.15592,0.006 0.27587,0.012 0.11994,0 0.2219,0 0.6357,0 0.8516,-0.018 v 0.18591 q -0.50377,0 -0.50377,0.17992 0,0.042 0.012,0.078 l 0.96555,2.95064 0.83362,-2.57281 -0.13194,-0.41981 q -0.048,-0.14993 -0.14993,-0.17992 -0.10195,-0.036 -0.38982,-0.036 v -0.18591 q 0.084,0 0.23389,0.006 0.15593,0.006 0.27587,0.012 0.11995,0 0.2219,0 0.63571,0 0.85161,-0.018 v 0.18591 q -0.50377,0 -0.50377,0.17992 0,0.018 0.018,0.09 l 0.95956,2.93864 0.89958,-2.77072 q 0.03,-0.09 0.03,-0.11995 0,-0.10795 -0.12594,-0.2099 -0.12594,-0.10195 -0.39582,-0.10795 v -0.18591 q 0.46778,0.018 0.71367,0.018 0.27587,0 0.54575,-0.018 v 0.18591 q -0.47378,0 -0.59972,0.40182 l -1.14548,3.52037 q -0.012,0.048 -0.024,0.066 -0.006,0.024 -0.03,0.036 -0.024,0.018 -0.066,0.018 -0.078,0 -0.11395,-0.11394 l -0.99554,-3.05259 -0.98954,3.04659 q -0.012,0.048 -0.024,0.066 -0.006,0.024 -0.03,0.036 -0.024,0.018 -0.066,0.018 -0.078,0 -0.11394,-0.11394 l -1.19945,-3.6763 q -0.054,-0.17392 -0.13793,-0.20991 -0.078,-0.042 -0.40782,-0.042 z m 6.3754,3.9102 v -0.18592 q 0.31786,0 0.38982,-0.036 0.078,-0.042 0.078,-0.23389 v -3.11856 q 0,-0.2219 -0.078,-0.27588 -0.078,-0.06 -0.38982,-0.06 v -0.18591 l 0.8636,-0.066 v 2.08703 h 0.006 q 0.096,-0.2159 0.31186,-0.39581 0.2159,-0.17992 0.55174,-0.17992 0.44979,0 0.62971,0.2219 0.13194,0.14993 0.15593,0.31785 0.03,0.16792 0.03,0.59972 v 1.14547 q 0.006,0.12595 0.10196,0.15593 0.096,0.024 0.36583,0.024 v 0.18592 q -0.61172,-0.018 -0.67169,-0.018 -0.048,0 -0.67769,0.018 v -0.18592 q 0.31786,0 0.38982,-0.036 0.078,-0.042 0.078,-0.23389 v -1.39736 q 0,-0.30586 -0.096,-0.48577 -0.09,-0.17992 -0.34784,-0.17992 -0.31186,0 -0.56374,0.26388 -0.24589,0.25788 -0.24589,0.69568 v 1.10349 q 0,0.19191 0.072,0.23389 0.078,0.036 0.39582,0.036 v 0.18592 q -0.61172,-0.018 -0.67169,-0.018 -0.048,0 -0.67769,0.018 z m 3.61068,1.43933 q 0,-0.03 0.078,-0.10195 0.96556,-0.98355 0.96556,-2.83669 0,-1.85914 -0.92957,-2.80071 -0.11395,-0.10795 -0.11395,-0.13793 0,-0.06 0.06,-0.06 0.042,0 0.18592,0.11995 0.14393,0.11994 0.36583,0.39581 0.22189,0.27588 0.38382,0.61172 0.39582,0.81563 0.39582,1.87114 0,1.01353 -0.37783,1.82915 -0.16192,0.34185 -0.38982,0.62971 -0.2219,0.28787 -0.37183,0.41381 -0.14993,0.12594 -0.19191,0.12594 -0.06,0 -0.06,-0.06 z"
       id="text5"
       aria-label="Volume (MWh)" />
    <path
       style="fill:none;stroke:#00ff00;stroke-width:1;stroke-linecap:round;stroke-linejoin:round;stroke-miterlimit:3.9;paint-order:markers stroke fill"
       d="m 69.272565,60.369193 c 0,0 -3.257331,29.315975 28.881664,44.299697 32.138991,14.98372 34.744861,35.17917 34.744861,35.17917"
       id="path6" />
    <path
       style="fill:none;stroke:#ff00ff;stroke-width:1;stroke-linecap:round;stroke-linejoin:round;stroke-miterlimit:3.9;paint-order:markers stroke fill"
       d="m 132.80808,60.369193 c 0,0 -5.75574,14.564941 -38.002186,29.315976 C 74.393289,99.02285 69.181555,139.84806 69.181555,139.84806"
       id="path8"
       sodipodi:nodetypes="csc" />
    <path
       d="m 121.81694,58.63195 v -0.185914 h 0.14393 q 0.32385,0 0.39582,-0.05398 0.078,-0.05398 0.078,-0.227895 v -3.16054 q 0,-0.173919 -0.078,-0.227895 -0.072,-0.05398 -0.39582,-0.05398 h -0.14393 v -0.185914 h 2.11702 q 0.60572,0 1.00753,0.335845 0.40781,0.329848 0.40781,0.77964 0,0.443795 -0.4138,0.767645 -0.40782,0.317854 -0.95356,0.317854 h -1.01354 v 1.42734 q 0,0.17392 0.072,0.227895 0.078,0.05398 0.40182,0.05398 h 0.14393 v 0.185914 q -0.2099,-0.01799 -0.88759,-0.01799 -0.67169,0 -0.88159,0.01799 z m 1.13347,-2.051052 h 0.82762 q 0.26988,0 0.46179,-0.07197 0.19791,-0.07796 0.28786,-0.167923 0.09,-0.09596 0.13794,-0.245886 0.054,-0.149931 0.06,-0.233892 0.006,-0.08396 0.006,-0.209903 0,-0.131939 -0.006,-0.2159 -0.006,-0.08396 -0.06,-0.233892 -0.048,-0.149931 -0.13794,-0.239889 -0.09,-0.09596 -0.28786,-0.167923 -0.19191,-0.07197 -0.46179,-0.07197 h -0.53375 q -0.20391,0 -0.25189,0.04198 -0.042,0.04198 -0.042,0.197909 z m 3.03494,2.051052 v -0.185914 q 0.31786,0 0.38982,-0.03598 0.078,-0.04198 0.078,-0.233892 v -1.607258 q 0,-0.221897 -0.078,-0.275872 -0.078,-0.05997 -0.38982,-0.05997 v -0.185914 l 0.83362,-0.06597 v 0.659695 q 0.084,-0.257881 0.26388,-0.455789 0.17991,-0.203906 0.47378,-0.203906 0.19191,0 0.31785,0.10795 0.12594,0.10795 0.12594,0.257881 0,0.131939 -0.084,0.197908 -0.078,0.06597 -0.17392,0.06597 -0.10795,0 -0.18591,-0.06597 -0.072,-0.07197 -0.072,-0.191911 0,-0.07197 0.03,-0.125942 0.036,-0.05997 0.06,-0.07796 0.03,-0.02399 0.048,-0.02999 -0.012,-0.006 -0.066,-0.006 -0.32985,0 -0.52176,0.329847 -0.18591,0.329848 -0.18591,0.797632 v 0.923573 q 0,0.17392 0.072,0.227895 0.072,0.05398 0.38382,0.05398 h 0.12595 v 0.185914 q -0.23989,-0.01799 -0.76165,-0.01799 -0.072,0 -0.18592,0.006 -0.11394,0 -0.26387,0.006 -0.14993,0.006 -0.2339,0.006 z m 2.47721,-1.31939 q 0,-0.56374 0.35983,-0.965554 0.36583,-0.401815 0.88759,-0.401815 0.52776,0 0.79763,0.341842 0.27587,0.341843 0.27587,0.833615 0,0.08996 -0.024,0.107951 -0.024,0.01799 -0.12594,0.01799 h -1.67322 q 0,0.611718 0.17991,0.899585 0.25189,0.401814 0.67769,0.401814 0.06,0 0.12594,-0.01199 0.072,-0.01199 0.2159,-0.05997 0.14394,-0.05398 0.26988,-0.191911 0.12594,-0.137936 0.19791,-0.353837 0.018,-0.08396 0.078,-0.08396 0.078,0 0.078,0.07197 0,0.05397 -0.06,0.17392 -0.054,0.113947 -0.16192,0.257881 -0.10795,0.137936 -0.31786,0.245886 -0.2099,0.101953 -0.46178,0.101953 -0.52776,0 -0.92358,-0.395817 -0.39581,-0.401815 -0.39581,-0.989543 z m 0.50376,-0.191912 h 1.42135 q 0,-0.125941 -0.024,-0.263878 -0.018,-0.143933 -0.084,-0.335845 -0.06,-0.197908 -0.20991,-0.317853 -0.14393,-0.125942 -0.35983,-0.125942 -0.096,0 -0.20391,0.04198 -0.10195,0.04198 -0.22789,0.143934 -0.12594,0.09596 -0.2159,0.32385 -0.084,0.221897 -0.096,0.533753 z m 2.32727,0.221898 q 0,-0.569737 0.39582,-0.965554 0.40181,-0.395817 0.94156,-0.395817 0.45579,0 0.75565,0.371828 v -1.295402 q 0,-0.221897 -0.078,-0.275872 -0.078,-0.05997 -0.38982,-0.05997 v -0.185914 l 0.8636,-0.06597 v 3.640318 q 0,0.221898 0.078,0.28187 0.078,0.05398 0.38982,0.05398 v 0.185914 l -0.8816,0.06597 v -0.395817 q -0.31185,0.395817 -0.80363,0.395817 -0.51576,0 -0.89358,-0.395817 -0.37783,-0.395817 -0.37783,-0.959557 z m 0.49777,0.006 q 0,0.557743 0.17392,0.833615 0.23989,0.383823 0.62971,0.383823 0.4438,0 0.70767,-0.419806 0.066,-0.101953 0.066,-0.221898 v -1.229432 q 0,-0.119945 -0.066,-0.221897 -0.24588,-0.359834 -0.6477,-0.359834 -0.4198,0 -0.67768,0.383822 -0.18592,0.287868 -0.18592,0.851607 z m 2.95698,1.283407 v -0.185914 q 0.31785,0 0.38982,-0.03598 0.078,-0.04198 0.078,-0.233892 v -1.613255 q 0,-0.221898 -0.078,-0.275873 -0.072,-0.05398 -0.36583,-0.05398 v -0.185914 l 0.83961,-0.06597 v 2.200983 q 0,0.179917 0.06,0.221898 0.066,0.04198 0.35984,0.04198 v 0.185914 q -0.61172,-0.01799 -0.62371,-0.01799 -0.084,0 -0.6597,0.01799 z m 0.25188,-3.694293 q 0,-0.119945 0.09,-0.215901 0.096,-0.101953 0.2279,-0.101953 0.13194,0 0.22189,0.08996 0.096,0.08996 0.096,0.227895 0,0.137936 -0.096,0.227894 -0.09,0.08996 -0.22189,0.08996 -0.13794,0 -0.2279,-0.09596 -0.09,-0.09596 -0.09,-0.221897 z m 1.92546,3.364446 q -0.37783,-0.395817 -0.37783,-0.965554 0,-0.569737 0.37183,-0.977549 0.37783,-0.413809 0.92957,-0.413809 0.36583,0 0.6417,0.17392 0.27588,0.17392 0.27588,0.467784 0,0.131939 -0.078,0.209903 -0.078,0.07197 -0.19791,0.07197 -0.12594,0 -0.2039,-0.07796 -0.072,-0.07796 -0.072,-0.197909 0,-0.05398 0.018,-0.101953 0.018,-0.05397 0.084,-0.10795 0.066,-0.05997 0.17991,-0.06597 -0.2159,-0.221898 -0.6417,-0.221898 -0.30586,0 -0.55774,0.287867 -0.25189,0.287867 -0.25189,0.941565 0,0.341842 0.084,0.593726 0.084,0.251884 0.2219,0.383823 0.13794,0.125942 0.26988,0.185914 0.13793,0.05997 0.26987,0.05997 0.58773,0 0.78564,-0.629709 0.018,-0.05997 0.078,-0.05997 0.078,0 0.078,0.05997 0,0.02999 -0.024,0.10795 -0.024,0.07197 -0.096,0.191912 -0.072,0.119944 -0.17991,0.227894 -0.10196,0.101953 -0.28787,0.179917 -0.17992,0.07197 -0.40781,0.07197 -0.52776,0 -0.91158,-0.395817 z m 2.32727,-2.069045 v -0.131939 q 0.27587,-0.01199 0.45579,-0.203906 0.18591,-0.197908 0.24588,-0.437797 0.066,-0.23989 0.072,-0.515762 h 0.14993 v 1.10349 h 0.8576 v 0.185914 h -0.8576 v 1.66723 q 0,0.647701 0.40182,0.647701 0.17391,0 0.28786,-0.17392 0.11395,-0.179916 0.11395,-0.49777 v -0.329847 h 0.14993 v 0.341842 q 0,0.32385 -0.14993,0.569737 -0.14993,0.239889 -0.4438,0.239889 -0.10795,0 -0.2159,-0.02999 -0.10795,-0.02399 -0.24588,-0.09596 -0.13794,-0.07197 -0.2279,-0.245886 -0.084,-0.179917 -0.084,-0.437798 v -1.655236 z m 2.51318,1.079502 q 0,-0.56374 0.35983,-0.965554 0.36583,-0.401815 0.88759,-0.401815 0.52776,0 0.79764,0.341842 0.27587,0.341843 0.27587,0.833615 0,0.08996 -0.024,0.107951 -0.024,0.01799 -0.12594,0.01799 h -1.67323 q 0,0.611718 0.17992,0.899585 0.25188,0.401814 0.67768,0.401814 0.06,0 0.12595,-0.01199 0.072,-0.01199 0.2159,-0.05997 0.14393,-0.05398 0.26987,-0.191911 0.12594,-0.137936 0.19791,-0.353837 0.018,-0.08396 0.078,-0.08396 0.078,0 0.078,0.07197 0,0.05397 -0.06,0.17392 -0.054,0.113947 -0.16193,0.257881 -0.10795,0.137936 -0.31785,0.245886 -0.20991,0.101953 -0.46179,0.101953 -0.52776,0 -0.92357,-0.395817 -0.39582,-0.401815 -0.39582,-0.989543 z m 0.50377,-0.191912 h 1.42134 q 0,-0.125941 -0.024,-0.263878 -0.018,-0.143933 -0.084,-0.335845 -0.06,-0.197908 -0.2099,-0.317853 -0.14394,-0.125942 -0.35984,-0.125942 -0.096,0 -0.2039,0.04198 -0.10195,0.04198 -0.2279,0.143934 -0.12594,0.09596 -0.2159,0.32385 -0.084,0.221897 -0.0959,0.533753 z m 2.32727,0.221898 q 0,-0.569737 0.39581,-0.965554 0.40182,-0.395817 0.94157,-0.395817 0.45579,0 0.75565,0.371828 v -1.295402 q 0,-0.221897 -0.078,-0.275872 -0.078,-0.05997 -0.38982,-0.05997 v -0.185914 l 0.8636,-0.06597 v 3.640318 q 0,0.221898 0.078,0.28187 0.078,0.05398 0.38982,0.05398 v 0.185914 l -0.88159,0.06597 v -0.395817 q -0.31186,0.395817 -0.80363,0.395817 -0.51576,0 -0.89359,-0.395817 -0.37782,-0.395817 -0.37782,-0.959557 z m 0.49777,0.006 q 0,0.557743 0.17392,0.833615 0.23989,0.383823 0.62971,0.383823 0.44379,0 0.70767,-0.419806 0.066,-0.101953 0.066,-0.221898 v -1.229432 q 0,-0.119945 -0.066,-0.221897 -0.24589,-0.359834 -0.6477,-0.359834 -0.41981,0 -0.67769,0.383822 -0.18591,0.287868 -0.18591,0.851607 z m 5.09233,-0.006 q 0,-0.569737 0.39582,-0.965554 0.40181,-0.395817 0.94156,-0.395817 0.45579,0 0.75565,0.371828 v -1.295402 q 0,-0.221897 -0.078,-0.275872 -0.078,-0.05997 -0.38982,-0.05997 v -0.185914 l 0.8636,-0.06597 v 3.640318 q 0,0.221898 0.078,0.28187 0.078,0.05398 0.38982,0.05398 v 0.185914 l -0.88159,0.06597 v -0.395817 q -0.31185,0.395817 -0.80363,0.395817 -0.51576,0 -0.89358,-0.395817 -0.37783,-0.395817 -0.37783,-0.959557 z m 0.49777,0.006 q 0,0.557743 0.17392,0.833615 0.23989,0.383823 0.62971,0.383823 0.44379,0 0.70767,-0.419806 0.066,-0.101953 0.066,-0.221898 v -1.229432 q 0,-0.119945 -0.066,-0.221897 -0.24588,-0.359834 -0.6477,-0.359834 -0.4198,0 -0.67769,0.383822 -0.18591,0.287868 -0.18591,0.851607 z m 2.92699,-0.03598 q 0,-0.56374 0.35984,-0.965554 0.36583,-0.401815 0.88759,-0.401815 0.52775,0 0.79763,0.341842 0.27587,0.341843 0.27587,0.833615 0,0.08996 -0.024,0.107951 -0.024,0.01799 -0.12594,0.01799 h -1.67323 q 0,0.611718 0.17992,0.899585 0.25188,0.401814 0.67769,0.401814 0.06,0 0.12594,-0.01199 0.072,-0.01199 0.2159,-0.05997 0.14393,-0.05398 0.26987,-0.191911 0.12594,-0.137936 0.19791,-0.353837 0.018,-0.08396 0.078,-0.08396 0.078,0 0.078,0.07197 0,0.05397 -0.06,0.17392 -0.054,0.113947 -0.16193,0.257881 -0.10795,0.137936 -0.31785,0.245886 -0.2099,0.101953 -0.46179,0.101953 -0.52775,0 -0.92357,-0.395817 -0.39582,-0.401815 -0.39582,-0.989543 z m 0.50377,-0.191912 h 1.42134 q 0,-0.125941 -0.024,-0.263878 -0.018,-0.143933 -0.084,-0.335845 -0.06,-0.197908 -0.2099,-0.317853 -0.14393,-0.125942 -0.35983,-0.125942 -0.096,0 -0.20391,0.04198 -0.10195,0.04198 -0.2279,0.143934 -0.12594,0.09596 -0.2159,0.32385 -0.084,0.221897 -0.0959,0.533753 z m 2.31527,1.511302 v -0.185914 q 0.31786,0 0.38982,-0.03598 0.078,-0.04198 0.078,-0.233892 v -1.607258 q 0,-0.221897 -0.078,-0.275872 -0.078,-0.05997 -0.38982,-0.05997 v -0.185914 l 0.84561,-0.06597 v 0.629709 q 0.28187,-0.629709 0.88759,-0.629709 0.70168,0 0.79763,0.587728 0.10196,-0.227895 0.31786,-0.407811 0.2159,-0.179917 0.55174,-0.179917 0.4498,0 0.62971,0.221897 0.13194,0.149931 0.15593,0.317853 0.03,0.167923 0.03,0.599723 v 1.145471 q 0.006,0.125942 0.10195,0.155928 0.096,0.02399 0.36583,0.02399 v 0.185914 q -0.61172,-0.01799 -0.67169,-0.01799 -0.048,0 -0.67769,0.01799 v -0.185914 q 0.31786,0 0.38982,-0.03598 0.078,-0.04198 0.078,-0.233892 v -1.397355 q 0,-0.305858 -0.096,-0.485775 -0.09,-0.179917 -0.34784,-0.179917 -0.31185,0 -0.56374,0.263878 -0.24588,0.257881 -0.24588,0.695679 v 1.10349 q 0,0.191911 0.072,0.233892 0.078,0.03598 0.39582,0.03598 v 0.185914 q -0.61172,-0.01799 -0.67169,-0.01799 -0.048,0 -0.67769,0.01799 v -0.185914 q 0.31786,0 0.38982,-0.03598 0.078,-0.04198 0.078,-0.233892 v -1.397355 q 0,-0.305858 -0.096,-0.485775 -0.09,-0.179917 -0.34784,-0.179917 -0.31185,0 -0.56374,0.263878 -0.24588,0.257881 -0.24588,0.695679 v 1.10349 q 0,0.191911 0.072,0.233892 0.078,0.03598 0.39582,0.03598 v 0.185914 q -0.61172,-0.01799 -0.67169,-0.01799 -0.048,0 -0.67769,0.01799 z m 5.18795,-0.569736 q 0,-0.509765 0.59972,-0.77964 0.35983,-0.17392 1.10349,-0.215901 v -0.221897 q 0,-0.371828 -0.19791,-0.569737 -0.19191,-0.197909 -0.4378,-0.197909 -0.43779,0 -0.6477,0.275873 0.17992,0.006 0.23989,0.09596 0.066,0.08996 0.066,0.179917 0,0.119944 -0.078,0.197908 -0.072,0.07796 -0.19791,0.07796 -0.11994,0 -0.19791,-0.07197 -0.078,-0.07796 -0.078,-0.209903 0,-0.293864 0.26388,-0.485775 0.26387,-0.191912 0.6417,-0.191912 0.49177,0 0.82162,0.329848 0.10195,0.101953 0.14993,0.233892 0.054,0.131939 0.06,0.221897 0.006,0.08396 0.006,0.251884 v 1.199446 q 0,0.03598 0.012,0.09596 0.012,0.05398 0.066,0.131939 0.054,0.07197 0.14394,0.07197 0.2159,0 0.2159,-0.383823 v -0.335845 h 0.14993 v 0.335845 q 0,0.317853 -0.16792,0.443795 -0.16793,0.125942 -0.32385,0.125942 -0.19791,0 -0.32385,-0.143934 -0.12595,-0.149931 -0.14394,-0.347839 -0.09,0.227895 -0.29986,0.377825 -0.20391,0.143934 -0.48578,0.143934 -0.2159,0 -0.4198,-0.05398 -0.20391,-0.05398 -0.37183,-0.203906 -0.16792,-0.149931 -0.16792,-0.377825 z m 0.46178,-0.006 q 0,0.221898 0.15593,0.365831 0.16193,0.143934 0.38383,0.143934 0.25188,0 0.47378,-0.191912 0.22789,-0.197908 0.22789,-0.581731 v -0.599723 q -0.66569,0.02399 -0.95356,0.287867 -0.28787,0.263878 -0.28787,0.575734 z m 2.60914,0.575734 v -0.185914 q 0.31786,0 0.38982,-0.03598 0.078,-0.04198 0.078,-0.233892 v -1.607258 q 0,-0.221897 -0.078,-0.275872 -0.078,-0.05997 -0.38982,-0.05997 v -0.185914 l 0.84561,-0.06597 v 0.629709 q 0.28187,-0.629709 0.88759,-0.629709 0.44979,0 0.62971,0.221897 0.13194,0.149931 0.15593,0.317853 0.03,0.167923 0.03,0.599723 v 1.145471 q 0.006,0.125942 0.10195,0.155928 0.0959,0.02399 0.36583,0.02399 v 0.185914 q -0.61172,-0.01799 -0.67169,-0.01799 -0.048,0 -0.67769,0.01799 v -0.185914 q 0.31786,0 0.38982,-0.03598 0.078,-0.04198 0.078,-0.233892 v -1.397355 q 0,-0.305858 -0.096,-0.485775 -0.09,-0.179917 -0.34784,-0.179917 -0.31185,0 -0.56374,0.263878 -0.24588,0.257881 -0.24588,0.695679 v 1.10349 q 0,0.191911 0.072,0.233892 0.078,0.03598 0.39582,0.03598 v 0.185914 q -0.61172,-0.01799 -0.67169,-0.01799 -0.048,0 -0.67769,0.01799 z m 3.47274,-1.289404 q 0,-0.569737 0.39582,-0.965554 0.40182,-0.395817 0.94157,-0.395817 0.45579,0 0.75565,0.371828 v -1.295402 q 0,-0.221897 -0.078,-0.275872 -0.078,-0.05997 -0.38982,-0.05997 v -0.185914 l 0.8636,-0.06597 v 3.640318 q 0,0.221898 0.078,0.28187 0.078,0.05398 0.38982,0.05398 v 0.185914 l -0.88159,0.06597 v -0.395817 q -0.31186,0.395817 -0.80363,0.395817 -0.51576,0 -0.89359,-0.395817 -0.37783,-0.395817 -0.37783,-0.959557 z m 0.49777,0.006 q 0,0.557743 0.17392,0.833615 0.23989,0.383823 0.62971,0.383823 0.4438,0 0.70768,-0.419806 0.066,-0.101953 0.066,-0.221898 v -1.229432 q 0,-0.119945 -0.066,-0.221897 -0.24589,-0.359834 -0.6477,-0.359834 -0.41981,0 -0.67769,0.383822 -0.18592,0.287868 -0.18592,0.851607 z"
       id="text8"
       style="font-weight:500;font-size:5.99723px;font-family:'CMU Serif';-inkscape-font-specification:'CMU Serif Medium';letter-spacing:0.132292px;fill:#ff00ff;stroke-linecap:round;stroke-linejoin:round;stroke-miterlimit:3.9;paint-order:markers stroke fill"
       aria-label="Predicted demand" />
    <path
       d="m 60.361965,58.63195 v -0.185914 h 0.143933 q 0.32385,0 0.395817,-0.05398 0.07796,-0.05398 0.07796,-0.227895 v -3.16054 q 0,-0.173919 -0.07796,-0.227895 -0.07197,-0.05398 -0.395817,-0.05398 h -0.143933 v -0.185914 h 2.117022 q 0.60572,0 1.007534,0.335845 0.407812,0.329848 0.407812,0.77964 0,0.443795 -0.413809,0.767645 -0.407812,0.317854 -0.953559,0.317854 h -1.013532 v 1.42734 q 0,0.17392 0.07197,0.227895 0.07796,0.05398 0.401815,0.05398 h 0.143933 v 0.185914 q -0.209903,-0.01799 -0.88759,-0.01799 -0.671689,0 -0.881592,0.01799 z m 1.133476,-2.051052 h 0.827618 q 0.269875,0 0.461786,-0.07197 0.197909,-0.07796 0.287867,-0.167923 0.08996,-0.09596 0.137937,-0.245886 0.05398,-0.149931 0.05997,-0.233892 0.006,-0.08396 0.006,-0.209903 0,-0.131939 -0.006,-0.2159 -0.006,-0.08396 -0.05997,-0.233892 -0.04798,-0.149931 -0.137937,-0.239889 -0.08996,-0.09596 -0.287867,-0.167923 -0.191911,-0.07197 -0.461786,-0.07197 h -0.533754 q -0.203906,0 -0.251883,0.04198 -0.04198,0.04198 -0.04198,0.197909 z m 3.034942,2.051052 v -0.185914 q 0.317853,0 0.38982,-0.03598 0.07796,-0.04198 0.07796,-0.233892 v -1.607258 q 0,-0.221897 -0.07796,-0.275872 -0.07796,-0.05997 -0.38982,-0.05997 v -0.185914 l 0.833615,-0.06597 v 0.659695 q 0.08396,-0.257881 0.263878,-0.455789 0.179917,-0.203906 0.473781,-0.203906 0.191911,0 0.317853,0.10795 0.125942,0.10795 0.125942,0.257881 0,0.131939 -0.08396,0.197908 -0.07796,0.06597 -0.17392,0.06597 -0.10795,0 -0.185914,-0.06597 -0.07197,-0.07197 -0.07197,-0.191911 0,-0.07197 0.02999,-0.125942 0.03598,-0.05997 0.05997,-0.07796 0.02999,-0.02399 0.04798,-0.02999 -0.01199,-0.006 -0.06597,-0.006 -0.329848,0 -0.521759,0.329847 -0.185914,0.329848 -0.185914,0.797632 v 0.923573 q 0,0.17392 0.07197,0.227895 0.07197,0.05398 0.383823,0.05398 h 0.125942 v 0.185914 q -0.239889,-0.01799 -0.761648,-0.01799 -0.07197,0 -0.185914,0.006 -0.113948,0 -0.263878,0.006 -0.149931,0.006 -0.233892,0.006 z m 2.477202,-1.31939 q 0,-0.56374 0.359833,-0.965554 0.365831,-0.401815 0.88759,-0.401815 0.527757,0 0.797632,0.341842 0.275873,0.341843 0.275873,0.833615 0,0.08996 -0.02399,0.107951 -0.02399,0.01799 -0.125942,0.01799 h -1.673227 q 0,0.611718 0.179917,0.899585 0.251883,0.401814 0.677687,0.401814 0.05997,0 0.125941,-0.01199 0.07197,-0.01199 0.215901,-0.05997 0.143933,-0.05398 0.269875,-0.191911 0.125942,-0.137936 0.197909,-0.353837 0.01799,-0.08396 0.07796,-0.08396 0.07796,0 0.07796,0.07197 0,0.05397 -0.05997,0.17392 -0.05398,0.113947 -0.161925,0.257881 -0.10795,0.137936 -0.317853,0.245886 -0.209903,0.101953 -0.461787,0.101953 -0.527756,0 -0.923573,-0.395817 -0.395817,-0.401815 -0.395817,-0.989543 z m 0.503767,-0.191912 h 1.421343 q 0,-0.125941 -0.02399,-0.263878 -0.01799,-0.143933 -0.08396,-0.335845 -0.05997,-0.197908 -0.209903,-0.317853 -0.143933,-0.125942 -0.359834,-0.125942 -0.09596,0 -0.203905,0.04198 -0.101953,0.04198 -0.227895,0.143934 -0.125942,0.09596 -0.2159,0.32385 -0.08396,0.221897 -0.09596,0.533753 z m 2.327268,0.221898 q 0,-0.569737 0.395817,-0.965554 0.401815,-0.395817 0.941565,-0.395817 0.45579,0 0.755651,0.371828 v -1.295402 q 0,-0.221897 -0.07796,-0.275872 -0.07796,-0.05997 -0.38982,-0.05997 v -0.185914 l 0.863601,-0.06597 v 3.640318 q 0,0.221898 0.07796,0.28187 0.07796,0.05398 0.38982,0.05398 v 0.185914 l -0.881592,0.06597 v -0.395817 q -0.311856,0.395817 -0.803629,0.395817 -0.515762,0 -0.893588,-0.395817 -0.377825,-0.395817 -0.377825,-0.959557 z m 0.49777,0.006 q 0,0.557743 0.17392,0.833615 0.239889,0.383823 0.629709,0.383823 0.443795,0 0.707673,-0.419806 0.06597,-0.101953 0.06597,-0.221898 v -1.229432 q 0,-0.119945 -0.06597,-0.221897 -0.245886,-0.359834 -0.647701,-0.359834 -0.419806,0 -0.677687,0.383822 -0.185914,0.287868 -0.185914,0.851607 z m 2.956979,1.283407 v -0.185914 q 0.317853,0 0.389819,-0.03598 0.07796,-0.04198 0.07796,-0.233892 v -1.613255 q 0,-0.221898 -0.07796,-0.275873 -0.07197,-0.05398 -0.365831,-0.05398 v -0.185914 l 0.839613,-0.06597 v 2.200983 q 0,0.179917 0.05997,0.221898 0.06597,0.04198 0.359834,0.04198 v 0.185914 q -0.611718,-0.01799 -0.623712,-0.01799 -0.08396,0 -0.659695,0.01799 z m 0.251883,-3.694293 q 0,-0.119945 0.08996,-0.215901 0.09596,-0.101953 0.227894,-0.101953 0.131939,0 0.221898,0.08996 0.09596,0.08996 0.09596,0.227895 0,0.137936 -0.09596,0.227894 -0.08996,0.08996 -0.221898,0.08996 -0.137936,0 -0.227894,-0.09596 -0.08996,-0.09596 -0.08996,-0.221897 z m 1.925454,3.364446 q -0.377825,-0.395817 -0.377825,-0.965554 0,-0.569737 0.371828,-0.977549 0.377826,-0.413809 0.929571,-0.413809 0.365831,0 0.641704,0.17392 0.275872,0.17392 0.275872,0.467784 0,0.131939 -0.07796,0.209903 -0.07796,0.07197 -0.197908,0.07197 -0.125942,0 -0.203906,-0.07796 -0.07197,-0.07796 -0.07197,-0.197909 0,-0.05398 0.01799,-0.101953 0.01799,-0.05397 0.08396,-0.10795 0.06597,-0.05997 0.179917,-0.06597 -0.215901,-0.221898 -0.641704,-0.221898 -0.305859,0 -0.557742,0.287867 -0.251884,0.287867 -0.251884,0.941565 0,0.341842 0.08396,0.593726 0.08396,0.251884 0.221898,0.383823 0.137936,0.125942 0.269875,0.185914 0.137936,0.05997 0.269875,0.05997 0.587729,0 0.785638,-0.629709 0.01799,-0.05997 0.07796,-0.05997 0.07796,0 0.07796,0.05997 0,0.02999 -0.02399,0.10795 -0.02399,0.07197 -0.09596,0.191912 -0.07197,0.119944 -0.179917,0.227894 -0.101953,0.101953 -0.287867,0.179917 -0.179917,0.07197 -0.407812,0.07197 -0.527756,0 -0.911579,-0.395817 z m 2.32727,-2.069045 v -0.131939 q 0.275873,-0.01199 0.455789,-0.203906 0.185915,-0.197908 0.245887,-0.437797 0.06597,-0.23989 0.07197,-0.515762 h 0.14993 v 1.10349 h 0.857604 v 0.185914 h -0.857604 v 1.66723 q 0,0.647701 0.401815,0.647701 0.17392,0 0.287867,-0.17392 0.113947,-0.179916 0.113947,-0.49777 v -0.329847 h 0.149931 v 0.341842 q 0,0.32385 -0.149931,0.569737 -0.14993,0.239889 -0.443795,0.239889 -0.10795,0 -0.2159,-0.02999 -0.10795,-0.02399 -0.245886,-0.09596 -0.137937,-0.07197 -0.227895,-0.245886 -0.08396,-0.179917 -0.08396,-0.437798 v -1.655236 z m 2.513183,1.079502 q 0,-0.56374 0.359833,-0.965554 0.365831,-0.401815 0.88759,-0.401815 0.527757,0 0.797632,0.341842 0.275873,0.341843 0.275873,0.833615 0,0.08996 -0.02399,0.107951 -0.02399,0.01799 -0.125942,0.01799 h -1.673227 q 0,0.611718 0.179917,0.899585 0.251883,0.401814 0.677687,0.401814 0.05997,0 0.125941,-0.01199 0.07197,-0.01199 0.215901,-0.05997 0.143933,-0.05398 0.269875,-0.191911 0.125942,-0.137936 0.197909,-0.353837 0.01799,-0.08396 0.07796,-0.08396 0.07796,0 0.07796,0.07197 0,0.05397 -0.05997,0.17392 -0.05397,0.113947 -0.161925,0.257881 -0.10795,0.137936 -0.317853,0.245886 -0.209903,0.101953 -0.461787,0.101953 -0.527756,0 -0.923573,-0.395817 -0.395817,-0.401815 -0.395817,-0.989543 z m 0.503767,-0.191912 h 1.421343 q 0,-0.125941 -0.02399,-0.263878 -0.01799,-0.143933 -0.08396,-0.335845 -0.05997,-0.197908 -0.209903,-0.317853 -0.143933,-0.125942 -0.359834,-0.125942 -0.09596,0 -0.203905,0.04198 -0.101953,0.04198 -0.227895,0.143934 -0.125942,0.09596 -0.2159,0.32385 -0.08396,0.221897 -0.09596,0.533753 z m 2.327269,0.221898 q 0,-0.569737 0.395818,-0.965554 0.401814,-0.395817 0.941565,-0.395817 0.455789,0 0.755651,0.371828 v -1.295402 q 0,-0.221897 -0.07796,-0.275872 -0.07796,-0.05997 -0.38982,-0.05997 v -0.185914 l 0.863601,-0.06597 v 3.640318 q 0,0.221898 0.07796,0.28187 0.07796,0.05398 0.38982,0.05398 v 0.185914 l -0.881593,0.06597 v -0.395817 q -0.311856,0.395817 -0.803629,0.395817 -0.515762,0 -0.893587,-0.395817 -0.377826,-0.395817 -0.377826,-0.959557 z m 0.497771,0.006 q 0,0.557743 0.173919,0.833615 0.239889,0.383823 0.629709,0.383823 0.443795,0 0.707674,-0.419806 0.06597,-0.101953 0.06597,-0.221898 v -1.229432 q 0,-0.119945 -0.06597,-0.221897 -0.245887,-0.359834 -0.647701,-0.359834 -0.419806,0 -0.677687,0.383822 -0.185914,0.287868 -0.185914,0.851607 z m 5.086335,1.205443 v -0.791634 q 0,-0.06597 0,-0.08996 0.006,-0.02399 0.02399,-0.04198 0.01799,-0.01799 0.05397,-0.01799 0.04198,0 0.05397,0.01799 0.01799,0.01799 0.02999,0.08396 0.08996,0.413809 0.281869,0.635707 0.197909,0.2159 0.551746,0.2159 0.335844,0 0.503767,-0.149931 0.17392,-0.149931 0.17392,-0.395817 0,-0.437798 -0.623712,-0.551745 -0.359834,-0.07197 -0.509765,-0.119945 -0.149931,-0.04798 -0.28187,-0.155928 -0.257881,-0.209903 -0.257881,-0.509764 0,-0.299862 0.227895,-0.515762 0.227895,-0.221898 0.731662,-0.221898 0.335845,0 0.56374,0.167923 0.06597,-0.05398 0.101953,-0.09596 0.07796,-0.07197 0.119944,-0.07197 0.04798,0 0.05397,0.02999 0.01199,0.02999 0.01199,0.113948 v 0.60572 q 0,0.06597 -0.006,0.08996 0,0.02399 -0.01799,0.04198 -0.01799,0.01199 -0.05397,0.01199 -0.06597,0 -0.07197,-0.05398 -0.04798,-0.725665 -0.701676,-0.725665 -0.353836,0 -0.515762,0.137936 -0.155928,0.131939 -0.155928,0.317853 0,0.101953 0.04798,0.179917 0.04798,0.07796 0.10795,0.125942 0.06597,0.04198 0.179917,0.08396 0.119945,0.04198 0.191912,0.05997 0.07197,0.01199 0.209903,0.04198 0.479778,0.08996 0.683684,0.287867 0.251884,0.251884 0.251884,0.569737 0,0.353837 -0.23989,0.593726 -0.239889,0.239889 -0.725664,0.239889 -0.38982,0 -0.659696,-0.257881 -0.03598,0.03598 -0.06597,0.06597 -0.02399,0.02999 -0.03598,0.04198 -0.006,0.01199 -0.01199,0.01799 0,0.006 -0.006,0.01199 -0.119945,0.119945 -0.149931,0.119945 -0.04798,0 -0.05997,-0.02999 -0.006,-0.02999 -0.006,-0.113948 z M 91.2155,56.233058 v -0.185914 l 0.881592,-0.06597 v 1.99108 q 0,0.143934 0.01199,0.227895 0.01199,0.08396 0.05997,0.179917 0.04798,0.09596 0.161925,0.143933 0.113948,0.04198 0.293865,0.04198 0.32385,0 0.521759,-0.263878 0.203905,-0.269876 0.203905,-0.665693 v -1.067507 q 0,-0.221897 -0.07796,-0.275872 -0.07796,-0.05997 -0.38982,-0.05997 v -0.185914 l 0.881593,-0.06597 v 2.129016 q 0,0.221898 0.07796,0.28187 0.07796,0.05398 0.38982,0.05398 v 0.185914 l -0.863601,0.06597 v -0.539751 q -0.251884,0.539751 -0.773643,0.539751 -0.263878,0 -0.443795,-0.06597 -0.179916,-0.06597 -0.269875,-0.14993 -0.08996,-0.08396 -0.137936,-0.245887 -0.04798,-0.161925 -0.05398,-0.257881 -0.006,-0.101953 -0.006,-0.293864 v -0.899584 q 0,-0.407812 -0.05997,-0.479779 -0.05997,-0.07197 -0.407811,-0.07197 z m 3.436755,3.376441 q 0.317854,0 0.38982,-0.04198 0.07796,-0.03598 0.07796,-0.227894 V 56.53292 q 0,-0.197909 -0.07796,-0.245887 -0.07197,-0.05398 -0.38982,-0.05398 v -0.185914 l 0.863602,-0.06597 v 0.395817 q 0.359833,-0.395817 0.839612,-0.395817 0.509764,0 0.881593,0.395817 0.371828,0.395817 0.371828,0.959557 0,0.569737 -0.395817,0.965554 -0.395817,0.395817 -0.941565,0.395817 -0.299862,0 -0.503768,-0.149931 -0.197908,-0.155928 -0.233892,-0.269875 v 0.05398 1.007535 q 0,0.191911 0.07197,0.227894 0.07796,0.04198 0.395817,0.04198 v 0.185914 q -0.629709,-0.01799 -0.677687,-0.01799 -0.05997,0 -0.67169,0.01799 z m 0.881593,-1.661233 q 0,0.08996 0.01199,0.125942 0.01199,0.02999 0.07197,0.125942 0.239889,0.365831 0.629709,0.365831 0.341842,0 0.599723,-0.347839 0.263878,-0.353837 0.263878,-0.881593 0,-0.503768 -0.239889,-0.851607 -0.233892,-0.353837 -0.56374,-0.353837 -0.233892,0 -0.437798,0.125942 -0.203906,0.125942 -0.335845,0.353837 z m 2.579154,1.661233 q 0.317853,0 0.38982,-0.04198 0.07796,-0.03598 0.07796,-0.227894 V 56.53292 q 0,-0.197909 -0.07796,-0.245887 -0.07197,-0.05398 -0.38982,-0.05398 v -0.185914 l 0.863601,-0.06597 v 0.395817 q 0.359834,-0.395817 0.839613,-0.395817 0.509764,0 0.881594,0.395817 0.37183,0.395817 0.37183,0.959557 0,0.569737 -0.39582,0.965554 -0.39582,0.395817 -0.941566,0.395817 -0.299861,0 -0.503767,-0.149931 -0.197909,-0.155928 -0.233892,-0.269875 v 0.05398 1.007535 q 0,0.191911 0.07197,0.227894 0.07796,0.04198 0.395817,0.04198 v 0.185914 q -0.629709,-0.01799 -0.677687,-0.01799 -0.05997,0 -0.67169,0.01799 z m 0.881593,-1.661233 q 0,0.08996 0.01199,0.125942 0.01199,0.02999 0.07197,0.125942 0.239889,0.365831 0.629709,0.365831 0.341845,0 0.599725,-0.347839 0.26388,-0.353837 0.26388,-0.881593 0,-0.503768 -0.23989,-0.851607 -0.23389,-0.353837 -0.563742,-0.353837 -0.233892,0 -0.437798,0.125942 -0.203906,0.125942 -0.335845,0.353837 z m 2.609135,0.683684 v -0.185914 q 0.31785,0 0.38982,-0.03598 0.078,-0.04198 0.078,-0.233892 v -3.11856 q 0,-0.221897 -0.078,-0.275872 -0.078,-0.05997 -0.38982,-0.05997 v -0.185914 l 0.8636,-0.06597 v 3.706288 q 0,0.191911 0.072,0.233892 0.078,0.03598 0.39582,0.03598 v 0.185914 q -0.072,0 -0.2279,-0.006 -0.14993,-0.006 -0.26388,-0.006 -0.10795,-0.006 -0.17392,-0.006 -0.072,0 -0.66569,0.01799 z m 1.70956,0.743657 q 0,-0.125942 0.072,-0.191911 0.078,-0.06597 0.17992,-0.06597 0.10795,0 0.17992,0.06597 0.072,0.07197 0.072,0.185914 0,0.221897 -0.2339,0.251883 0.11395,0.10795 0.28187,0.10795 0.17992,0 0.32385,-0.131939 0.14394,-0.131939 0.20391,-0.25788 0.066,-0.125942 0.15593,-0.353837 0.084,-0.179917 0.14993,-0.353837 l -0.89959,-2.188989 q -0.06,-0.143933 -0.14993,-0.173919 -0.09,-0.03598 -0.33584,-0.03598 v -0.185914 q 0.26987,0.01799 0.58173,0.01799 0.18591,0 0.6537,-0.01799 v 0.185914 q -0.33585,0 -0.33585,0.155928 0,0.01799 0.036,0.10795 l 0.66569,1.613255 0.60572,-1.475318 q 0.036,-0.08396 0.036,-0.143934 0,-0.245886 -0.28187,-0.257881 v -0.185914 q 0.39582,0.01799 0.52176,0.01799 0.24589,0 0.44979,-0.01799 v 0.185914 q -0.40181,0 -0.55774,0.383823 l -1.05551,2.560817 q -0.28787,0.683685 -0.76765,0.683685 -0.22789,0 -0.38982,-0.143934 -0.16192,-0.137936 -0.16192,-0.341842 z"
       id="text9"
       style="font-weight:500;font-size:5.99723px;font-family:'CMU Serif';-inkscape-font-specification:'CMU Serif Medium';letter-spacing:0.132292px;fill:#00ff00;stroke-linecap:round;stroke-linejoin:round;stroke-miterlimit:3.9;paint-order:markers stroke fill"
       aria-label="Predicted supply" />
    <g
       id="text10"
       style="font-weight:500;font-size:5.99723px;font-family:'CMU Serif';-inkscape-font-specification:'CMU Serif Medium';letter-spacing:0.132292px;fill:#999999;stroke-linecap:round;stroke-linejoin:round;stroke-miterlimit:3.9;stroke-dasharray:1, 4;paint-order:markers stroke fill"
       aria-label="Market&#10;clearing&#10;price">
      <path
         style="text-align:end;text-anchor:end"
         d="m 28.767476,92.073875 v -0.185914 q 0.215901,0 0.353837,-0.04198 0.137936,-0.04198 0.185914,-0.119945 0.05397,-0.08396 0.06597,-0.137936 0.01199,-0.05397 0.01199,-0.143934 v -2.998615 q 0,-0.173919 -0.07796,-0.227894 -0.07197,-0.05398 -0.395817,-0.05398 h -0.143934 v -0.185914 h 1.013532 q 0.10795,0 0.137937,0.01799 0.02999,0.01799 0.07197,0.113947 l 1.301399,3.358449 1.313394,-3.37644 q 0.02999,-0.08396 0.05397,-0.09596 0.02999,-0.01799 0.143933,-0.01799 h 1.013532 v 0.185914 h -0.143933 q -0.323851,0 -0.401815,0.05398 -0.07197,0.05397 -0.07197,0.227894 v 3.16054 q 0,0.17392 0.07197,0.227895 0.07796,0.05398 0.401815,0.05398 h 0.143933 v 0.185914 q -0.221897,-0.01799 -0.857604,-0.01799 -0.641703,0 -0.863601,0.01799 v -0.185914 h 0.143934 q 0.32385,0 0.395817,-0.05398 0.07796,-0.05397 0.07796,-0.227895 v -3.44241 h -0.006 l -1.475319,3.796247 q -0.04198,0.113947 -0.10795,0.113947 -0.07197,0 -0.119945,-0.131939 l -1.445332,-3.730277 h -0.006 v 3.232507 q 0,0.08996 0.01199,0.143934 0.012,0.05398 0.05997,0.137936 0.05398,0.07796 0.191912,0.119945 0.137936,0.04198 0.353836,0.04198 v 0.185914 q -0.629709,-0.01799 -0.701676,-0.01799 -0.07197,0 -0.701676,0.01799 z m 5.655732,-0.569736 q 0,-0.509765 0.599723,-0.77964 0.359834,-0.17392 1.10349,-0.215901 v -0.221897 q 0,-0.371828 -0.197908,-0.569737 -0.191912,-0.197909 -0.437798,-0.197909 -0.437798,0 -0.647701,0.275873 0.179917,0.006 0.239889,0.09596 0.06597,0.08996 0.06597,0.179917 0,0.119944 -0.07796,0.197908 -0.07197,0.07796 -0.197909,0.07796 -0.119944,0 -0.197908,-0.07197 -0.07796,-0.07796 -0.07796,-0.209903 0,-0.293864 0.263878,-0.485775 0.263878,-0.191912 0.641703,-0.191912 0.491773,0 0.821621,0.329848 0.101953,0.101953 0.149931,0.233892 0.05398,0.131939 0.05997,0.221898 0.006,0.08396 0.006,0.251883 v 1.199446 q 0,0.03598 0.01199,0.09596 0.01199,0.05397 0.06597,0.131939 0.05397,0.07197 0.143934,0.07197 0.2159,0 0.2159,-0.383823 v -0.335845 h 0.149931 v 0.335845 q 0,0.317853 -0.167923,0.443795 -0.167922,0.125942 -0.32385,0.125942 -0.197909,0 -0.323851,-0.143934 -0.125941,-0.14993 -0.143933,-0.347839 -0.08996,0.227895 -0.299862,0.377825 -0.203905,0.143934 -0.485775,0.143934 -0.215901,0 -0.419806,-0.05397 -0.203906,-0.05397 -0.371829,-0.203906 -0.167922,-0.149931 -0.167922,-0.377825 z m 0.461787,-0.006 q 0,0.221898 0.155928,0.365831 0.161925,0.143934 0.383822,0.143934 0.251884,0 0.473781,-0.191911 0.227895,-0.197909 0.227895,-0.581732 V 90.63454 q -0.665692,0.02399 -0.953559,0.287867 -0.287867,0.263878 -0.287867,0.575734 z m 2.585148,0.575734 v -0.185914 q 0.317853,0 0.38982,-0.03598 0.07796,-0.04198 0.07796,-0.233892 v -1.607258 q 0,-0.221897 -0.07796,-0.275872 -0.07796,-0.05997 -0.38982,-0.05997 v -0.185914 l 0.833615,-0.06597 v 0.659695 q 0.08396,-0.257881 0.263878,-0.455789 0.179917,-0.203906 0.473781,-0.203906 0.191911,0 0.317853,0.10795 0.125942,0.10795 0.125942,0.257881 0,0.131939 -0.08396,0.197908 -0.07796,0.06597 -0.17392,0.06597 -0.10795,0 -0.185914,-0.06597 -0.07197,-0.07197 -0.07197,-0.191911 0,-0.07197 0.02999,-0.125942 0.03598,-0.05997 0.05997,-0.07796 0.02999,-0.02399 0.04798,-0.02999 -0.012,-0.006 -0.06597,-0.006 -0.329848,0 -0.521759,0.329847 -0.185914,0.329848 -0.185914,0.797632 v 0.923573 q 0,0.17392 0.07197,0.227895 0.07197,0.05398 0.383822,0.05398 h 0.125942 v 0.185914 q -0.239889,-0.01799 -0.761648,-0.01799 -0.07197,0 -0.185914,0.006 -0.113948,0 -0.263878,0.006 -0.149931,0.006 -0.233892,0.006 z m 2.477201,0 v -0.185914 q 0.317853,0 0.38982,-0.03598 0.07796,-0.04198 0.07796,-0.233892 v -3.11856 q 0,-0.221897 -0.07796,-0.275872 -0.07796,-0.05997 -0.38982,-0.05997 v -0.185914 l 0.863601,-0.06597 v 2.87867 l 0.84561,-0.731662 q 0.131939,-0.113947 0.131939,-0.233892 0,-0.137936 -0.17392,-0.149931 v -0.185914 q 0.251884,0.01799 0.67169,0.01799 0.245886,0 0.419806,-0.01799 v 0.185914 q -0.377825,0.01799 -0.755651,0.323851 -0.08396,0.06597 -0.287867,0.239889 -0.197909,0.17392 -0.197909,0.191911 0,0.006 0.006,0.02399 0.006,0.01199 0.01799,0.02399 0.01199,0.01199 0.01199,0.01799 l 0.761648,1.073504 q 0.155928,0.2159 0.269875,0.269875 0.113948,0.04798 0.311856,0.04798 v 0.185914 q -0.257881,-0.01799 -0.521759,-0.01799 -0.143933,0 -0.647701,0.01799 v -0.185914 q 0.215901,0 0.215901,-0.137936 0,-0.09596 -0.485776,-0.767645 -0.03598,-0.04798 -0.113947,-0.149931 -0.07197,-0.10795 -0.113948,-0.161925 l -0.383822,0.329847 v 0.617715 q 0,0.191911 0.07197,0.233892 0.07796,0.03598 0.395818,0.03598 v 0.185914 q -0.359834,-0.01799 -0.659696,-0.01799 -0.05997,0 -0.653698,0.01799 z m 3.124891,-1.31939 q 0,-0.56374 0.359833,-0.965554 0.365831,-0.401815 0.88759,-0.401815 0.527757,0 0.797632,0.341842 0.275873,0.341843 0.275873,0.833615 0,0.08996 -0.02399,0.107951 -0.02399,0.01799 -0.125942,0.01799 h -1.673227 q 0,0.611718 0.179917,0.899585 0.251883,0.401814 0.677687,0.401814 0.05997,0 0.125941,-0.01199 0.07197,-0.01199 0.215901,-0.05997 0.143933,-0.05397 0.269875,-0.191911 0.125942,-0.137936 0.197909,-0.353836 0.01799,-0.08396 0.07796,-0.08396 0.07796,0 0.07796,0.07197 0,0.05398 -0.05997,0.17392 -0.05398,0.113947 -0.161925,0.257881 -0.10795,0.137936 -0.317853,0.245886 -0.209903,0.101953 -0.461787,0.101953 -0.527756,0 -0.923573,-0.395817 -0.395817,-0.401815 -0.395817,-0.989543 z m 0.503767,-0.191912 h 1.421343 q 0,-0.125941 -0.02399,-0.263878 -0.01799,-0.143933 -0.08396,-0.335845 -0.05997,-0.197908 -0.209903,-0.317853 -0.143933,-0.125942 -0.359834,-0.125942 -0.09595,0 -0.203905,0.04198 -0.101953,0.04198 -0.227895,0.143934 -0.125942,0.09596 -0.2159,0.32385 -0.08396,0.221897 -0.09596,0.533753 z m 2.23731,-0.88759 v -0.131939 q 0.275873,-0.01199 0.455789,-0.203905 0.185915,-0.197909 0.245887,-0.437798 0.06597,-0.239889 0.07197,-0.515762 h 0.14993 v 1.10349 h 0.857604 v 0.185914 h -0.857604 v 1.66723 q 0,0.647701 0.401815,0.647701 0.17392,0 0.287867,-0.173919 0.113947,-0.179917 0.113947,-0.497771 v -0.329847 h 0.149931 v 0.341842 q 0,0.32385 -0.149931,0.569737 -0.14993,0.239889 -0.443795,0.239889 -0.10795,0 -0.2159,-0.02999 -0.10795,-0.02399 -0.245886,-0.09596 -0.137937,-0.07197 -0.227895,-0.245886 -0.08396,-0.179917 -0.08396,-0.437798 v -1.655236 z"
         id="path18" />
      <path
         style="text-align:end;text-anchor:end"
         d="m 27.36343,99.240565 q -0.377825,-0.395817 -0.377825,-0.965554 0,-0.569737 0.371828,-0.977548 0.377825,-0.413809 0.929571,-0.413809 0.365831,0 0.641703,0.17392 0.275873,0.173919 0.275873,0.467784 0,0.131939 -0.07796,0.209903 -0.07796,0.07197 -0.197909,0.07197 -0.125942,0 -0.203906,-0.07796 -0.07197,-0.07796 -0.07197,-0.197908 0,-0.05398 0.01799,-0.101953 0.01799,-0.05397 0.08396,-0.10795 0.06597,-0.05997 0.179916,-0.06597 -0.2159,-0.221897 -0.641703,-0.221897 -0.305859,0 -0.557743,0.287867 -0.251883,0.287867 -0.251883,0.941565 0,0.341842 0.08396,0.593726 0.08396,0.251883 0.221898,0.383822 0.137936,0.125942 0.269875,0.185914 0.137936,0.05997 0.269875,0.05997 0.587729,0 0.785637,-0.629709 0.01799,-0.05997 0.07796,-0.05997 0.07796,0 0.07796,0.05997 0,0.02999 -0.02399,0.10795 -0.02399,0.07197 -0.09596,0.191911 -0.07197,0.119945 -0.179917,0.227895 -0.101953,0.101953 -0.287867,0.179917 -0.179917,0.07197 -0.407812,0.07197 -0.527756,0 -0.911579,-0.395818 z m 2.41123,0.329848 v -0.185914 q 0.317853,0 0.38982,-0.03598 0.07796,-0.04198 0.07796,-0.233891 v -3.11856 q 0,-0.221898 -0.07796,-0.275873 -0.07796,-0.05997 -0.38982,-0.05997 v -0.185914 l 0.863601,-0.06597 v 3.706289 q 0,0.191911 0.07197,0.233891 0.07796,0.03598 0.395817,0.03598 v 0.185914 q -0.07197,0 -0.227895,-0.006 -0.149931,-0.006 -0.263878,-0.006 -0.10795,-0.006 -0.17392,-0.006 -0.07197,0 -0.665692,0.01799 z m 1.76353,-1.319391 q 0,-0.563739 0.359833,-0.965554 0.365831,-0.401814 0.88759,-0.401814 0.527757,0 0.797632,0.341842 0.275873,0.341842 0.275873,0.833615 0,0.08996 -0.02399,0.10795 -0.02399,0.01799 -0.125942,0.01799 H 32.03596 q 0,0.611717 0.179917,0.899584 0.251883,0.401815 0.677686,0.401815 0.05997,0 0.125942,-0.01199 0.07197,-0.01199 0.215901,-0.05997 0.143933,-0.05397 0.269875,-0.191911 0.125942,-0.137937 0.197909,-0.353837 0.01799,-0.08396 0.07796,-0.08396 0.07796,0 0.07796,0.07197 0,0.05398 -0.05997,0.173919 -0.05398,0.113948 -0.161925,0.257881 -0.10795,0.137936 -0.317853,0.245887 -0.209903,0.101953 -0.461787,0.101953 -0.527756,0 -0.923573,-0.395818 -0.395817,-0.401814 -0.395817,-0.989543 z m 0.503767,-0.191911 H 33.4633 q 0,-0.125942 -0.02399,-0.263878 -0.01799,-0.143934 -0.08396,-0.335845 -0.05997,-0.197909 -0.209903,-0.317853 -0.143933,-0.125942 -0.359834,-0.125942 -0.09595,0 -0.203905,0.04198 -0.101953,0.04198 -0.227895,0.143933 -0.125942,0.09596 -0.2159,0.323851 -0.08396,0.221897 -0.09596,0.533753 z m 2.375246,0.941565 q 0,-0.509764 0.599723,-0.77964 0.359834,-0.173919 1.10349,-0.2159 v -0.221898 q 0,-0.371828 -0.197908,-0.569736 -0.191912,-0.197909 -0.437798,-0.197909 -0.437798,0 -0.647701,0.275873 0.179917,0.006 0.239889,0.09596 0.06597,0.08996 0.06597,0.179917 0,0.119945 -0.07796,0.197909 -0.07197,0.07796 -0.197909,0.07796 -0.119945,0 -0.197909,-0.07197 -0.07796,-0.07796 -0.07796,-0.209903 0,-0.293864 0.263879,-0.485776 0.263878,-0.191911 0.641703,-0.191911 0.491773,0 0.821621,0.329848 0.101953,0.101952 0.14993,0.233892 0.05398,0.131939 0.05997,0.221897 0.006,0.08396 0.006,0.251884 v 1.199446 q 0,0.03598 0.01199,0.09596 0.01199,0.05397 0.06597,0.131939 0.05398,0.07197 0.143934,0.07197 0.2159,0 0.2159,-0.383822 v -0.335845 h 0.149931 v 0.335845 q 0,0.317853 -0.167923,0.443795 -0.167922,0.125941 -0.32385,0.125941 -0.197909,0 -0.323851,-0.143933 -0.125942,-0.149931 -0.143933,-0.347839 -0.08996,0.227894 -0.299862,0.377825 -0.203906,0.143934 -0.485775,0.143934 -0.215901,0 -0.419807,-0.05398 -0.203905,-0.05398 -0.371828,-0.203905 -0.167922,-0.149931 -0.167922,-0.377826 z m 0.461786,-0.006 q 0,0.221897 0.155928,0.365831 0.161926,0.143933 0.383823,0.143933 0.251884,0 0.473781,-0.191911 0.227895,-0.197908 0.227895,-0.581731 v -0.599723 q -0.665692,0.02399 -0.953559,0.287867 -0.287868,0.263878 -0.287868,0.575734 z m 2.585148,0.575734 v -0.185914 q 0.317853,0 0.38982,-0.03598 0.07796,-0.04198 0.07796,-0.233891 v -1.607258 q 0,-0.221898 -0.07796,-0.275873 -0.07796,-0.05997 -0.38982,-0.05997 v -0.185914 l 0.833615,-0.06597 v 0.659696 q 0.08396,-0.257881 0.263878,-0.45579 0.179917,-0.203906 0.473781,-0.203906 0.191912,0 0.317854,0.10795 0.125941,0.107951 0.125941,0.257881 0,0.131939 -0.08396,0.197909 -0.07796,0.06597 -0.173919,0.06597 -0.107951,0 -0.185915,-0.06597 -0.07197,-0.07197 -0.07197,-0.191911 0,-0.07197 0.02999,-0.125942 0.03598,-0.05997 0.05997,-0.07796 0.02999,-0.02399 0.04798,-0.02999 -0.01199,-0.006 -0.06597,-0.006 -0.329847,0 -0.521759,0.329848 -0.185914,0.329848 -0.185914,0.797632 v 0.923573 q 0,0.17392 0.07197,0.227895 0.07197,0.05398 0.383823,0.05398 h 0.125942 v 0.185914 q -0.23989,-0.01799 -0.761649,-0.01799 -0.07197,0 -0.185914,0.006 -0.113947,0 -0.263878,0.006 -0.149931,0.006 -0.233892,0.006 z m 2.507189,0 v -0.185914 q 0.317853,0 0.38982,-0.03598 0.07796,-0.04198 0.07796,-0.233891 v -1.613255 q 0,-0.221898 -0.07796,-0.275873 -0.07197,-0.05398 -0.365831,-0.05398 v -0.185914 l 0.839612,-0.06597 v 2.200984 q 0,0.179917 0.05997,0.221897 0.06597,0.04198 0.359834,0.04198 v 0.185914 q -0.611717,-0.01799 -0.623712,-0.01799 -0.08396,0 -0.659695,0.01799 z m 0.251883,-3.694294 q 0,-0.119944 0.08996,-0.2159 0.09596,-0.101953 0.227895,-0.101953 0.131939,0 0.221897,0.08996 0.09596,0.08996 0.09596,0.227894 0,0.137937 -0.09596,0.227895 -0.08996,0.08996 -0.221897,0.08996 -0.137937,0 -0.227895,-0.09596 -0.08996,-0.09596 -0.08996,-0.221898 z m 1.535635,3.694294 v -0.185914 q 0.317853,0 0.38982,-0.03598 0.07796,-0.04198 0.07796,-0.233891 v -1.607258 q 0,-0.221898 -0.07796,-0.275873 -0.07796,-0.05997 -0.38982,-0.05997 v -0.185914 l 0.845609,-0.06597 v 0.629709 q 0.28187,-0.629709 0.88759,-0.629709 0.449792,0 0.629709,0.221898 0.131939,0.149931 0.155928,0.317853 0.02999,0.167922 0.02999,0.599723 v 1.145471 q 0.006,0.125942 0.101953,0.155928 0.09596,0.02399 0.365831,0.02399 v 0.185914 q -0.611717,-0.01799 -0.671689,-0.01799 -0.04798,0 -0.677687,0.01799 v -0.185914 q 0.317853,0 0.38982,-0.03598 0.07796,-0.04198 0.07796,-0.233891 v -1.397355 q 0,-0.305859 -0.09596,-0.485776 -0.08996,-0.179917 -0.347839,-0.179917 -0.311856,0 -0.56374,0.263878 -0.245886,0.257881 -0.245886,0.695679 v 1.103491 q 0,0.191911 0.07197,0.233891 0.07796,0.03598 0.395817,0.03598 v 0.185914 q -0.611717,-0.01799 -0.671689,-0.01799 -0.04798,0 -0.677687,0.01799 z m 3.436757,0.473777 q 0,-0.191907 0.143933,-0.35983 0.149931,-0.167922 0.407812,-0.239889 -0.263878,-0.167922 -0.263878,-0.533753 0,-0.28187 0.185914,-0.49777 -0.28187,-0.233892 -0.28187,-0.617715 0,-0.353837 0.28187,-0.611718 0.28187,-0.263878 0.689681,-0.263878 0.359834,0 0.635707,0.215901 0.287867,-0.28187 0.635706,-0.28187 0.155928,0 0.227895,0.09596 0.07796,0.09596 0.07796,0.197909 0,0.08996 -0.05997,0.137936 -0.05398,0.04198 -0.113947,0.04198 -0.07197,0 -0.125942,-0.04798 -0.04798,-0.04798 -0.04798,-0.125942 0,-0.125942 0.09596,-0.161925 -0.01799,-0.006 -0.05997,-0.006 -0.293864,0 -0.539751,0.233892 0.245887,0.227895 0.245887,0.581731 0,0.353837 -0.28187,0.617715 -0.28187,0.257881 -0.689682,0.257881 -0.335845,0 -0.593726,-0.185914 -0.101952,0.119944 -0.101952,0.281869 0,0.149931 0.08996,0.269876 0.08996,0.113947 0.227895,0.131939 0.04198,0.006 0.449792,0.006 0.239889,0 0.371828,0.006 0.131939,0.006 0.317853,0.04798 0.191912,0.03598 0.341843,0.113947 0.38982,0.215901 0.38982,0.683685 0,0.34184 -0.395818,0.55774 -0.38982,0.2159 -0.935568,0.2159 -0.551745,0 -0.941565,-0.2219 -0.383822,-0.2159 -0.383822,-0.53975 z m 0.311856,0 q 0,0.24589 0.287867,0.4318 0.293864,0.19192 0.731662,0.19192 0.4318,0 0.719667,-0.18592 0.293865,-0.18591 0.293865,-0.4378 0,-0.179913 -0.101953,-0.29386 -0.101953,-0.113947 -0.311856,-0.161925 -0.209903,-0.04198 -0.359834,-0.04798 -0.143934,-0.01199 -0.413809,-0.01199 h -0.353837 q -0.203905,0.01199 -0.347839,0.161926 -0.143933,0.14993 -0.143933,0.353832 z m 0.329847,-2.24296 q 0,0.737659 0.521759,0.737659 0.263878,0 0.425804,-0.239889 0.09596,-0.161925 0.09596,-0.503767 0,-0.737659 -0.521759,-0.737659 -0.263878,0 -0.425803,0.239889 -0.09596,0.161925 -0.09596,0.503767 z"
         id="path19" />
      <path
         style="text-align:end;text-anchor:end"
         d="m 35.13722,108.0445 q 0.317854,0 0.38982,-0.042 0.07796,-0.036 0.07796,-0.2279 v -2.8067 q 0,-0.19791 -0.07796,-0.24589 -0.07197,-0.054 -0.38982,-0.054 v -0.18592 l 0.863601,-0.066 v 0.39582 q 0.359834,-0.39582 0.839613,-0.39582 0.509764,0 0.881592,0.39582 0.371829,0.39582 0.371829,0.95956 0,0.56974 -0.395817,0.96555 -0.395818,0.39582 -0.941566,0.39582 -0.299861,0 -0.503767,-0.14993 -0.197908,-0.15593 -0.233892,-0.26988 v 0.054 1.00753 q 0,0.19192 0.07197,0.2279 0.07796,0.042 0.395817,0.042 v 0.18591 q -0.629709,-0.018 -0.677687,-0.018 -0.05997,0 -0.67169,0.018 z m 0.881593,-1.66123 q 0,0.09 0.01199,0.12594 0.01199,0.03 0.07197,0.12594 0.23989,0.36583 0.62971,0.36583 0.341842,0 0.599723,-0.34784 0.263878,-0.35383 0.263878,-0.88159 0,-0.50377 -0.23989,-0.85161 -0.233892,-0.35383 -0.563739,-0.35383 -0.233892,0 -0.437798,0.12594 -0.203906,0.12594 -0.335845,0.35383 z m 2.579152,0.68368 v -0.18591 q 0.317854,0 0.38982,-0.036 0.07796,-0.042 0.07796,-0.23389 v -1.60726 q 0,-0.22189 -0.07796,-0.27587 -0.07796,-0.06 -0.38982,-0.06 v -0.18592 l 0.833615,-0.066 v 0.6597 q 0.08396,-0.25788 0.263879,-0.45579 0.179916,-0.20391 0.473781,-0.20391 0.191911,0 0.317853,0.10796 0.125942,0.10795 0.125942,0.25788 0,0.13193 -0.08396,0.1979 -0.07796,0.066 -0.17392,0.066 -0.10795,0 -0.185914,-0.066 -0.07197,-0.072 -0.07197,-0.19191 0,-0.072 0.02999,-0.12594 0.03598,-0.06 0.05997,-0.078 0.02999,-0.024 0.04798,-0.03 -0.01199,-0.006 -0.06597,-0.006 -0.329848,0 -0.521759,0.32985 -0.185914,0.32985 -0.185914,0.79763 v 0.92358 q 0,0.17392 0.07197,0.22789 0.07197,0.054 0.383823,0.054 h 0.125942 v 0.18591 q -0.239889,-0.018 -0.761648,-0.018 -0.07197,0 -0.185914,0.006 -0.113948,0 -0.263879,0.006 -0.14993,0.006 -0.233892,0.006 z m 2.507188,0 v -0.18591 q 0.317853,0 0.38982,-0.036 0.07796,-0.042 0.07796,-0.23389 v -1.61325 q 0,-0.2219 -0.07796,-0.27588 -0.07197,-0.054 -0.365831,-0.054 v -0.18592 l 0.839612,-0.066 v 2.20099 q 0,0.17992 0.05997,0.2219 0.06597,0.042 0.359834,0.042 v 0.18591 q -0.611718,-0.018 -0.623712,-0.018 -0.08396,0 -0.659696,0.018 z m 0.251884,-3.69429 q 0,-0.11995 0.08996,-0.2159 0.09596,-0.10196 0.227895,-0.10196 0.131939,0 0.221898,0.09 0.09595,0.09 0.09595,0.2279 0,0.13793 -0.09595,0.22789 -0.08996,0.09 -0.221898,0.09 -0.137936,0 -0.227895,-0.096 -0.08996,-0.096 -0.08996,-0.22189 z m 1.925455,3.36444 q -0.377825,-0.39581 -0.377825,-0.96555 0,-0.56974 0.371828,-0.97755 0.377825,-0.41381 0.929571,-0.41381 0.365831,0 0.641703,0.17392 0.275873,0.17392 0.275873,0.46779 0,0.13193 -0.07796,0.2099 -0.07796,0.072 -0.197909,0.072 -0.125942,0 -0.203906,-0.078 -0.07197,-0.078 -0.07197,-0.19791 0,-0.054 0.01799,-0.10195 0.01799,-0.054 0.08396,-0.10795 0.06597,-0.06 0.179916,-0.066 -0.2159,-0.2219 -0.641703,-0.2219 -0.305859,0 -0.557743,0.28787 -0.251883,0.28787 -0.251883,0.94156 0,0.34185 0.08396,0.59373 0.08396,0.25188 0.221897,0.38382 0.137937,0.12594 0.269876,0.18592 0.137936,0.06 0.269875,0.06 0.587729,0 0.785637,-0.62971 0.01799,-0.06 0.07796,-0.06 0.07796,0 0.07796,0.06 0,0.03 -0.02399,0.10795 -0.02399,0.072 -0.09595,0.19191 -0.07197,0.11995 -0.179917,0.2279 -0.101953,0.10195 -0.287867,0.17991 -0.179917,0.072 -0.407812,0.072 -0.527756,0 -0.911579,-0.39582 z m 2.381243,-0.98954 q 0,-0.56374 0.359834,-0.96555 0.365831,-0.40182 0.88759,-0.40182 0.527756,0 0.797632,0.34184 0.275872,0.34185 0.275872,0.83362 0,0.09 -0.02399,0.10795 -0.02399,0.018 -0.125941,0.018 h -1.673228 q 0,0.61172 0.179917,0.89958 0.251884,0.40182 0.677687,0.40182 0.05997,0 0.125942,-0.012 0.07197,-0.012 0.2159,-0.06 0.143934,-0.054 0.269876,-0.19191 0.125942,-0.13794 0.197908,-0.35384 0.01799,-0.084 0.07796,-0.084 0.07796,0 0.07796,0.072 0,0.054 -0.05997,0.17392 -0.05398,0.11395 -0.161925,0.25788 -0.10795,0.13794 -0.317853,0.24589 -0.209903,0.10195 -0.461787,0.10195 -0.527756,0 -0.923573,-0.39582 -0.395818,-0.40181 -0.395818,-0.98954 z m 0.503768,-0.19191 h 1.421343 q 0,-0.12594 -0.02399,-0.26388 -0.01799,-0.14393 -0.08396,-0.33584 -0.05997,-0.19791 -0.209903,-0.31786 -0.143934,-0.12594 -0.359834,-0.12594 -0.09595,0 -0.203906,0.042 -0.101953,0.042 -0.227894,0.14393 -0.125942,0.096 -0.215901,0.32386 -0.08396,0.22189 -0.09595,0.53375 z"
         id="path20" />
    </g>
    <g
       id="text15"
       style="font-weight:500;font-size:5.99723px;font-family:'CMU Serif';-inkscape-font-specification:'CMU Serif Medium';text-align:center;letter-spacing:0.132292px;text-anchor:middle;fill:#999999;stroke-linecap:round;stroke-linejoin:round;stroke-miterlimit:3.9;stroke-dasharray:1, 4;paint-order:markers stroke fill"
       aria-label="Market&#10;clearing&#10;volume">
      <path
         d="m 75.539019,147.51588 v -0.18591 q 0.215901,0 0.353837,-0.042 0.137936,-0.042 0.185914,-0.11994 0.05397,-0.084 0.06597,-0.13794 0.01199,-0.054 0.01199,-0.14393 v -2.99862 q 0,-0.17392 -0.07796,-0.22789 -0.07197,-0.054 -0.395817,-0.054 h -0.143934 v -0.18591 h 1.013532 q 0.107951,0 0.137937,0.018 0.02999,0.018 0.07197,0.11395 l 1.301399,3.35844 1.313394,-3.37644 q 0.02999,-0.084 0.05398,-0.0959 0.02999,-0.018 0.143933,-0.018 h 1.013532 v 0.18591 h -0.143933 q -0.323851,0 -0.401815,0.054 -0.07197,0.054 -0.07197,0.22789 v 3.16054 q 0,0.17392 0.07197,0.2279 0.07796,0.054 0.401815,0.054 h 0.143933 v 0.18591 q -0.221897,-0.018 -0.857604,-0.018 -0.641703,0 -0.863601,0.018 v -0.18591 h 0.143934 q 0.32385,0 0.395817,-0.054 0.07796,-0.054 0.07796,-0.2279 v -3.44241 h -0.006 l -1.475319,3.79625 q -0.04198,0.11394 -0.10795,0.11394 -0.07197,0 -0.119945,-0.13193 l -1.445332,-3.73028 h -0.006 v 3.23251 q 0,0.09 0.01199,0.14393 0.01199,0.054 0.05997,0.13794 0.05397,0.078 0.191912,0.11994 0.137936,0.042 0.353836,0.042 v 0.18591 q -0.629709,-0.018 -0.701676,-0.018 -0.07197,0 -0.701676,0.018 z m 5.655732,-0.56973 q 0,-0.50977 0.599723,-0.77964 0.359834,-0.17392 1.10349,-0.2159 v -0.2219 q 0,-0.37183 -0.197908,-0.56974 -0.191912,-0.19791 -0.437798,-0.19791 -0.437798,0 -0.647701,0.27588 0.179917,0.006 0.239889,0.0959 0.06597,0.09 0.06597,0.17992 0,0.11994 -0.07796,0.19791 -0.07197,0.078 -0.197909,0.078 -0.119944,0 -0.197908,-0.072 -0.07796,-0.078 -0.07796,-0.20991 0,-0.29386 0.263878,-0.48577 0.263878,-0.19191 0.641703,-0.19191 0.491773,0 0.821621,0.32984 0.101953,0.10196 0.149931,0.23389 0.05397,0.13194 0.05997,0.2219 0.006,0.084 0.006,0.25189 v 1.19944 q 0,0.036 0.01199,0.096 0.01199,0.054 0.06597,0.13194 0.05398,0.072 0.143934,0.072 0.2159,0 0.2159,-0.38382 v -0.33584 h 0.149931 v 0.33584 q 0,0.31785 -0.167923,0.4438 -0.167922,0.12594 -0.32385,0.12594 -0.197909,0 -0.323851,-0.14394 -0.125941,-0.14993 -0.143933,-0.34784 -0.08996,0.2279 -0.299862,0.37783 -0.203905,0.14393 -0.485775,0.14393 -0.215901,0 -0.419806,-0.054 -0.203906,-0.054 -0.371829,-0.20391 -0.167922,-0.14993 -0.167922,-0.37782 z m 0.461787,-0.006 q 0,0.2219 0.155928,0.36583 0.161925,0.14393 0.383822,0.14393 0.251884,0 0.473782,-0.19191 0.227894,-0.19791 0.227894,-0.58173 v -0.59972 q -0.665692,0.024 -0.953559,0.28787 -0.287867,0.26387 -0.287867,0.57573 z m 2.585148,0.57573 v -0.18591 q 0.317853,0 0.38982,-0.036 0.07796,-0.042 0.07796,-0.2339 v -1.60725 q 0,-0.2219 -0.07796,-0.27588 -0.07796,-0.06 -0.38982,-0.06 v -0.18591 l 0.833615,-0.066 v 0.65969 q 0.08396,-0.25788 0.263878,-0.45579 0.179917,-0.2039 0.473781,-0.2039 0.191911,0 0.317853,0.10795 0.125942,0.10795 0.125942,0.25788 0,0.13194 -0.08396,0.19791 -0.07796,0.066 -0.17392,0.066 -0.10795,0 -0.185914,-0.066 -0.07197,-0.072 -0.07197,-0.19191 0,-0.072 0.02999,-0.12594 0.03598,-0.06 0.05997,-0.078 0.02999,-0.024 0.04798,-0.03 -0.01199,-0.006 -0.06597,-0.006 -0.329848,0 -0.521759,0.32985 -0.185914,0.32984 -0.185914,0.79763 v 0.92357 q 0,0.17392 0.07197,0.2279 0.07197,0.054 0.383822,0.054 h 0.125942 v 0.18591 q -0.239889,-0.018 -0.761648,-0.018 -0.07197,0 -0.185914,0.006 -0.113947,0 -0.263878,0.006 -0.149931,0.006 -0.233892,0.006 z m 2.477201,0 v -0.18591 q 0.317853,0 0.38982,-0.036 0.07796,-0.042 0.07796,-0.2339 v -3.11855 q 0,-0.2219 -0.07796,-0.27588 -0.07796,-0.06 -0.38982,-0.06 v -0.18591 l 0.863601,-0.066 v 2.87867 l 0.84561,-0.73166 q 0.131939,-0.11395 0.131939,-0.2339 0,-0.13793 -0.17392,-0.14993 v -0.18591 q 0.251884,0.018 0.67169,0.018 0.245886,0 0.419806,-0.018 v 0.18591 q -0.377825,0.018 -0.755651,0.32385 -0.08396,0.066 -0.287867,0.23989 -0.197909,0.17392 -0.197909,0.19191 0,0.006 0.006,0.024 0.006,0.012 0.01799,0.024 0.01199,0.012 0.01199,0.018 l 0.761648,1.07351 q 0.155928,0.2159 0.269875,0.26987 0.113948,0.048 0.311856,0.048 v 0.18591 q -0.257881,-0.018 -0.521759,-0.018 -0.143933,0 -0.6477,0.018 v -0.18591 q 0.2159,0 0.2159,-0.13794 0,-0.0959 -0.485776,-0.76764 -0.03598,-0.048 -0.113947,-0.14993 -0.07197,-0.10795 -0.113948,-0.16193 l -0.383822,0.32985 v 0.61771 q 0,0.19192 0.07197,0.2339 0.07796,0.036 0.395818,0.036 v 0.18591 q -0.359834,-0.018 -0.659696,-0.018 -0.05997,0 -0.653698,0.018 z m 3.124891,-1.31939 q 0,-0.56374 0.359833,-0.96555 0.365831,-0.40181 0.88759,-0.40181 0.527757,0 0.797632,0.34184 0.275873,0.34184 0.275873,0.83361 0,0.09 -0.02399,0.10795 -0.02399,0.018 -0.125942,0.018 h -1.673227 q 0,0.61172 0.179917,0.89959 0.251883,0.40181 0.677687,0.40181 0.05997,0 0.125941,-0.012 0.07197,-0.012 0.215901,-0.06 0.143933,-0.054 0.269875,-0.19191 0.125942,-0.13794 0.197909,-0.35384 0.01799,-0.084 0.07796,-0.084 0.07796,0 0.07796,0.072 0,0.054 -0.05997,0.17392 -0.05397,0.11395 -0.161925,0.25788 -0.10795,0.13794 -0.317853,0.24589 -0.209903,0.10195 -0.461787,0.10195 -0.527756,0 -0.923573,-0.39581 -0.395817,-0.40182 -0.395817,-0.98955 z m 0.503767,-0.19191 h 1.421343 q 0,-0.12594 -0.02399,-0.26388 -0.01799,-0.14393 -0.08396,-0.33584 -0.05997,-0.19791 -0.209903,-0.31785 -0.143933,-0.12595 -0.359834,-0.12595 -0.09596,0 -0.203905,0.042 -0.101953,0.042 -0.227895,0.14393 -0.125942,0.0959 -0.2159,0.32385 -0.08396,0.2219 -0.09596,0.53375 z m 2.23731,-0.88759 v -0.13194 q 0.275873,-0.012 0.45579,-0.2039 0.185914,-0.19791 0.245886,-0.4378 0.06597,-0.23989 0.07197,-0.51576 h 0.14993 v 1.10349 h 0.857604 v 0.18591 h -0.857604 v 1.66723 q 0,0.6477 0.401815,0.6477 0.17392,0 0.287867,-0.17392 0.113947,-0.17991 0.113947,-0.49777 v -0.32984 h 0.149931 v 0.34184 q 0,0.32385 -0.149931,0.56973 -0.14993,0.23989 -0.443795,0.23989 -0.10795,0 -0.2159,-0.03 -0.10795,-0.024 -0.245886,-0.096 -0.137937,-0.072 -0.227895,-0.24588 -0.08396,-0.17992 -0.08396,-0.4378 v -1.65524 z"
         id="path15" />
      <path
         d="m 75.016913,154.68257 q -0.377825,-0.39581 -0.377825,-0.96555 0,-0.56974 0.371828,-0.97755 0.377826,-0.41381 0.929571,-0.41381 0.365831,0 0.641703,0.17392 0.275873,0.17392 0.275873,0.46779 0,0.13194 -0.07796,0.2099 -0.07796,0.072 -0.197909,0.072 -0.125942,0 -0.203906,-0.078 -0.07197,-0.078 -0.07197,-0.19791 0,-0.054 0.01799,-0.10195 0.01799,-0.054 0.08396,-0.10795 0.06597,-0.06 0.179917,-0.066 -0.215901,-0.2219 -0.641704,-0.2219 -0.305859,0 -0.557742,0.28787 -0.251884,0.28787 -0.251884,0.94157 0,0.34184 0.08396,0.59372 0.08396,0.25189 0.221898,0.38382 0.137936,0.12595 0.269875,0.18592 0.137936,0.06 0.269875,0.06 0.587729,0 0.785637,-0.62971 0.01799,-0.06 0.07796,-0.06 0.07796,0 0.07796,0.06 0,0.03 -0.02399,0.10795 -0.02399,0.072 -0.09596,0.19191 -0.07197,0.11995 -0.179917,0.2279 -0.101953,0.10195 -0.287867,0.17991 -0.179917,0.072 -0.407812,0.072 -0.527756,0 -0.911579,-0.39582 z m 2.41123,0.32985 v -0.18591 q 0.317853,0 0.38982,-0.036 0.07796,-0.042 0.07796,-0.23389 v -3.11856 q 0,-0.22189 -0.07796,-0.27587 -0.07796,-0.06 -0.38982,-0.06 v -0.18592 l 0.863601,-0.066 v 3.70629 q 0,0.19191 0.07197,0.23389 0.07796,0.036 0.395817,0.036 v 0.18591 q -0.07197,0 -0.227895,-0.006 -0.149931,-0.006 -0.263878,-0.006 -0.10795,-0.006 -0.17392,-0.006 -0.07197,0 -0.665692,0.018 z m 1.76353,-1.31939 q 0,-0.56374 0.359833,-0.96555 0.365831,-0.40182 0.88759,-0.40182 0.527757,0 0.797632,0.34185 0.275873,0.34184 0.275873,0.83361 0,0.09 -0.02399,0.10795 -0.02399,0.018 -0.125942,0.018 h -1.673227 q 0,0.61172 0.179917,0.89959 0.251883,0.40181 0.677687,0.40181 0.05997,0 0.125941,-0.012 0.07197,-0.012 0.215901,-0.06 0.143933,-0.054 0.269875,-0.19191 0.125942,-0.13793 0.197909,-0.35383 0.01799,-0.084 0.07796,-0.084 0.07796,0 0.07796,0.072 0,0.054 -0.05997,0.17392 -0.05398,0.11395 -0.161925,0.25788 -0.10795,0.13794 -0.317853,0.24589 -0.209903,0.10195 -0.461787,0.10195 -0.527756,0 -0.923573,-0.39582 -0.395817,-0.40181 -0.395817,-0.98954 z m 0.503767,-0.19191 h 1.421343 q 0,-0.12594 -0.02399,-0.26388 -0.01799,-0.14393 -0.08396,-0.33584 -0.05997,-0.19791 -0.209903,-0.31786 -0.143933,-0.12594 -0.359834,-0.12594 -0.09596,0 -0.203905,0.042 -0.101953,0.042 -0.227895,0.14394 -0.125942,0.096 -0.2159,0.32385 -0.08396,0.22189 -0.09596,0.53375 z m 2.375246,0.94157 q 0,-0.50977 0.599723,-0.77964 0.359834,-0.17392 1.10349,-0.21591 v -0.22189 q 0,-0.37183 -0.197908,-0.56974 -0.191912,-0.19791 -0.437798,-0.19791 -0.437798,0 -0.647701,0.27587 0.179917,0.006 0.239889,0.096 0.06597,0.09 0.06597,0.17992 0,0.11994 -0.07796,0.19791 -0.07197,0.078 -0.197909,0.078 -0.119944,0 -0.197908,-0.072 -0.07796,-0.078 -0.07796,-0.2099 0,-0.29386 0.263878,-0.48578 0.263878,-0.19191 0.641703,-0.19191 0.491773,0 0.821621,0.32985 0.101953,0.10195 0.149931,0.23389 0.05397,0.13194 0.05997,0.2219 0.006,0.084 0.006,0.25188 v 1.19945 q 0,0.036 0.01199,0.096 0.01199,0.054 0.06597,0.13193 0.05398,0.072 0.143934,0.072 0.2159,0 0.2159,-0.38382 v -0.33585 h 0.149931 v 0.33585 q 0,0.31785 -0.167923,0.44379 -0.167922,0.12595 -0.32385,0.12595 -0.197909,0 -0.323851,-0.14394 -0.125942,-0.14993 -0.143933,-0.34784 -0.08996,0.2279 -0.299862,0.37783 -0.203906,0.14393 -0.485775,0.14393 -0.215901,0 -0.419806,-0.054 -0.203906,-0.054 -0.371829,-0.20391 -0.167922,-0.14993 -0.167922,-0.37782 z m 0.461787,-0.006 q 0,0.2219 0.155928,0.36583 0.161925,0.14393 0.383822,0.14393 0.251884,0 0.473781,-0.19191 0.227895,-0.19791 0.227895,-0.58173 v -0.59972 q -0.665692,0.024 -0.953559,0.28786 -0.287867,0.26388 -0.287867,0.57574 z m 2.585147,0.57573 v -0.18591 q 0.317853,0 0.38982,-0.036 0.07796,-0.042 0.07796,-0.23389 v -1.60726 q 0,-0.22189 -0.07796,-0.27587 -0.07796,-0.06 -0.38982,-0.06 v -0.18591 l 0.833615,-0.066 v 0.65969 q 0.08396,-0.25788 0.263878,-0.45579 0.179917,-0.2039 0.473782,-0.2039 0.191911,0 0.317853,0.10795 0.125942,0.10795 0.125942,0.25788 0,0.13194 -0.08396,0.19791 -0.07796,0.066 -0.173919,0.066 -0.10795,0 -0.185914,-0.066 -0.07197,-0.072 -0.07197,-0.19192 0,-0.072 0.02999,-0.12594 0.03598,-0.06 0.05997,-0.078 0.02999,-0.024 0.04798,-0.03 -0.01199,-0.006 -0.06597,-0.006 -0.329848,0 -0.521759,0.32984 -0.185915,0.32985 -0.185915,0.79763 v 0.92358 q 0,0.17392 0.07197,0.22789 0.07197,0.054 0.383823,0.054 h 0.125942 v 0.18591 q -0.23989,-0.018 -0.761649,-0.018 -0.07197,0 -0.185914,0.006 -0.113947,0 -0.263878,0.006 -0.149931,0.006 -0.233892,0.006 z m 2.507189,0 v -0.18591 q 0.317853,0 0.38982,-0.036 0.07796,-0.042 0.07796,-0.23389 v -1.61325 q 0,-0.2219 -0.07796,-0.27587 -0.07197,-0.054 -0.365831,-0.054 v -0.18591 l 0.839612,-0.066 v 2.20098 q 0,0.17992 0.05997,0.2219 0.06597,0.042 0.359834,0.042 v 0.18591 q -0.611717,-0.018 -0.623712,-0.018 -0.08396,0 -0.659695,0.018 z m 0.251883,-3.69429 q 0,-0.11995 0.08996,-0.2159 0.09596,-0.10195 0.227895,-0.10195 0.131939,0 0.221897,0.0899 0.09596,0.09 0.09596,0.2279 0,0.13793 -0.09596,0.22789 -0.08996,0.09 -0.221897,0.09 -0.137937,0 -0.227895,-0.0959 -0.08996,-0.096 -0.08996,-0.2219 z m 1.535635,3.69429 v -0.18591 q 0.317853,0 0.38982,-0.036 0.07796,-0.042 0.07796,-0.23389 v -1.60726 q 0,-0.22189 -0.07796,-0.27587 -0.07796,-0.06 -0.38982,-0.06 v -0.18591 l 0.845609,-0.066 v 0.62971 q 0.28187,-0.62971 0.88759,-0.62971 0.449793,0 0.629709,0.22189 0.131939,0.14993 0.155928,0.31786 0.02999,0.16792 0.02999,0.59972 v 1.14547 q 0.006,0.12594 0.101952,0.15593 0.09596,0.024 0.365832,0.024 v 0.18591 q -0.611718,-0.018 -0.67169,-0.018 -0.04798,0 -0.677687,0.018 v -0.18591 q 0.317853,0 0.38982,-0.036 0.07796,-0.042 0.07796,-0.23389 v -1.39735 q 0,-0.30586 -0.09596,-0.48578 -0.08996,-0.17991 -0.347839,-0.17991 -0.311856,0 -0.56374,0.26387 -0.245886,0.25788 -0.245886,0.69568 v 1.10349 q 0,0.19191 0.07197,0.23389 0.07796,0.036 0.395818,0.036 v 0.18591 q -0.611718,-0.018 -0.67169,-0.018 -0.04798,0 -0.677687,0.018 z m 3.436757,0.47378 q 0,-0.19191 0.143933,-0.35983 0.149931,-0.16792 0.407812,-0.23989 -0.263878,-0.16792 -0.263878,-0.53375 0,-0.28187 0.185914,-0.49777 -0.28187,-0.2339 -0.28187,-0.61772 0,-0.35383 0.28187,-0.61172 0.28187,-0.26387 0.689681,-0.26387 0.359834,0 0.635707,0.2159 0.287867,-0.28187 0.635706,-0.28187 0.155928,0 0.227895,0.0959 0.07796,0.096 0.07796,0.19791 0,0.09 -0.05997,0.13794 -0.05398,0.042 -0.113948,0.042 -0.07197,0 -0.125942,-0.048 -0.04798,-0.048 -0.04798,-0.12594 0,-0.12594 0.09596,-0.16193 -0.01799,-0.006 -0.05997,-0.006 -0.293864,0 -0.539751,0.23389 0.245887,0.22789 0.245887,0.58173 0,0.35384 -0.28187,0.61771 -0.28187,0.25788 -0.689682,0.25788 -0.335845,0 -0.593725,-0.18591 -0.101953,0.11995 -0.101953,0.28187 0,0.14993 0.08996,0.26988 0.08996,0.11394 0.227895,0.13193 0.04198,0.006 0.449792,0.006 0.239889,0 0.371828,0.006 0.131939,0.006 0.317854,0.048 0.191911,0.036 0.341842,0.11394 0.38982,0.2159 0.38982,0.68369 0,0.34184 -0.395818,0.55774 -0.38982,0.2159 -0.935567,0.2159 -0.551746,0 -0.941566,-0.2219 -0.383822,-0.2159 -0.383822,-0.53975 z m 0.311856,0 q 0,0.24589 0.287867,0.4318 0.293864,0.19192 0.731662,0.19192 0.4318,0 0.719667,-0.18592 0.293865,-0.18591 0.293865,-0.4378 0,-0.17991 -0.101953,-0.29386 -0.101953,-0.11395 -0.311856,-0.16193 -0.209903,-0.042 -0.359834,-0.048 -0.143934,-0.012 -0.413809,-0.012 h -0.353836 q -0.203906,0.012 -0.34784,0.16193 -0.143933,0.14993 -0.143933,0.35383 z m 0.329847,-2.24296 q 0,0.73766 0.521759,0.73766 0.263878,0 0.425804,-0.23989 0.09596,-0.16193 0.09596,-0.50377 0,-0.73766 -0.521759,-0.73766 -0.263878,0 -0.425803,0.23989 -0.09596,0.16193 -0.09596,0.50377 z"
         id="path16" />
      <path
         d="m 75.587176,160.11007 v -0.18592 q 0.269875,0.018 0.581731,0.018 0.113948,0 0.653698,-0.018 v 0.18592 q -0.341842,0 -0.341842,0.15593 0,0.024 0.03598,0.10195 l 0.671689,1.67323 0.611718,-1.5293 q 0.03598,-0.10195 0.03598,-0.14393 0,-0.10195 -0.07197,-0.17392 -0.06597,-0.078 -0.2159,-0.084 v -0.18592 q 0.305859,0.018 0.521759,0.018 0.245887,0 0.449792,-0.018 v 0.18592 q -0.179917,0 -0.305858,0.084 -0.125942,0.078 -0.167923,0.14993 -0.03598,0.066 -0.07796,0.16792 l -0.785637,1.9491 q -0.04798,0.11395 -0.125942,0.11395 -0.05397,0 -0.07796,-0.024 -0.01799,-0.018 -0.04798,-0.09 l -0.863601,-2.12901 q -0.05997,-0.14994 -0.137936,-0.18592 -0.07197,-0.036 -0.341842,-0.036 z m 3.574682,2.07504 q -0.395817,-0.38982 -0.395817,-0.95956 0,-0.56973 0.383823,-0.98354 0.38982,-0.41981 0.947562,-0.41981 0.545748,0 0.935568,0.41381 0.38982,0.41381 0.38982,0.98954 0,0.56374 -0.395817,0.95956 -0.38982,0.38982 -0.935568,0.38982 -0.533753,0 -0.929571,-0.38982 z m 0.101953,-1.00754 q 0,0.58174 0.149931,0.84561 0.233892,0.40182 0.683684,0.40182 0.221898,0 0.407812,-0.11995 0.185914,-0.11994 0.287867,-0.32385 0.131939,-0.26387 0.131939,-0.80363 0,-0.57573 -0.155928,-0.83361 -0.233892,-0.38982 -0.677687,-0.38982 -0.191911,0 -0.383823,0.10195 -0.185914,0.10196 -0.299861,0.29986 -0.143934,0.26388 -0.143934,0.82162 z m 2.663112,1.33139 v -0.18591 q 0.317853,0 0.38982,-0.036 0.07796,-0.042 0.07796,-0.23389 v -3.11856 q 0,-0.2219 -0.07796,-0.27587 -0.07796,-0.06 -0.38982,-0.06 v -0.18592 l 0.863601,-0.066 v 3.70629 q 0,0.19191 0.07197,0.23389 0.07796,0.036 0.395817,0.036 v 0.18591 q -0.07197,0 -0.227895,-0.006 -0.14993,-0.006 -0.263878,-0.006 -0.10795,-0.006 -0.173919,-0.006 -0.07197,0 -0.665693,0.018 z m 1.787519,-2.39889 v -0.18592 l 0.881593,-0.066 v 1.99108 q 0,0.14394 0.01199,0.2279 0.01199,0.084 0.05997,0.17992 0.04798,0.0959 0.161925,0.14393 0.113947,0.042 0.293864,0.042 0.32385,0 0.521759,-0.26388 0.203906,-0.26987 0.203906,-0.66569 v -1.06751 q 0,-0.2219 -0.07796,-0.27587 -0.07796,-0.06 -0.38982,-0.06 v -0.18592 l 0.881593,-0.066 v 2.12902 q 0,0.2219 0.07796,0.28187 0.07796,0.054 0.38982,0.054 v 0.18591 l -0.863601,0.066 v -0.53975 q -0.251884,0.53975 -0.773643,0.53975 -0.263878,0 -0.443795,-0.066 -0.179917,-0.066 -0.269876,-0.14993 -0.08996,-0.084 -0.137936,-0.24589 -0.04798,-0.16192 -0.05398,-0.25788 -0.006,-0.10195 -0.006,-0.29386 v -0.89959 q 0,-0.40781 -0.05997,-0.47978 -0.05997,-0.072 -0.407812,-0.072 z m 3.460745,2.39889 v -0.18591 q 0.317853,0 0.38982,-0.036 0.07796,-0.042 0.07796,-0.23389 v -1.60726 q 0,-0.2219 -0.07796,-0.27587 -0.07796,-0.06 -0.38982,-0.06 v -0.18592 l 0.845609,-0.066 v 0.62971 q 0.28187,-0.62971 0.88759,-0.62971 0.701676,0 0.797632,0.58773 0.101953,-0.22789 0.317853,-0.40781 0.2159,-0.17992 0.551745,-0.17992 0.449792,0 0.629709,0.2219 0.131939,0.14993 0.155928,0.31785 0.02999,0.16793 0.02999,0.59973 v 1.14547 q 0.006,0.12594 0.101952,0.15593 0.09596,0.024 0.365831,0.024 v 0.18591 q -0.611717,-0.018 -0.671689,-0.018 -0.04798,0 -0.677687,0.018 v -0.18591 q 0.317853,0 0.38982,-0.036 0.07796,-0.042 0.07796,-0.23389 v -1.39735 q 0,-0.30586 -0.09596,-0.48578 -0.08996,-0.17992 -0.347839,-0.17992 -0.311856,0 -0.56374,0.26388 -0.245886,0.25788 -0.245886,0.69568 v 1.10349 q 0,0.19191 0.07197,0.23389 0.07796,0.036 0.395818,0.036 v 0.18591 q -0.611718,-0.018 -0.67169,-0.018 -0.04798,0 -0.677687,0.018 v -0.18591 q 0.317853,0 0.38982,-0.036 0.07796,-0.042 0.07796,-0.23389 v -1.39735 q 0,-0.30586 -0.09596,-0.48578 -0.08996,-0.17992 -0.347839,-0.17992 -0.311856,0 -0.56374,0.26388 -0.245886,0.25788 -0.245886,0.69568 v 1.10349 q 0,0.19191 0.07197,0.23389 0.07796,0.036 0.395818,0.036 v 0.18591 q -0.611718,-0.018 -0.67169,-0.018 -0.04798,0 -0.677687,0.018 z m 5.103985,-1.31939 q 0,-0.56374 0.359834,-0.96556 0.365831,-0.40181 0.88759,-0.40181 0.527756,0 0.797632,0.34184 0.275872,0.34184 0.275872,0.83362 0,0.09 -0.02399,0.10795 -0.02399,0.018 -0.125942,0.018 h -1.673228 q 0,0.61172 0.179917,0.89958 0.251884,0.40182 0.677687,0.40182 0.05997,0 0.125942,-0.012 0.07197,-0.012 0.2159,-0.06 0.143934,-0.054 0.269876,-0.19191 0.125942,-0.13794 0.197908,-0.35384 0.01799,-0.084 0.07796,-0.084 0.07796,0 0.07796,0.072 0,0.054 -0.05997,0.17392 -0.05397,0.11395 -0.161925,0.25788 -0.10795,0.13794 -0.317853,0.24589 -0.209903,0.10195 -0.461787,0.10195 -0.527756,0 -0.923573,-0.39582 -0.395818,-0.40181 -0.395818,-0.98954 z m 0.503768,-0.19191 h 1.421343 q 0,-0.12594 -0.02399,-0.26388 -0.01799,-0.14393 -0.08396,-0.33585 -0.05997,-0.1979 -0.209903,-0.31785 -0.143933,-0.12594 -0.359834,-0.12594 -0.09596,0 -0.203906,0.042 -0.101952,0.042 -0.227894,0.14393 -0.125942,0.096 -0.215901,0.32385 -0.08396,0.2219 -0.09596,0.53376 z"
         id="path17" />
    </g>
  </g>
</svg>
