<?xml version="1.0" encoding="UTF-8" standalone="no"?>
<!-- Created with Inkscape (http://www.inkscape.org/) -->

<svg
   width="190.41249mm"
   height="210.37801mm"
   viewBox="0 0 190.41249 210.37801"
   version="1.1"
   id="svg1"
   xml:space="preserve"
   inkscape:version="1.3 (0e150ed, 2023-07-21)"
   sodipodi:docname="energy-grid.svg"
   xmlns:inkscape="http://www.inkscape.org/namespaces/inkscape"
   xmlns:sodipodi="http://sodipodi.sourceforge.net/DTD/sodipodi-0.dtd"
   xmlns="http://www.w3.org/2000/svg"
   xmlns:svg="http://www.w3.org/2000/svg"><sodipodi:namedview
     id="namedview1"
     pagecolor="#666666"
     bordercolor="#000000"
     borderopacity="0.25"
     inkscape:showpageshadow="2"
     inkscape:pageopacity="0.0"
     inkscape:pagecheckerboard="0"
     inkscape:deskcolor="#d1d1d1"
     inkscape:document-units="mm"
     inkscape:zoom="0.64688585"
     inkscape:cx="170.81839"
     inkscape:cy="479.99195"
     inkscape:window-width="1512"
     inkscape:window-height="858"
     inkscape:window-x="294"
     inkscape:window-y="1118"
     inkscape:window-maximized="0"
     inkscape:current-layer="layer1" /><defs
     id="defs1" /><g
     inkscape:label="Layer 1"
     inkscape:groupmode="layer"
     id="layer1"
     transform="translate(-11.209478,-10.383086)"><path
       style="fill:none;stroke:#f9f9f9;stroke-width:1;stroke-linecap:round;stroke-linejoin:round;stroke-dasharray:none;-inkscape-stroke:none;paint-order:markers stroke fill"
       d="M 45.097414,211.54787 125.86278,184.48942 94.704569,70.925933 156.20104,73.385792"
       id="path39"
       sodipodi:nodetypes="cccc" /><g
       id="g14"
       transform="matrix(0.16159201,0,0,0.16159201,156.00953,55.85304)"
       style="fill:#ffffff"><path
         fill="#000000"
         d="m 36.5,17.8 c -2.3,0.6 -6.1,2.9 -7.6,4.5 -0.7,0.9 -1.9,2.6 -2.6,4 -1.1,2.1 -1.2,3.1 -1.4,7.8 l -0.2,5.4 h 3.7 3.7 v -4.7 c 0,-6.9 1.6,-9.4 6.4,-9.9 3,-0.3 4.4,0.6 8,4.6 6.8,7.7 10,9.8 15.1,9.8 5.1,0 8.4,-2.2 14.9,-9.6 3.2,-3.7 5,-4.9 7.2,-4.9 2.2,0 4,1.2 7.2,4.9 6.5,7.5 9.8,9.6 14.9,9.6 4,0 7.3,-1.6 10.7,-5.2 1.4,-1.4 3.9,-4 5.5,-5.7 2,-2.1 3.5,-3.2 4.4,-3.4 l 1.5,-0.3 V 21 17.3 l -1.7,0.3 c -4.3,0.8 -7.7,3.2 -13.2,9.7 -3.2,3.7 -5,4.9 -7.2,4.9 -2.2,0 -4,-1.2 -7.2,-4.9 -6.5,-7.5 -9.9,-9.6 -14.9,-9.6 -5.1,0 -8.5,2.2 -14.9,9.6 -3.2,3.7 -5,4.9 -7.2,4.9 -2.2,0 -4,-1.2 -7.2,-4.9 -4.1,-4.7 -6.6,-7 -9.2,-8.3 -2.5,-1.3 -6.4,-1.8 -8.7,-1.2 z"
         id="path1"
         style="fill:#ffffff" /><path
         fill="#000000"
         d="m 10,109.6 v 62.7 h 3.7 3.7 V 128 83.8 h 11.1 11.1 v 21.1 21.1 l 7.4,7.4 7.4,7.4 V 152.9 165 H 43.2 32.1 v 7.4 7.4 H 21.1 10 v 29.5 29.5 h 62.7 62.7 v -3.8 -3.7 h -59 -59 V 209.2 187 h 84.8 84.8 v 11.1 11.1 h 3.7 3.7 v -14.8 -14.8 h -35 -35 v -7.4 -7.4 H 115.2 106 V 150 135.2 h -7.4 -7.4 v -7.2 -7.4 h -3.7 -3.7 v 7.4 7.4 H 80.1 76.4 V 120.6 105.8 H 72.7 69 v 14.7 14.8 h -4.7 -4.7 l -6.4,-6.4 -6.3,-6.3 V 84.8 46.9 H 28.4 10 Z M 39.5,58 v 3.7 H 28.4 17.4 V 58 54.3 H 28.5 39.6 V 58 Z m 0,14.7 v 3.7 H 28.4 17.4 V 72.7 69 h 11.1 11.1 v 3.7 z m 59,81.2 V 165 H 80.1 61.6 V 153.9 142.8 H 80 98.4 v 11.1 z m 18.4,22.1 v 3.7 H 78.2 39.5 v -3.7 -3.7 h 38.7 38.7 z"
         id="path2"
         style="fill:#ffffff" /><path
         fill="#000000"
         d="m 69,153.9 v 3.7 h 3.7 3.7 v -3.7 -3.7 H 72.7 69 Z"
         id="path3"
         style="fill:#ffffff" /><path
         fill="#000000"
         d="m 83.8,153.9 v 3.7 h 3.7 3.7 v -3.7 -3.7 h -3.7 -3.7 z"
         id="path4"
         style="fill:#ffffff" /><path
         fill="#000000"
         d="m 176.6,54.7 c -2.3,0.6 -6.1,2.9 -7.6,4.5 -0.7,0.9 -1.9,2.6 -2.6,4 -1.1,2.1 -1.2,3.1 -1.4,7.8 l -0.2,5.4 h 3.7 3.7 l 0.2,-5.3 c 0.1,-4.5 0.3,-5.5 1.1,-6.6 1.8,-2.4 3.5,-2.9 10,-2.9 h 5.9 l -1,1.9 c -0.8,1.6 -1,3 -1.2,7.4 l -0.2,5.4 h 3.7 3.7 v -4.8 c 0,-6.9 1.6,-9.5 6.4,-9.9 3,-0.3 4.4,0.6 8,4.6 6.8,7.7 10,9.8 15.1,9.8 4,0 7.3,-1.6 10.7,-5.2 1.4,-1.4 3.9,-4 5.5,-5.7 2,-2.1 3.5,-3.2 4.4,-3.4 l 1.5,-0.3 v -3.6 -3.7 l -1.7,0.3 c -4.3,0.8 -7.7,3.3 -13.2,9.7 -3.2,3.7 -5,4.9 -7.2,4.9 -2.2,0 -4,-1.2 -7.2,-4.9 -4.2,-4.8 -6.6,-7 -9.4,-8.4 l -2.5,-1.2 -13.4,-0.1 c -7.4,0 -14,0.1 -14.8,0.3 z"
         id="path5"
         style="fill:#ffffff" /><path
         fill="#000000"
         d="m 142.7,108.5 -0.2,24.8 -1.9,7.6 c -1.8,7.1 -5.4,19.7 -7.5,26.3 -0.5,1.7 -0.9,3.2 -0.9,3.5 0,0.4 6.4,2.8 6.6,2.4 0.2,-0.2 3,-9.5 5.3,-17.7 2.3,-8.1 3.9,-14.5 4.9,-19.7 l 0.8,-4 h 29.8 29.9 l 0.3,2.6 c 1.2,9.8 7.8,29.1 20.7,60.3 5.2,12.6 8.1,20.1 8.1,21.2 0,0.6 -2.6,0.7 -18.4,0.7 h -18.4 v 3.7 3.7 h 18.4 18.4 v 3.7 3.7 h -18.4 -18.4 v 3.7 3.7 h 22.1 22.1 v -11.5 c 0,-11.5 0,-11.5 -1.4,-15.8 -0.7,-2.3 -3.5,-9.4 -6,-15.8 -12.1,-29.9 -16.3,-41.2 -19,-51.1 -3,-10.7 -3,-10.9 -3,-37 V 83.8 h -36.9 -36.8 z m 66.4,-13.6 v 3.7 h -29.5 -29.5 v -3.7 -3.7 h 29.5 29.5 z m 0,20.2 v 9.2 h -29.5 -29.5 v -9.2 -9.2 h 29.5 29.5 z"
         id="path6"
         style="fill:#ffffff" /><path
         fill="#000000"
         d="m 24.8,102.2 v 3.7 h 3.7 3.7 v -3.7 -3.7 h -3.7 -3.7 z"
         id="path7"
         style="fill:#ffffff" /><path
         fill="#000000"
         d="m 24.8,117 v 3.7 h 3.7 3.7 v -3.7 -3.7 h -3.7 -3.7 z"
         id="path8"
         style="fill:#ffffff" /><path
         fill="#000000"
         d="m 24.8,131.7 v 3.7 h 3.7 3.7 v -3.7 -3.7 h -3.7 -3.7 z"
         id="path9"
         style="fill:#ffffff" /><path
         fill="#000000"
         d="m 24.8,220.2 v 3.7 H 35.9 47 v -3.7 -3.7 h -11.2 -11 z"
         id="path10"
         style="fill:#ffffff" /><path
         fill="#000000"
         d="m 54.3,220.2 v 3.7 h 11.1 11.1 v -3.7 -3.7 h -11.2 -11 z"
         id="path11"
         style="fill:#ffffff" /><path
         fill="#000000"
         d="m 83.8,220.2 v 3.7 H 94.9 106 v -3.7 -3.7 h -11.2 -11 z"
         id="path12"
         style="fill:#ffffff" /><path
         fill="#000000"
         d="m 113.3,220.2 v 3.7 h 11.1 11.1 v -3.7 -3.7 h -11.1 -11.1 z"
         id="path13"
         style="fill:#ffffff" /><path
         fill="#000000"
         d="m 142.8,227.6 v 11.1 h 25.8 25.8 v -11.1 -11.1 h -25.8 -25.8 z m 44.2,0 v 3.7 h -18.4 -18.4 v -3.7 -3.7 h 18.4 18.4 z"
         id="path14"
         style="fill:#ffffff" /></g><g
       id="g28"
       transform="matrix(0.16159201,0,0,0.16159201,9.5935584,100.90411)"
       style="fill:#ffffff"><path
         fill="#000000"
         d="m 36.5,17.8 c -2.3,0.6 -6.1,2.9 -7.6,4.5 -0.7,0.9 -1.9,2.6 -2.6,4 -1.1,2.1 -1.2,3.1 -1.4,7.8 l -0.2,5.4 h 3.7 3.7 v -4.7 c 0,-6.9 1.6,-9.4 6.4,-9.9 3,-0.3 4.4,0.6 8,4.6 6.8,7.7 10,9.8 15.1,9.8 5.1,0 8.4,-2.2 14.9,-9.6 3.2,-3.7 5,-4.9 7.2,-4.9 2.2,0 4,1.2 7.2,4.9 6.5,7.5 9.8,9.6 14.9,9.6 4,0 7.3,-1.6 10.7,-5.2 1.4,-1.4 3.9,-4 5.5,-5.7 2,-2.1 3.5,-3.2 4.4,-3.4 l 1.5,-0.3 V 21 17.3 l -1.7,0.3 c -4.3,0.8 -7.7,3.2 -13.2,9.7 -3.2,3.7 -5,4.9 -7.2,4.9 -2.2,0 -4,-1.2 -7.2,-4.9 -6.5,-7.5 -9.9,-9.6 -14.9,-9.6 -5.1,0 -8.5,2.2 -14.9,9.6 -3.2,3.7 -5,4.9 -7.2,4.9 -2.2,0 -4,-1.2 -7.2,-4.9 -4.1,-4.7 -6.6,-7 -9.2,-8.3 -2.5,-1.3 -6.4,-1.8 -8.7,-1.2 z"
         id="path15"
         style="fill:#ffffff" /><path
         fill="#000000"
         d="m 10,109.6 v 62.7 h 3.7 3.7 V 128 83.8 h 11.1 11.1 v 21.1 21.1 l 7.4,7.4 7.4,7.4 V 152.9 165 H 43.2 32.1 v 7.4 7.4 H 21.1 10 v 29.5 29.5 h 62.7 62.7 v -3.8 -3.7 h -59 -59 V 209.2 187 h 84.8 84.8 v 11.1 11.1 h 3.7 3.7 v -14.8 -14.8 h -35 -35 v -7.4 -7.4 H 115.2 106 V 150 135.2 h -7.4 -7.4 v -7.2 -7.4 h -3.7 -3.7 v 7.4 7.4 H 80.1 76.4 V 120.6 105.8 H 72.7 69 v 14.7 14.8 h -4.7 -4.7 l -6.4,-6.4 -6.3,-6.3 V 84.8 46.9 H 28.4 10 Z M 39.5,58 v 3.7 H 28.4 17.4 V 58 54.3 H 28.5 39.6 V 58 Z m 0,14.7 v 3.7 H 28.4 17.4 V 72.7 69 h 11.1 11.1 v 3.7 z m 59,81.2 V 165 H 80.1 61.6 V 153.9 142.8 H 80 98.4 v 11.1 z m 18.4,22.1 v 3.7 H 78.2 39.5 v -3.7 -3.7 h 38.7 38.7 z"
         id="path16"
         style="fill:#ffffff" /><path
         fill="#000000"
         d="m 69,153.9 v 3.7 h 3.7 3.7 v -3.7 -3.7 H 72.7 69 Z"
         id="path17"
         style="fill:#ffffff" /><path
         fill="#000000"
         d="m 83.8,153.9 v 3.7 h 3.7 3.7 v -3.7 -3.7 h -3.7 -3.7 z"
         id="path18"
         style="fill:#ffffff" /><path
         fill="#000000"
         d="m 176.6,54.7 c -2.3,0.6 -6.1,2.9 -7.6,4.5 -0.7,0.9 -1.9,2.6 -2.6,4 -1.1,2.1 -1.2,3.1 -1.4,7.8 l -0.2,5.4 h 3.7 3.7 l 0.2,-5.3 c 0.1,-4.5 0.3,-5.5 1.1,-6.6 1.8,-2.4 3.5,-2.9 10,-2.9 h 5.9 l -1,1.9 c -0.8,1.6 -1,3 -1.2,7.4 l -0.2,5.4 h 3.7 3.7 v -4.8 c 0,-6.9 1.6,-9.5 6.4,-9.9 3,-0.3 4.4,0.6 8,4.6 6.8,7.7 10,9.8 15.1,9.8 4,0 7.3,-1.6 10.7,-5.2 1.4,-1.4 3.9,-4 5.5,-5.7 2,-2.1 3.5,-3.2 4.4,-3.4 l 1.5,-0.3 v -3.6 -3.7 l -1.7,0.3 c -4.3,0.8 -7.7,3.3 -13.2,9.7 -3.2,3.7 -5,4.9 -7.2,4.9 -2.2,0 -4,-1.2 -7.2,-4.9 -4.2,-4.8 -6.6,-7 -9.4,-8.4 l -2.5,-1.2 -13.4,-0.1 c -7.4,0 -14,0.1 -14.8,0.3 z"
         id="path19"
         style="fill:#ffffff" /><path
         fill="#000000"
         d="m 142.7,108.5 -0.2,24.8 -1.9,7.6 c -1.8,7.1 -5.4,19.7 -7.5,26.3 -0.5,1.7 -0.9,3.2 -0.9,3.5 0,0.4 6.4,2.8 6.6,2.4 0.2,-0.2 3,-9.5 5.3,-17.7 2.3,-8.1 3.9,-14.5 4.9,-19.7 l 0.8,-4 h 29.8 29.9 l 0.3,2.6 c 1.2,9.8 7.8,29.1 20.7,60.3 5.2,12.6 8.1,20.1 8.1,21.2 0,0.6 -2.6,0.7 -18.4,0.7 h -18.4 v 3.7 3.7 h 18.4 18.4 v 3.7 3.7 h -18.4 -18.4 v 3.7 3.7 h 22.1 22.1 v -11.5 c 0,-11.5 0,-11.5 -1.4,-15.8 -0.7,-2.3 -3.5,-9.4 -6,-15.8 -12.1,-29.9 -16.3,-41.2 -19,-51.1 -3,-10.7 -3,-10.9 -3,-37 V 83.8 h -36.9 -36.8 z m 66.4,-13.6 v 3.7 h -29.5 -29.5 v -3.7 -3.7 h 29.5 29.5 z m 0,20.2 v 9.2 h -29.5 -29.5 v -9.2 -9.2 h 29.5 29.5 z"
         id="path20"
         style="fill:#ffffff" /><path
         fill="#000000"
         d="m 24.8,102.2 v 3.7 h 3.7 3.7 v -3.7 -3.7 h -3.7 -3.7 z"
         id="path21"
         style="fill:#ffffff" /><path
         fill="#000000"
         d="m 24.8,117 v 3.7 h 3.7 3.7 v -3.7 -3.7 h -3.7 -3.7 z"
         id="path22"
         style="fill:#ffffff" /><path
         fill="#000000"
         d="m 24.8,131.7 v 3.7 h 3.7 3.7 v -3.7 -3.7 h -3.7 -3.7 z"
         id="path23"
         style="fill:#ffffff" /><path
         fill="#000000"
         d="m 24.8,220.2 v 3.7 H 35.9 47 v -3.7 -3.7 h -11.2 -11 z"
         id="path24"
         style="fill:#ffffff" /><path
         fill="#000000"
         d="m 54.3,220.2 v 3.7 h 11.1 11.1 v -3.7 -3.7 h -11.2 -11 z"
         id="path25"
         style="fill:#ffffff" /><path
         fill="#000000"
         d="m 83.8,220.2 v 3.7 H 94.9 106 v -3.7 -3.7 h -11.2 -11 z"
         id="path26"
         style="fill:#ffffff" /><path
         fill="#000000"
         d="m 113.3,220.2 v 3.7 h 11.1 11.1 v -3.7 -3.7 h -11.1 -11.1 z"
         id="path27"
         style="fill:#ffffff" /><path
         fill="#000000"
         d="m 142.8,227.6 v 11.1 h 25.8 25.8 v -11.1 -11.1 h -25.8 -25.8 z m 44.2,0 v 3.7 h -18.4 -18.4 v -3.7 -3.7 h 18.4 18.4 z"
         id="path28"
         style="fill:#ffffff" /></g><g
       style="fill:#ffffff"
       id="g29"
       transform="matrix(0.0428105,0,0,0.0428105,179.96778,117.67434)"><g
         id="g1"
         style="fill:#ffffff">&#10;	<path
   d="M 505.629,444.763 487.782,181.277 c -0.252,-3.762 -3.379,-6.681 -7.146,-6.681 H 56.49 c -3.771,0 -6.898,2.919 -7.15,6.681 L 31.419,445.93 c -0.136,1.979 0.553,3.925 1.911,5.377 1.354,1.451 3.255,2.277 5.238,2.277 h 226.61 v 33.612 l -102.956,21.496 c -3.423,0.71 -5.831,3.79 -5.698,7.286 0.135,3.495 2.768,6.389 6.237,6.837 l 109.632,14.3 c 0.187,0.019 0.345,0.103 0.53,0.103 0.109,0 0.235,-0.019 0.345,-0.023 0.11,0.005 0.234,0.023 0.344,0.023 0.187,0 0.345,-0.084 0.532,-0.103 l 109.632,-14.3 c 3.472,-0.448 6.1,-3.337 6.235,-6.837 0.13,-3.496 -2.278,-6.576 -5.694,-7.286 L 279.513,486.813 v -33.229 h 219.04 c 0.037,0.005 0.07,0 0.094,0 3.962,0 7.168,-3.211 7.168,-7.169 0,-0.569 -0.065,-1.12 -0.186,-1.652 z m -96.894,-59.282 -9.833,-8.466 -1.083,-26.621 9.871,-9.119 h 76.554 l 2.992,44.206 z m -358.86,0 2.992,-44.206 h 88.485 l 9.458,8.732 -1.123,27.634 -9.101,7.84 z m 96.729,-150.778 8.569,7.885 -1.22,29.965 -9.811,8.984 H 56.915 l 3.169,-46.834 z m 330.425,0 3.169,46.834 H 405.17 l -10.533,-9.651 -1.177,-28.913 8.989,-8.27 z m -70.282,99.403 -9.932,-8.597 -1.157,-28.437 9.087,-8.368 h 75.943 l 3.075,45.401 h -77.016 z m -120.55,51.375 -9.008,-8.792 v -26.267 l 10.608,-9.147 h 94.438 l 8.363,7.738 1.167,28.73 -7.93,7.737 h -97.638 z m -120.973,0 -8.354,-8.152 1.118,-27.648 9.085,-8.405 h 94.641 l 8.3,8.032 v 28.894 l -8.464,7.28 h -96.326 z m -111.87,-51.375 3.078,-45.401 h 87.879 l 8.665,7.981 -1.195,29.453 -9.215,7.967 z m 207.552,-99.403 9.112,7.927 v 30.039 l -9.682,8.863 H 169.51 l -8.394,-8.723 1.239,-30.443 8.802,-7.664 h 89.749 z m 117.26,0 8.069,7.033 1.284,31.531 -7.962,8.271 h -93.855 l -8.513,-8.849 v -30.423 l 8.064,-7.563 z m -91.185,99.403 -9.792,-8.765 v -29.953 l 7.668,-6.684 h 95.787 l 7.775,6.772 1.265,31.092 -7.253,7.537 h -95.45 z m -120.348,0 -7.68,-7.985 1.218,-30.009 8.496,-7.407 H 260.5 l 9.519,8.765 v 29.049 l -8.587,7.588 h -94.799 z m 218.688,-114.961 -8.069,8.389 h -91.629 l -8.434,-8.76 v -29.841 h 106.904 z m -115.302,-0.443 -9.796,8.837 h -88.404 l -8.501,-8.837 1.209,-29.769 h 105.492 z m -114.12,182.498 9.21,-8.55 h 95.848 l 9.062,8.887 v 37.71 H 154.356 Z m 121.29,38.047 v -38.336 l 8.886,-8.261 h 98.126 l 8.484,7.878 1.573,38.719 z M 476.548,227.534 h -73.86 l -10.235,-9.374 -1.186,-29.228 h 82.668 z m -319.195,-38.601 -1.215,29.893 -9.509,8.709 H 60.571 l 2.614,-38.602 z M 49.392,392.65 h 90.597 l 8.737,8.573 -1.545,38.023 H 46.239 Z m 215.782,109.192 v 19.877 l -58.593,-7.64 z m 14.34,20.124 v -20.507 l 60.434,12.624 z m 121.923,-82.719 -1.531,-37.607 9.166,-8.989 h 78.654 l 3.155,46.597 H 401.437 Z M 280.34,30.147 c -26.47,0 -48.003,21.534 -48.003,48.001 0,26.467 21.534,47.996 48.003,47.996 26.462,0 47.996,-21.534 47.996,-48.001 0,-26.467 -21.534,-47.996 -47.996,-47.996 z m 0,87.003 c -21.513,0 -39,-17.497 -39,-39.002 0,-21.505 17.487,-39.003 39,-39.003 21.496,0 38.998,17.497 38.998,39.003 0,21.506 -17.502,39.002 -38.998,39.002 z M 206.294,54.735 c -0.028,-0.296 0.01,-0.593 0.101,-0.889 0.378,-1.181 1.659,-1.83 2.835,-1.449 l 12.3,3.995 c 1.181,0.388 1.832,1.659 1.444,2.84 -0.306,0.952 -1.185,1.554 -2.133,1.554 0,0 0,0 -0.009,0 v 0 c -0.229,0 -0.469,-0.035 -0.698,-0.105 l -12.295,-3.995 c -0.884,-0.287 -1.463,-1.076 -1.545,-1.951 z m 27.734,-36.65 c -0.733,-1.003 -0.511,-2.413 0.497,-3.141 v 0 0 c 1.003,-0.73 2.417,-0.511 3.143,0.497 l 7.605,10.461 c 0.73,1.008 0.506,2.413 -0.497,3.146 -0.396,0.292 -0.866,0.429 -1.321,0.429 -0.693,0 -1.375,-0.32 -1.815,-0.926 v 0 l -0.009,-0.005 z m 81.576,10.748 c -1.004,-0.732 -1.223,-2.137 -0.5,-3.146 l 7.594,-10.461 c 0.732,-1.013 2.146,-1.227 3.15,-0.497 0.998,0.726 1.218,2.133 0.494,3.141 l -7.593,10.461 c -0.443,0.606 -1.125,0.926 -1.825,0.926 -0.461,0.006 -0.918,-0.132 -1.32,-0.424 z m 21.982,30.061 c -0.388,-1.181 0.262,-2.452 1.442,-2.835 l 12.293,-4.004 c 1.19,-0.387 2.455,0.269 2.842,1.449 0.379,1.178 -0.266,2.45 -1.451,2.833 l -12.298,4.004 c -0.229,0.077 -0.467,0.11 -0.695,0.11 -0.948,-10e-4 -1.825,-0.607 -2.133,-1.557 z m 16.689,42.62 c -0.308,0.95 -1.194,1.556 -2.142,1.556 -0.229,0 -0.467,-0.037 -0.695,-0.109 L 339.14,98.966 c -1.186,-0.383 -1.83,-1.652 -1.452,-2.833 0.388,-1.181 1.671,-1.836 2.843,-1.449 l 12.293,3.995 c 1.191,0.382 1.829,1.654 1.451,2.835 z m -27.633,35.77 c 0.729,0.999 0.509,2.413 -0.494,3.139 -0.397,0.294 -0.868,0.432 -1.321,0.432 -0.695,0 -1.377,-0.319 -1.82,-0.926 l -7.603,-10.459 c -0.728,-1.003 -0.509,-2.413 0.495,-3.139 0.998,-0.721 2.417,-0.511 3.146,0.497 z m -48.379,15.829 v -12.928 c 0,-1.246 1.004,-2.25 2.254,-2.25 0.304,0 0.607,0.061 0.883,0.175 0.807,0.341 1.372,1.139 1.372,2.075 v 12.928 c 0,1.246 -1.004,2.252 -2.255,2.252 -1.246,0 -2.254,-1.006 -2.254,-2.252 z m -44.345,-13.946 c -0.044,-0.287 -0.04,-0.579 0.038,-0.866 0.063,-0.287 0.182,-0.562 0.369,-0.812 l 7.593,-10.461 c 0.735,-1.013 2.14,-1.228 3.146,-0.497 0.497,0.364 0.808,0.898 0.898,1.478 0.089,0.564 -0.035,1.171 -0.401,1.673 l -7.601,10.461 c -0.438,0.606 -1.122,0.921 -1.82,0.921 -0.464,0 -0.917,-0.133 -1.323,-0.424 -0.502,-0.369 -0.807,-0.903 -0.899,-1.473 z M 223.093,96.466 c 0.378,1.185 -0.268,2.457 -1.454,2.84 v 0 0.004 l -12.295,3.995 c -0.231,0.075 -0.469,0.105 -0.693,0.105 -0.952,0 -1.841,-0.602 -2.147,-1.549 -0.1,-0.301 -0.119,-0.598 -0.1,-0.894 0.072,-0.873 0.661,-1.661 1.549,-1.948 l 12.295,-3.998 c 1.191,-0.38 2.462,0.269 2.845,1.445 z M 277.898,15.184 V 2.252 C 277.898,1.008 278.902,0 280.153,0 v 0 0 c 1.25,0 2.249,1.008 2.249,2.252 v 12.941 c 0,1.242 -0.999,2.25 -2.249,2.25 -1.237,0 -2.255,-1.008 -2.255,-2.25 z"
   id="path1-8"
   style="fill:#ffffff" />&#10;</g></g><g
       style="fill:#ffffff"
       id="g31"
       transform="matrix(0.0428105,0,0,0.0428105,23.454154,34.951257)"><g
         id="g30"
         style="fill:#ffffff">&#10;	<path
   d="M 505.629,444.763 487.782,181.277 c -0.252,-3.762 -3.379,-6.681 -7.146,-6.681 H 56.49 c -3.771,0 -6.898,2.919 -7.15,6.681 L 31.419,445.93 c -0.136,1.979 0.553,3.925 1.911,5.377 1.354,1.451 3.255,2.277 5.238,2.277 h 226.61 v 33.612 l -102.956,21.496 c -3.423,0.71 -5.831,3.79 -5.698,7.286 0.135,3.495 2.768,6.389 6.237,6.837 l 109.632,14.3 c 0.187,0.019 0.345,0.103 0.53,0.103 0.109,0 0.235,-0.019 0.345,-0.023 0.11,0.005 0.234,0.023 0.344,0.023 0.187,0 0.345,-0.084 0.532,-0.103 l 109.632,-14.3 c 3.472,-0.448 6.1,-3.337 6.235,-6.837 0.13,-3.496 -2.278,-6.576 -5.694,-7.286 L 279.513,486.813 v -33.229 h 219.04 c 0.037,0.005 0.07,0 0.094,0 3.962,0 7.168,-3.211 7.168,-7.169 0,-0.569 -0.065,-1.12 -0.186,-1.652 z m -96.894,-59.282 -9.833,-8.466 -1.083,-26.621 9.871,-9.119 h 76.554 l 2.992,44.206 z m -358.86,0 2.992,-44.206 h 88.485 l 9.458,8.732 -1.123,27.634 -9.101,7.84 z m 96.729,-150.778 8.569,7.885 -1.22,29.965 -9.811,8.984 H 56.915 l 3.169,-46.834 z m 330.425,0 3.169,46.834 H 405.17 l -10.533,-9.651 -1.177,-28.913 8.989,-8.27 z m -70.282,99.403 -9.932,-8.597 -1.157,-28.437 9.087,-8.368 h 75.943 l 3.075,45.401 h -77.016 z m -120.55,51.375 -9.008,-8.792 v -26.267 l 10.608,-9.147 h 94.438 l 8.363,7.738 1.167,28.73 -7.93,7.737 h -97.638 z m -120.973,0 -8.354,-8.152 1.118,-27.648 9.085,-8.405 h 94.641 l 8.3,8.032 v 28.894 l -8.464,7.28 h -96.326 z m -111.87,-51.375 3.078,-45.401 h 87.879 l 8.665,7.981 -1.195,29.453 -9.215,7.967 z m 207.552,-99.403 9.112,7.927 v 30.039 l -9.682,8.863 H 169.51 l -8.394,-8.723 1.239,-30.443 8.802,-7.664 h 89.749 z m 117.26,0 8.069,7.033 1.284,31.531 -7.962,8.271 h -93.855 l -8.513,-8.849 v -30.423 l 8.064,-7.563 z m -91.185,99.403 -9.792,-8.765 v -29.953 l 7.668,-6.684 h 95.787 l 7.775,6.772 1.265,31.092 -7.253,7.537 h -95.45 z m -120.348,0 -7.68,-7.985 1.218,-30.009 8.496,-7.407 H 260.5 l 9.519,8.765 v 29.049 l -8.587,7.588 h -94.799 z m 218.688,-114.961 -8.069,8.389 h -91.629 l -8.434,-8.76 v -29.841 h 106.904 z m -115.302,-0.443 -9.796,8.837 h -88.404 l -8.501,-8.837 1.209,-29.769 h 105.492 z m -114.12,182.498 9.21,-8.55 h 95.848 l 9.062,8.887 v 37.71 H 154.356 Z m 121.29,38.047 v -38.336 l 8.886,-8.261 h 98.126 l 8.484,7.878 1.573,38.719 z M 476.548,227.534 h -73.86 l -10.235,-9.374 -1.186,-29.228 h 82.668 z m -319.195,-38.601 -1.215,29.893 -9.509,8.709 H 60.571 l 2.614,-38.602 z M 49.392,392.65 h 90.597 l 8.737,8.573 -1.545,38.023 H 46.239 Z m 215.782,109.192 v 19.877 l -58.593,-7.64 z m 14.34,20.124 v -20.507 l 60.434,12.624 z m 121.923,-82.719 -1.531,-37.607 9.166,-8.989 h 78.654 l 3.155,46.597 H 401.437 Z M 280.34,30.147 c -26.47,0 -48.003,21.534 -48.003,48.001 0,26.467 21.534,47.996 48.003,47.996 26.462,0 47.996,-21.534 47.996,-48.001 0,-26.467 -21.534,-47.996 -47.996,-47.996 z m 0,87.003 c -21.513,0 -39,-17.497 -39,-39.002 0,-21.505 17.487,-39.003 39,-39.003 21.496,0 38.998,17.497 38.998,39.003 0,21.506 -17.502,39.002 -38.998,39.002 z M 206.294,54.735 c -0.028,-0.296 0.01,-0.593 0.101,-0.889 0.378,-1.181 1.659,-1.83 2.835,-1.449 l 12.3,3.995 c 1.181,0.388 1.832,1.659 1.444,2.84 -0.306,0.952 -1.185,1.554 -2.133,1.554 0,0 0,0 -0.009,0 v 0 c -0.229,0 -0.469,-0.035 -0.698,-0.105 l -12.295,-3.995 c -0.884,-0.287 -1.463,-1.076 -1.545,-1.951 z m 27.734,-36.65 c -0.733,-1.003 -0.511,-2.413 0.497,-3.141 v 0 0 c 1.003,-0.73 2.417,-0.511 3.143,0.497 l 7.605,10.461 c 0.73,1.008 0.506,2.413 -0.497,3.146 -0.396,0.292 -0.866,0.429 -1.321,0.429 -0.693,0 -1.375,-0.32 -1.815,-0.926 v 0 l -0.009,-0.005 z m 81.576,10.748 c -1.004,-0.732 -1.223,-2.137 -0.5,-3.146 l 7.594,-10.461 c 0.732,-1.013 2.146,-1.227 3.15,-0.497 0.998,0.726 1.218,2.133 0.494,3.141 l -7.593,10.461 c -0.443,0.606 -1.125,0.926 -1.825,0.926 -0.461,0.006 -0.918,-0.132 -1.32,-0.424 z m 21.982,30.061 c -0.388,-1.181 0.262,-2.452 1.442,-2.835 l 12.293,-4.004 c 1.19,-0.387 2.455,0.269 2.842,1.449 0.379,1.178 -0.266,2.45 -1.451,2.833 l -12.298,4.004 c -0.229,0.077 -0.467,0.11 -0.695,0.11 -0.948,-10e-4 -1.825,-0.607 -2.133,-1.557 z m 16.689,42.62 c -0.308,0.95 -1.194,1.556 -2.142,1.556 -0.229,0 -0.467,-0.037 -0.695,-0.109 L 339.14,98.966 c -1.186,-0.383 -1.83,-1.652 -1.452,-2.833 0.388,-1.181 1.671,-1.836 2.843,-1.449 l 12.293,3.995 c 1.191,0.382 1.829,1.654 1.451,2.835 z m -27.633,35.77 c 0.729,0.999 0.509,2.413 -0.494,3.139 -0.397,0.294 -0.868,0.432 -1.321,0.432 -0.695,0 -1.377,-0.319 -1.82,-0.926 l -7.603,-10.459 c -0.728,-1.003 -0.509,-2.413 0.495,-3.139 0.998,-0.721 2.417,-0.511 3.146,0.497 z m -48.379,15.829 v -12.928 c 0,-1.246 1.004,-2.25 2.254,-2.25 0.304,0 0.607,0.061 0.883,0.175 0.807,0.341 1.372,1.139 1.372,2.075 v 12.928 c 0,1.246 -1.004,2.252 -2.255,2.252 -1.246,0 -2.254,-1.006 -2.254,-2.252 z m -44.345,-13.946 c -0.044,-0.287 -0.04,-0.579 0.038,-0.866 0.063,-0.287 0.182,-0.562 0.369,-0.812 l 7.593,-10.461 c 0.735,-1.013 2.14,-1.228 3.146,-0.497 0.497,0.364 0.808,0.898 0.898,1.478 0.089,0.564 -0.035,1.171 -0.401,1.673 l -7.601,10.461 c -0.438,0.606 -1.122,0.921 -1.82,0.921 -0.464,0 -0.917,-0.133 -1.323,-0.424 -0.502,-0.369 -0.807,-0.903 -0.899,-1.473 z M 223.093,96.466 c 0.378,1.185 -0.268,2.457 -1.454,2.84 v 0 0.004 l -12.295,3.995 c -0.231,0.075 -0.469,0.105 -0.693,0.105 -0.952,0 -1.841,-0.602 -2.147,-1.549 -0.1,-0.301 -0.119,-0.598 -0.1,-0.894 0.072,-0.873 0.661,-1.661 1.549,-1.948 l 12.295,-3.998 c 1.191,-0.38 2.462,0.269 2.845,1.445 z M 277.898,15.184 V 2.252 C 277.898,1.008 278.902,0 280.153,0 v 0 0 c 1.25,0 2.249,1.008 2.249,2.252 v 12.941 c 0,1.242 -0.999,2.25 -2.249,2.25 -1.237,0 -2.255,-1.008 -2.255,-2.25 z"
   id="path29"
   style="fill:#ffffff" />&#10;</g></g><path
       d="m 130.74158,10.487468 c -0.0663,0.06619 -0.11912,0.142319 -0.11912,0.168795 0,0.142319 0.25486,0.383932 1.78395,1.701204 2.85632,2.462449 3.20384,2.766945 4.33909,3.809517 1.33714,1.227911 3.08466,2.935741 4.66342,4.557518 0.64209,0.658639 1.29741,1.307347 1.45298,1.443048 0.47991,0.407095 1.10544,0.873767 1.51916,1.125313 0.21513,0.13239 0.39386,0.264774 0.40049,0.294565 0.006,0.04301 -0.0431,0.07281 -0.21844,0.122467 -0.12574,0.03969 -0.25486,0.0695 -0.28465,0.0695 -0.0298,0 -0.12574,-0.05295 -0.21181,-0.115839 -0.34754,-0.248231 -0.59577,-0.301183 -0.85723,-0.185338 -0.16551,0.07613 -0.20521,0.145627 -0.39386,0.69836 -0.0762,0.228367 -0.1854,0.539484 -0.24162,0.69504 -0.17214,0.476606 -0.12906,0.77779 0.14563,0.96645 0.1854,0.125762 0.63216,0.340904 0.8142,0.39055 0.13569,0.03312 0.1854,0.02981 0.41041,-0.02981 0.14563,-0.03975 0.27139,-0.05956 0.28794,-0.04301 0.0232,0.02318 -0.086,2.214217 -0.27139,5.520646 -0.13237,2.343299 -0.23499,4.88849 -0.49645,12.193094 -0.1622,4.597231 -0.3012,8.472939 -0.30452,8.61526 l -0.01,0.25485 h 1.85015 1.85012 l -0.0232,-0.820818 c -0.0136,-0.450121 -0.10255,-4.137176 -0.20189,-8.198231 -0.0992,-4.061054 -0.18871,-7.559448 -0.1986,-7.777897 -0.0232,-0.486532 -0.13237,-2.565048 -0.34752,-6.652578 -0.19528,-3.677122 -0.20191,-3.955144 -0.0793,-3.955144 0.0661,0 0.15888,0.201892 0.63548,1.39009 0.59906,1.496005 1.24777,3.319672 2.06859,5.808598 0.45012,1.366924 1.93288,6.278585 2.50878,8.324005 0.63546,2.244002 0.65533,2.306887 0.86714,2.896022 0.19528,0.53949 0.22838,0.602375 0.35085,0.628851 0.14894,0.03312 0.26146,-0.02981 0.28462,-0.15555 0.0332,-0.182025 -0.0959,-0.910177 -0.41701,-2.316817 -0.4402,-1.949443 -0.66858,-2.843068 -1.53242,-5.950918 -0.75461,-2.720606 -0.79764,-2.862925 -1.62508,-5.312137 -0.79434,-2.349917 -0.87708,-2.62132 -1.27425,-4.123938 -0.23168,-0.8837 -0.43359,-1.691279 -0.44682,-1.793885 -0.0232,-0.175415 -0.0156,-0.198577 0.0793,-0.350829 0.0696,-0.105916 0.12243,-0.248231 0.15226,-0.420334 0.0298,-0.142314 0.076,-0.287953 0.10585,-0.324361 0.0331,-0.03969 0.28133,-0.301184 0.55604,-0.582509 0.90026,-0.923422 3.53812,-3.912117 4.42843,-5.007639 0.17877,-0.221755 0.38725,-0.612308 0.38725,-0.728145 0,-0.178729 -0.16883,-0.387243 -0.31441,-0.387243 -0.0862,0 -0.34754,0.175415 -0.76126,0.513013 -0.18209,0.148942 -0.83074,0.661945 -1.43972,1.141856 -1.42319,1.118695 -2.93575,2.396259 -3.29652,2.783497 -0.1622,0.175416 -0.50638,0.807579 -0.73475,1.363612 -0.0563,0.13239 -0.12574,0.142313 -0.31775,0.04963 -0.19857,-0.09929 -0.21183,-0.112525 -2.4856,-2.128162 -3.4587,-3.06813 -3.7003,-3.276648 -5.67623,-4.914967 -1.54232,-1.280871 -2.26054,-1.853456 -4.84545,-3.869089 -1.41988,-1.108768 -1.56221,-1.208061 -1.92957,-1.360306 -0.38394,-0.162176 -0.44022,-0.162176 -0.58583,-0.01988 z"
       id="path1-7"
       style="fill:#ffffff;stroke:none;stroke-width:0.00330974" /><path
       d="m 72.618795,104.6486 c -0.05505,0.055 -0.0991,0.11836 -0.0991,0.14038 0,0.11836 0.211946,0.3193 1.48362,1.41481 2.375442,2.04789 2.664459,2.30112 3.608584,3.16817 1.112026,1.02119 2.565368,2.44151 3.878331,3.79025 0.533991,0.54776 1.078993,1.08726 1.208362,1.20011 0.399117,0.33856 0.91935,0.72667 1.263415,0.93587 0.178917,0.1101 0.327556,0.2202 0.333061,0.24497 0.0055,0.0358 -0.03576,0.0606 -0.181667,0.10185 -0.104596,0.033 -0.211946,0.0578 -0.23672,0.0578 -0.0248,0 -0.104596,-0.044 -0.176163,-0.0963 -0.289017,-0.20644 -0.495458,-0.25048 -0.712909,-0.15415 -0.137623,0.0633 -0.170657,0.12112 -0.32755,0.58079 -0.06331,0.18993 -0.154144,0.44866 -0.200937,0.57803 -0.143133,0.39637 -0.10735,0.64685 0.12111,0.80375 0.154143,0.10459 0.525737,0.28351 0.677126,0.3248 0.112855,0.0275 0.154143,0.0248 0.341315,-0.0248 0.121115,-0.0331 0.22571,-0.0495 0.239475,-0.0358 0.01928,0.0193 -0.07157,1.84145 -0.225711,4.59124 -0.1101,1.9488 -0.195431,4.0655 -0.412882,10.14036 -0.134874,3.82328 -0.250479,7.0465 -0.253234,7.16486 l -0.0083,0.21195 h 1.538673 1.538668 l -0.01929,-0.68263 c -0.01102,-0.37434 -0.08533,-3.44068 -0.167902,-6.81804 -0.08258,-3.37737 -0.156899,-6.2868 -0.165153,-6.46848 -0.01929,-0.40462 -0.110106,-2.13321 -0.289018,-5.5326 -0.162403,-3.05807 -0.167908,-3.28929 -0.06606,-3.28929 0.05505,0 0.132125,0.1679 0.528487,1.15607 0.498208,1.24415 1.03771,2.7608 1.72034,4.83071 0.374344,1.1368 1.60748,5.22157 2.086424,6.92264 0.528487,1.86622 0.545001,1.91852 0.721164,2.40847 0.162403,0.44867 0.189926,0.50096 0.291772,0.52298 0.123865,0.0275 0.217451,-0.0248 0.23672,-0.12937 0.0275,-0.15139 -0.07983,-0.75694 -0.34682,-1.92677 -0.366089,-1.62125 -0.556016,-2.36443 -1.27443,-4.94907 -0.627577,-2.26259 -0.663361,-2.38095 -1.351496,-4.41783 -0.660611,-1.95431 -0.729423,-2.18002 -1.059729,-3.42967 -0.192676,-0.73492 -0.360584,-1.40654 -0.371594,-1.49188 -0.01929,-0.14588 -0.01378,-0.16514 0.06606,-0.29176 0.0578,-0.0881 0.101845,-0.20644 0.126619,-0.34957 0.0248,-0.11836 0.06331,-0.23948 0.08808,-0.26976 0.0275,-0.033 0.233964,-0.25048 0.462424,-0.48444 0.748693,-0.76796 2.942467,-3.2535 3.6829,-4.16459 0.148639,-0.18443 0.322046,-0.50923 0.322046,-0.60556 0,-0.14864 -0.140379,-0.32205 -0.261489,-0.32205 -0.07157,0 -0.289017,0.14588 -0.633087,0.42664 -0.151389,0.12387 -0.690885,0.55051 -1.197353,0.94963 -1.183593,0.93036 -2.441504,1.99284 -2.741531,2.31489 -0.134874,0.14588 -0.421142,0.67162 -0.611063,1.13404 -0.04678,0.1101 -0.104601,0.11836 -0.264243,0.0413 -0.165153,-0.0826 -0.176168,-0.0936 -2.067161,-1.76988 -2.876404,-2.5516 -3.077341,-2.72502 -4.720609,-4.08752 -1.282684,-1.06524 -1.879983,-1.54142 -4.02972,-3.21772 -1.180838,-0.92211 -1.299198,-1.00468 -1.60473,-1.1313 -0.319296,-0.13487 -0.366089,-0.13487 -0.487198,-0.0165 z"
       id="path31"
       style="fill:#ffffff;stroke:none;stroke-width:0.00275254" /><g
       style="fill:#f9f9f9"
       id="g32"
       transform="matrix(0.2605755,0,0,0.2605755,23.479991,146.94277)"><path
         d="m 485.38916,91.28119 c 1.4369,0 2.60119,-1.164291 2.60119,-2.601187 v -5.549198 c 0,-0.09642 -0.006,-0.191101 -0.0163,-0.284743 -10e-4,-0.01318 -0.005,-0.02601 -0.006,-0.03919 -0.0135,-0.10821 -0.0343,-0.213991 -0.0607,-0.317692 -0.006,-0.02116 -0.0104,-0.04266 -0.0163,-0.06382 -0.0323,-0.114799 -0.0711,-0.226823 -0.11827,-0.334339 -0.005,-0.01075 -0.0104,-0.02116 -0.0153,-0.03191 -0.0454,-0.09989 -0.0971,-0.195956 -0.15434,-0.288558 -0.0111,-0.01838 -0.0215,-0.03676 -0.0333,-0.0548 -0.0631,-0.09711 -0.13249,-0.189366 -0.20775,-0.277113 -0.016,-0.01838 -0.0326,-0.03607 -0.0489,-0.05376 -0.0773,-0.08497 -0.15885,-0.166129 -0.2466,-0.240349 -0.004,-0.0035 -0.008,-0.008 -0.0118,-0.01145 l -0.0104,-0.0087 c -3.5e-4,0 -3.5e-4,-3.47e-4 -7e-4,-6.94e-4 L 454.36082,53.887916 446.26176,26.891412 c -0.33017,-1.100129 -1.34256,-1.853779 -2.49159,-1.853779 h -11.09839 c -1.14904,0 -2.16142,0.75365 -2.49159,1.853779 l -8.09871,26.996157 -32.68305,27.235813 c -3.5e-4,3.47e-4 -3.5e-4,3.47e-4 -7e-4,6.94e-4 l -0.0104,0.0087 c -0.004,0.0035 -0.008,0.008 -0.0118,0.01144 -0.0878,0.07422 -0.16925,0.155377 -0.24659,0.24035 -0.0163,0.01803 -0.0333,0.03538 -0.0489,0.05376 -0.0753,0.08775 -0.14463,0.180003 -0.20775,0.277114 -0.0118,0.01803 -0.0222,0.03642 -0.0333,0.0548 -0.0569,0.0926 -0.1089,0.188326 -0.15399,0.288211 -0.005,0.01075 -0.0107,0.0215 -0.0156,0.03225 -0.0468,0.107863 -0.0857,0.21954 -0.11792,0.334339 -0.006,0.02116 -0.0111,0.04231 -0.0163,0.06382 -0.0264,0.103701 -0.0472,0.209482 -0.0607,0.317692 -0.002,0.01318 -0.005,0.02601 -0.006,0.03919 -0.0108,0.09396 -0.017,0.188646 -0.017,0.285063 v 5.549198 c 0,1.436896 1.16429,2.601187 2.60118,2.601187 1.4369,0 2.60119,-1.164291 2.60119,-2.601187 v -2.948011 h 23.50918 l -27.76472,23.137378 c -3.5e-4,3.5e-4 -3.5e-4,3.5e-4 -7e-4,7e-4 l -0.0104,0.009 c -0.004,0.004 -0.008,0.008 -0.0118,0.0114 -0.0878,0.0742 -0.16925,0.15538 -0.24659,0.24035 -0.0163,0.018 -0.0333,0.0354 -0.0489,0.0538 -0.0753,0.0877 -0.14463,0.18 -0.20775,0.27711 -0.0118,0.018 -0.0222,0.0364 -0.0333,0.0548 -0.0569,0.0926 -0.1089,0.18833 -0.15399,0.28821 -0.005,0.0108 -0.0107,0.0215 -0.0156,0.0322 -0.0468,0.10786 -0.0857,0.21954 -0.11792,0.33434 -0.006,0.0212 -0.0111,0.0423 -0.0163,0.0638 -0.0264,0.1037 -0.0472,0.20948 -0.0607,0.31769 -0.002,0.0132 -0.005,0.026 -0.006,0.0392 -0.0108,0.094 -0.017,0.18864 -0.017,0.28506 v 5.5492 c 0,1.43689 1.16429,2.60118 2.60118,2.60118 1.4369,0 2.60119,-1.16429 2.60119,-2.60118 v -2.94802 h 23.50918 l -27.76472,23.13738 c -3.5e-4,3.5e-4 -3.5e-4,3.5e-4 -7e-4,7e-4 l -0.0104,0.009 c -0.004,0.003 -0.008,0.008 -0.0118,0.0114 -0.0878,0.0742 -0.16925,0.15538 -0.24659,0.24035 -0.0163,0.018 -0.0333,0.0354 -0.0489,0.0538 -0.0753,0.0877 -0.14463,0.18 -0.20775,0.27711 -0.0118,0.018 -0.0222,0.0364 -0.0333,0.0548 -0.0569,0.0926 -0.1089,0.18833 -0.15399,0.28821 -0.005,0.0108 -0.0107,0.0215 -0.0156,0.0323 -0.0468,0.10786 -0.0857,0.21954 -0.11792,0.33434 -0.006,0.0212 -0.0111,0.0423 -0.0163,0.0638 -0.0264,0.1037 -0.0472,0.20949 -0.0607,0.3177 -0.002,0.0132 -0.005,0.026 -0.006,0.0392 -0.0108,0.0936 -0.017,0.1883 -0.017,0.28472 v 5.5492 c 0,1.43689 1.16429,2.60118 2.60119,2.60118 1.43689,0 2.60119,-1.16429 2.60119,-2.60118 v -2.94802 h 27.56009 l -7.34853,39.19122 h -3.39056 c -1.43689,0 -2.60119,1.16429 -2.60119,2.60119 0,1.43689 1.1643,2.60118 2.60119,2.60118 h 8.3238 c 1.43689,0 2.60119,-1.16429 2.60119,-2.60118 0,-1.31621 -0.97805,-2.40107 -2.24674,-2.57414 l 1.20002,-6.40031 17.86703,-17.86668 15.36712,15.36781 1.11019,8.88115 c -1.35678,0.0884 -2.43021,1.21354 -2.43021,2.59251 0,1.4369 1.16429,2.60119 2.60119,2.60119 h 8.3238 c 1.43689,0 2.60118,-1.16429 2.60118,-2.60119 0,-1.43689 -1.16429,-2.60118 -2.60118,-2.60118 h -3.25287 l -4.89891,-39.19122 h 27.74738 v 2.94801 c 0,1.4369 1.1643,2.60119 2.60119,2.60119 1.4369,0 2.60119,-1.16429 2.60119,-2.60119 v -5.5492 c 0,-0.0964 -0.006,-0.1911 -0.0163,-0.28474 -10e-4,-0.0132 -0.005,-0.026 -0.006,-0.0392 -0.0135,-0.10821 -0.0343,-0.21399 -0.0607,-0.31769 -0.006,-0.0212 -0.0104,-0.0427 -0.0163,-0.0638 -0.0323,-0.1148 -0.0711,-0.22682 -0.11827,-0.33434 -0.005,-0.0108 -0.0104,-0.0212 -0.0153,-0.0319 -0.0454,-0.0999 -0.0971,-0.19596 -0.15434,-0.28856 -0.0111,-0.0184 -0.0215,-0.0368 -0.0333,-0.0548 -0.0631,-0.0971 -0.13249,-0.18937 -0.20775,-0.27711 -0.016,-0.0184 -0.0326,-0.0361 -0.0489,-0.0538 -0.0773,-0.085 -0.15885,-0.16613 -0.2466,-0.24035 -0.004,-0.003 -0.008,-0.008 -0.0118,-0.0114 l -0.0104,-0.009 c -3.5e-4,0 -3.5e-4,-3.4e-4 -7e-4,-6.9e-4 l -27.76453,-23.138 h 23.50917 v 2.94802 c 0,1.43689 1.1643,2.60118 2.60119,2.60118 1.4369,0 2.60119,-1.16429 2.60119,-2.60118 v -5.5492 c 0,-0.0964 -0.006,-0.1911 -0.0163,-0.28475 -10e-4,-0.0132 -0.005,-0.026 -0.006,-0.0392 -0.0135,-0.10821 -0.0343,-0.21399 -0.0607,-0.31769 -0.006,-0.0212 -0.0104,-0.0427 -0.0163,-0.0638 -0.0323,-0.1148 -0.0711,-0.22682 -0.11827,-0.33434 -0.005,-0.0108 -0.0104,-0.0212 -0.0153,-0.0319 -0.0454,-0.0999 -0.0971,-0.19595 -0.15434,-0.28856 -0.0111,-0.0184 -0.0215,-0.0368 -0.0333,-0.0548 -0.0631,-0.0971 -0.13249,-0.18936 -0.20775,-0.27711 -0.016,-0.0184 -0.0326,-0.0361 -0.0489,-0.0538 -0.0773,-0.085 -0.15885,-0.16613 -0.2466,-0.24035 -0.004,-0.004 -0.008,-0.008 -0.0118,-0.0114 l -0.0104,-0.009 c -3.5e-4,0 -3.5e-4,-3.5e-4 -7e-4,-6.9e-4 L 459.2788,85.731992 h 23.50917 v 2.948011 c 0,1.436896 1.1643,2.601187 2.60119,2.601187 z m -53.3989,-52.31819 2.55056,2.55055 -4.73694,4.736935 z m -1.36232,41.566618 7.59303,-7.593384 7.59304,7.593384 z m 15.18607,5.202374 -7.59304,7.593037 -7.59303,-7.593037 z M 430.62759,57.985999 h 15.18642 l -7.59304,7.593385 z m 16.01187,-11.730312 -4.74145,-4.741443 2.55298,-2.552978 z m -0.82926,6.527939 h -15.18157 l 7.59096,-7.590957 z m -11.26765,16.474183 -7.59339,7.593037 V 61.664771 Z m -3.5e-4,27.745992 -7.59304,7.593039 V 89.41111 Z m -3.91426,11.271809 7.59303,-7.59304 7.59304,7.59304 z m 15.18607,5.20237 -7.59304,7.59304 -7.59303,-7.59304 z m -11.27181,11.27181 -7.59304,7.59304 V 117.1571 Z m 3.67877,3.67877 7.59304,7.59304 h -15.18573 z m 7.5927,12.79541 -7.59374,7.59374 -7.59303,-7.59374 z m -3.91392,-16.47418 7.59303,-7.59303 v 15.18572 z m 0,-27.745989 7.59303,-7.593037 v 15.185726 z m -3.5e-4,-27.745992 7.59338,-7.593038 v 15.186075 z m -0.0645,-39.017802 0.91839,3.061423 -4.53404,4.534042 -4.53127,-4.531961 0.91909,-3.063504 z M 421.74679,60.93852 v 19.591098 h -23.50918 z m 0,27.745992 v 19.591098 h -23.50918 z m 0,27.745988 v 19.5911 h -23.50918 z m 0.30451,48.55549 3.94444,-21.03597 8.54577,8.54611 z m 19.84775,-12.48951 8.27351,-8.27351 2.36396,18.91132 z m 12.79611,-16.47488 v -19.5911 l 23.50918,19.5911 z m 0,-27.74599 V 88.684512 l 23.50918,19.591098 z m 0,-27.745992 V 60.93852 l 23.50918,19.591098 z"
         id="path1-83"
         style="stroke-width:0.346825;fill:#f9f9f9" /></g><g
       id="g38"
       transform="matrix(0.42638617,0,0,0.42638617,10.74624,92.945676)"><rect
         style="fill:#ffffff;stroke:#000000;stroke-width:1;stroke-linecap:round;stroke-linejoin:round;stroke-dasharray:none;-inkscape-stroke:none;paint-order:markers stroke fill"
         id="rect32"
         width="42.900024"
         height="48.825459"
         x="44.58316"
         y="250.43898" /><rect
         style="fill:#000000;stroke:#000000;stroke-width:1;stroke-linecap:round;stroke-linejoin:round;stroke-dasharray:none;-inkscape-stroke:none;paint-order:markers stroke fill"
         id="rect33"
         width="4.4747357"
         height="7.5060086"
         x="63.795807"
         y="261.1749" /><rect
         style="fill:#000000;stroke:#000000;stroke-width:1;stroke-linecap:round;stroke-linejoin:round;stroke-dasharray:none;-inkscape-stroke:none;paint-order:markers stroke fill"
         id="rect34"
         width="4.4747357"
         height="7.5060086"
         x="284.05377"
         y="-60.114971"
         transform="rotate(90)" /><rect
         style="fill:#000000;stroke:#000000;stroke-width:1;stroke-linecap:round;stroke-linejoin:round;stroke-dasharray:none;-inkscape-stroke:none;paint-order:markers stroke fill"
         id="rect35"
         width="4.4747357"
         height="7.5060086"
         x="284.05377"
         y="-79.457382"
         transform="rotate(90)" /><g
         id="g37"><rect
           style="fill:none;stroke:#000000;stroke-width:1;stroke-linecap:round;stroke-linejoin:round;stroke-dasharray:none;-inkscape-stroke:none;paint-order:markers stroke fill"
           id="rect36"
           width="6.4955845"
           height="9.9598961"
           x="78.524399"
           y="253.61649" /><rect
           style="fill:#000000;stroke:#000000;stroke-width:1;stroke-linecap:round;stroke-linejoin:round;stroke-dasharray:none;-inkscape-stroke:none;paint-order:markers stroke fill"
           id="rect37"
           width="3.7530043"
           height="2.5982337"
           x="79.895691"
           y="255.26331" /></g></g><g
       style="fill:#ffffff"
       id="g39"
       transform="matrix(0.2605755,0,0,0.2605755,-31.046882,35.839142)"><path
         d="m 485.38916,91.28119 c 1.4369,0 2.60119,-1.164291 2.60119,-2.601187 v -5.549198 c 0,-0.09642 -0.006,-0.191101 -0.0163,-0.284743 -10e-4,-0.01318 -0.005,-0.02601 -0.006,-0.03919 -0.0135,-0.10821 -0.0343,-0.213991 -0.0607,-0.317692 -0.006,-0.02116 -0.0104,-0.04266 -0.0163,-0.06382 -0.0323,-0.114799 -0.0711,-0.226823 -0.11827,-0.334339 -0.005,-0.01075 -0.0104,-0.02116 -0.0153,-0.03191 -0.0454,-0.09989 -0.0971,-0.195956 -0.15434,-0.288558 -0.0111,-0.01838 -0.0215,-0.03676 -0.0333,-0.0548 -0.0631,-0.09711 -0.13249,-0.189366 -0.20775,-0.277113 -0.016,-0.01838 -0.0326,-0.03607 -0.0489,-0.05376 -0.0773,-0.08497 -0.15885,-0.166129 -0.2466,-0.240349 -0.004,-0.0035 -0.008,-0.008 -0.0118,-0.01145 l -0.0104,-0.0087 c -3.5e-4,0 -3.5e-4,-3.47e-4 -7e-4,-6.94e-4 L 454.36082,53.887916 446.26176,26.891412 c -0.33017,-1.100129 -1.34256,-1.853779 -2.49159,-1.853779 h -11.09839 c -1.14904,0 -2.16142,0.75365 -2.49159,1.853779 l -8.09871,26.996157 -32.68305,27.235813 c -3.5e-4,3.47e-4 -3.5e-4,3.47e-4 -7e-4,6.94e-4 l -0.0104,0.0087 c -0.004,0.0035 -0.008,0.008 -0.0118,0.01144 -0.0878,0.07422 -0.16925,0.155377 -0.24659,0.24035 -0.0163,0.01803 -0.0333,0.03538 -0.0489,0.05376 -0.0753,0.08775 -0.14463,0.180003 -0.20775,0.277114 -0.0118,0.01803 -0.0222,0.03642 -0.0333,0.0548 -0.0569,0.0926 -0.1089,0.188326 -0.15399,0.288211 -0.005,0.01075 -0.0107,0.0215 -0.0156,0.03225 -0.0468,0.107863 -0.0857,0.21954 -0.11792,0.334339 -0.006,0.02116 -0.0111,0.04231 -0.0163,0.06382 -0.0264,0.103701 -0.0472,0.209482 -0.0607,0.317692 -0.002,0.01318 -0.005,0.02601 -0.006,0.03919 -0.0108,0.09396 -0.017,0.188646 -0.017,0.285063 v 5.549198 c 0,1.436896 1.16429,2.601187 2.60118,2.601187 1.4369,0 2.60119,-1.164291 2.60119,-2.601187 v -2.948011 h 23.50918 l -27.76472,23.137378 c -3.5e-4,3.5e-4 -3.5e-4,3.5e-4 -7e-4,7e-4 l -0.0104,0.009 c -0.004,0.004 -0.008,0.008 -0.0118,0.0114 -0.0878,0.0742 -0.16925,0.15538 -0.24659,0.24035 -0.0163,0.018 -0.0333,0.0354 -0.0489,0.0538 -0.0753,0.0877 -0.14463,0.18 -0.20775,0.27711 -0.0118,0.018 -0.0222,0.0364 -0.0333,0.0548 -0.0569,0.0926 -0.1089,0.18833 -0.15399,0.28821 -0.005,0.0108 -0.0107,0.0215 -0.0156,0.0322 -0.0468,0.10786 -0.0857,0.21954 -0.11792,0.33434 -0.006,0.0212 -0.0111,0.0423 -0.0163,0.0638 -0.0264,0.1037 -0.0472,0.20948 -0.0607,0.31769 -0.002,0.0132 -0.005,0.026 -0.006,0.0392 -0.0108,0.094 -0.017,0.18864 -0.017,0.28506 v 5.5492 c 0,1.43689 1.16429,2.60118 2.60118,2.60118 1.4369,0 2.60119,-1.16429 2.60119,-2.60118 v -2.94802 h 23.50918 l -27.76472,23.13738 c -3.5e-4,3.5e-4 -3.5e-4,3.5e-4 -7e-4,7e-4 l -0.0104,0.009 c -0.004,0.003 -0.008,0.008 -0.0118,0.0114 -0.0878,0.0742 -0.16925,0.15538 -0.24659,0.24035 -0.0163,0.018 -0.0333,0.0354 -0.0489,0.0538 -0.0753,0.0877 -0.14463,0.18 -0.20775,0.27711 -0.0118,0.018 -0.0222,0.0364 -0.0333,0.0548 -0.0569,0.0926 -0.1089,0.18833 -0.15399,0.28821 -0.005,0.0108 -0.0107,0.0215 -0.0156,0.0323 -0.0468,0.10786 -0.0857,0.21954 -0.11792,0.33434 -0.006,0.0212 -0.0111,0.0423 -0.0163,0.0638 -0.0264,0.1037 -0.0472,0.20949 -0.0607,0.3177 -0.002,0.0132 -0.005,0.026 -0.006,0.0392 -0.0108,0.0936 -0.017,0.1883 -0.017,0.28472 v 5.5492 c 0,1.43689 1.16429,2.60118 2.60119,2.60118 1.43689,0 2.60119,-1.16429 2.60119,-2.60118 v -2.94802 h 27.56009 l -7.34853,39.19122 h -3.39056 c -1.43689,0 -2.60119,1.16429 -2.60119,2.60119 0,1.43689 1.1643,2.60118 2.60119,2.60118 h 8.3238 c 1.43689,0 2.60119,-1.16429 2.60119,-2.60118 0,-1.31621 -0.97805,-2.40107 -2.24674,-2.57414 l 1.20002,-6.40031 17.86703,-17.86668 15.36712,15.36781 1.11019,8.88115 c -1.35678,0.0884 -2.43021,1.21354 -2.43021,2.59251 0,1.4369 1.16429,2.60119 2.60119,2.60119 h 8.3238 c 1.43689,0 2.60118,-1.16429 2.60118,-2.60119 0,-1.43689 -1.16429,-2.60118 -2.60118,-2.60118 h -3.25287 l -4.89891,-39.19122 h 27.74738 v 2.94801 c 0,1.4369 1.1643,2.60119 2.60119,2.60119 1.4369,0 2.60119,-1.16429 2.60119,-2.60119 v -5.5492 c 0,-0.0964 -0.006,-0.1911 -0.0163,-0.28474 -10e-4,-0.0132 -0.005,-0.026 -0.006,-0.0392 -0.0135,-0.10821 -0.0343,-0.21399 -0.0607,-0.31769 -0.006,-0.0212 -0.0104,-0.0427 -0.0163,-0.0638 -0.0323,-0.1148 -0.0711,-0.22682 -0.11827,-0.33434 -0.005,-0.0108 -0.0104,-0.0212 -0.0153,-0.0319 -0.0454,-0.0999 -0.0971,-0.19596 -0.15434,-0.28856 -0.0111,-0.0184 -0.0215,-0.0368 -0.0333,-0.0548 -0.0631,-0.0971 -0.13249,-0.18937 -0.20775,-0.27711 -0.016,-0.0184 -0.0326,-0.0361 -0.0489,-0.0538 -0.0773,-0.085 -0.15885,-0.16613 -0.2466,-0.24035 -0.004,-0.003 -0.008,-0.008 -0.0118,-0.0114 l -0.0104,-0.009 c -3.5e-4,0 -3.5e-4,-3.4e-4 -7e-4,-6.9e-4 l -27.76453,-23.138 h 23.50917 v 2.94802 c 0,1.43689 1.1643,2.60118 2.60119,2.60118 1.4369,0 2.60119,-1.16429 2.60119,-2.60118 v -5.5492 c 0,-0.0964 -0.006,-0.1911 -0.0163,-0.28475 -10e-4,-0.0132 -0.005,-0.026 -0.006,-0.0392 -0.0135,-0.10821 -0.0343,-0.21399 -0.0607,-0.31769 -0.006,-0.0212 -0.0104,-0.0427 -0.0163,-0.0638 -0.0323,-0.1148 -0.0711,-0.22682 -0.11827,-0.33434 -0.005,-0.0108 -0.0104,-0.0212 -0.0153,-0.0319 -0.0454,-0.0999 -0.0971,-0.19595 -0.15434,-0.28856 -0.0111,-0.0184 -0.0215,-0.0368 -0.0333,-0.0548 -0.0631,-0.0971 -0.13249,-0.18936 -0.20775,-0.27711 -0.016,-0.0184 -0.0326,-0.0361 -0.0489,-0.0538 -0.0773,-0.085 -0.15885,-0.16613 -0.2466,-0.24035 -0.004,-0.004 -0.008,-0.008 -0.0118,-0.0114 l -0.0104,-0.009 c -3.5e-4,0 -3.5e-4,-3.5e-4 -7e-4,-6.9e-4 L 459.2788,85.731992 h 23.50917 v 2.948011 c 0,1.436896 1.1643,2.601187 2.60119,2.601187 z m -53.3989,-52.31819 2.55056,2.55055 -4.73694,4.736935 z m -1.36232,41.566618 7.59303,-7.593384 7.59304,7.593384 z m 15.18607,5.202374 -7.59304,7.593037 -7.59303,-7.593037 z M 430.62759,57.985999 h 15.18642 l -7.59304,7.593385 z m 16.01187,-11.730312 -4.74145,-4.741443 2.55298,-2.552978 z m -0.82926,6.527939 h -15.18157 l 7.59096,-7.590957 z m -11.26765,16.474183 -7.59339,7.593037 V 61.664771 Z m -3.5e-4,27.745992 -7.59304,7.593039 V 89.41111 Z m -3.91426,11.271809 7.59303,-7.59304 7.59304,7.59304 z m 15.18607,5.20237 -7.59304,7.59304 -7.59303,-7.59304 z m -11.27181,11.27181 -7.59304,7.59304 V 117.1571 Z m 3.67877,3.67877 7.59304,7.59304 h -15.18573 z m 7.5927,12.79541 -7.59374,7.59374 -7.59303,-7.59374 z m -3.91392,-16.47418 7.59303,-7.59303 v 15.18572 z m 0,-27.745989 7.59303,-7.593037 v 15.185726 z m -3.5e-4,-27.745992 7.59338,-7.593038 v 15.186075 z m -0.0645,-39.017802 0.91839,3.061423 -4.53404,4.534042 -4.53127,-4.531961 0.91909,-3.063504 z M 421.74679,60.93852 v 19.591098 h -23.50918 z m 0,27.745992 v 19.591098 h -23.50918 z m 0,27.745988 v 19.5911 h -23.50918 z m 0.30451,48.55549 3.94444,-21.03597 8.54577,8.54611 z m 19.84775,-12.48951 8.27351,-8.27351 2.36396,18.91132 z m 12.79611,-16.47488 v -19.5911 l 23.50918,19.5911 z m 0,-27.74599 V 88.684512 l 23.50918,19.591098 z m 0,-27.745992 V 60.93852 l 23.50918,19.591098 z"
         id="path38"
         style="stroke-width:0.346825;fill:#ffffff" /></g><path
       style="fill:none;stroke:#f9f9f9;stroke-width:1;stroke-linecap:round;stroke-linejoin:round;stroke-dasharray:none;-inkscape-stroke:none;paint-order:markers stroke fill"
       d="M 94.294591,63.13638 143.08179,40.587673"
       id="path40" /><path
       style="fill:none;stroke:#f9f9f9;stroke-width:1;stroke-linecap:round;stroke-linejoin:round;stroke-dasharray:none;-inkscape-stroke:none;paint-order:markers stroke fill"
       d="m 82.405275,135.29224 42.637555,33.61807"
       id="path41" /><path
       style="fill:none;stroke:#f9f9f9;stroke-width:1;stroke-linecap:round;stroke-linejoin:round;stroke-dasharray:none;-inkscape-stroke:none;paint-order:markers stroke fill"
       d="m 181.61958,135.29224 -33.20809,33.61807"
       id="path42" /><path
       style="fill:none;stroke:#f9f9f9;stroke-width:1;stroke-linecap:round;stroke-linejoin:round;stroke-dasharray:none;-inkscape-stroke:none;paint-order:markers stroke fill"
       d="M 36.487907,56.576756 69.696001,71.335907"
       id="path43" /><path
       style="fill:none;stroke:#f9f9f9;stroke-width:1;stroke-linecap:round;stroke-linejoin:round;stroke-dasharray:none;-inkscape-stroke:none;paint-order:markers stroke fill"
       d="M 43.867485,124.63285 71.335907,72.155861"
       id="path44" /></g></svg>
