<?xml version="1.0" encoding="UTF-8" standalone="no"?>
<!-- Created with Inkscape (http://www.inkscape.org/) -->

<svg
   width="81.541183mm"
   height="53.037201mm"
   viewBox="0 0 81.541183 53.037201"
   version="1.1"
   id="svg1"
   inkscape:version="1.3 (0e150ed, 2023-07-21)"
   sodipodi:docname="frequency-meter.svg"
   xmlns:inkscape="http://www.inkscape.org/namespaces/inkscape"
   xmlns:sodipodi="http://sodipodi.sourceforge.net/DTD/sodipodi-0.dtd"
   xmlns:xlink="http://www.w3.org/1999/xlink"
   xmlns="http://www.w3.org/2000/svg"
   xmlns:svg="http://www.w3.org/2000/svg">
  <sodipodi:namedview
     id="namedview1"
     pagecolor="#8b8b8b"
     bordercolor="#000000"
     borderopacity="0.25"
     inkscape:showpageshadow="2"
     inkscape:pageopacity="0.0"
     inkscape:pagecheckerboard="0"
     inkscape:deskcolor="#d1d1d1"
     inkscape:document-units="mm"
     inkscape:zoom="0.80760636"
     inkscape:cx="40.242378"
     inkscape:cy="56.958442"
     inkscape:window-width="1512"
     inkscape:window-height="859"
     inkscape:window-x="294"
     inkscape:window-y="1118"
     inkscape:window-maximized="1"
     inkscape:current-layer="layer1" />
  <defs
     id="defs1">
    <linearGradient
       id="linearGradient4"
       inkscape:collect="always">
      <stop
         style="stop-color:#00ff00;stop-opacity:1"
         offset="0"
         id="stop4" />
      <stop
         style="stop-color:#ffff00;stop-opacity:1"
         offset="0.24232444"
         id="stop8" />
      <stop
         style="stop-color:#ff0000;stop-opacity:1"
         offset="0.5184468"
         id="stop6" />
    </linearGradient>
    <radialGradient
       inkscape:collect="always"
       xlink:href="#linearGradient4"
       id="radialGradient8"
       cx="115.38374"
       cy="93.398849"
       fx="115.38374"
       fy="93.398849"
       r="35.615166"
       gradientTransform="matrix(3.4872193,5.3515591e-8,0,2.2473225,-284.49349,-118.81147)"
       gradientUnits="userSpaceOnUse" />
  </defs>
  <g
     inkscape:label="Layer 1"
     inkscape:groupmode="layer"
     id="layer1"
     transform="translate(-76.820138,-78.034668)">
    <path
       id="path2"
       style="fill:url(#radialGradient8);stroke:#000000;stroke-width:1;stroke-linecap:round;stroke-linejoin:round;-inkscape-stroke:none;paint-order:markers stroke fill"
       d="M 117.24917,87.657699 A 35.115189,35.115189 0 0 0 82.134005,122.77287 H 93.3974 a 23.851538,23.851538 0 0 1 23.85177,-23.851776 23.851538,23.851538 0 0 1 23.85126,23.851776 h 11.26391 A 35.115189,35.115189 0 0 0 117.24917,87.657699 Z" />
    <path
       d="m 108.13725,82.439366 q 0,-0.253144 0.13501,-0.345963 0.13501,-0.101258 0.27846,-0.101258 0.19408,0 0.30377,0.126572 0.11814,0.118134 0.11814,0.286896 0,0.168763 -0.11814,0.295335 -0.10969,0.118134 -0.30377,0.118134 -0.0928,0 -0.14345,-0.01688 0.1097,0.388154 0.44722,0.666612 0.34597,0.278458 0.79319,0.278458 0.56535,0 0.90288,-0.548478 0.20251,-0.354402 0.20251,-1.156024 0,-0.708803 -0.15188,-1.063205 -0.23627,-0.54004 -0.71724,-0.54004 -0.68349,0 -1.08852,0.590669 -0.0506,0.07594 -0.1097,0.07594 -0.0844,0 -0.10126,-0.04219 -0.0169,-0.05063 -0.0169,-0.177201 v -2.497687 q 0,-0.202515 0.0844,-0.202515 0.0338,0 0.10126,0.02531 0.5316,0.236267 1.12227,0.236267 0.60754,0 1.14758,-0.244705 0.0422,-0.02531 0.0675,-0.02531 0.0844,0 0.0844,0.09282 0,0.03375 -0.0675,0.13501 -0.0675,0.09282 -0.21096,0.219391 -0.14345,0.126572 -0.32908,0.244706 -0.18564,0.118134 -0.45566,0.202515 -0.27002,0.07594 -0.56536,0.07594 -0.3544,0 -0.71724,-0.109696 v 1.645436 q 0.43878,-0.430345 1.07164,-0.430345 0.67505,0 1.13915,0.548479 0.4641,0.54004 0.4641,1.299472 0,0.793184 -0.54848,1.341662 -0.54848,0.540041 -1.29103,0.540041 -0.67506,0 -1.1054,-0.480974 -0.42191,-0.480973 -0.42191,-1.063204 z m 4.31237,-1.341663 q 0,-1.240405 0.31221,-1.915455 0.43878,-1.004138 1.46823,-1.004138 0.2194,0 0.44722,0.05907 0.22783,0.05907 0.51473,0.286896 0.29534,0.22783 0.47254,0.599108 0.33752,0.717241 0.33752,1.974522 0,1.231967 -0.31221,1.907018 -0.45566,0.978823 -1.46823,0.978823 -0.37972,0 -0.76787,-0.194077 -0.37972,-0.194077 -0.62443,-0.658174 -0.37971,-0.700365 -0.37971,-2.03359 z m 0.70036,-0.101257 q 0,1.274157 0.0928,1.780445 0.10126,0.548479 0.37972,0.784746 0.28689,0.236268 0.59911,0.236268 0.33752,0 0.61598,-0.253144 0.2869,-0.253144 0.37128,-0.801622 0.0928,-0.540041 0.0928,-1.746693 0,-1.1729 -0.0844,-1.645436 -0.10969,-0.548478 -0.40503,-0.76787 -0.29533,-0.219391 -0.59066,-0.219391 -0.1097,0 -0.22783,0.03375 -0.11814,0.03375 -0.2869,0.126571 -0.16876,0.09282 -0.30377,0.329088 -0.12658,0.236267 -0.18564,0.590669 -0.0675,0.455659 -0.0675,1.552616 z m 6.65021,2.801459 v -0.261582 h 0.20252 q 0.45566,0 0.55691,-0.07594 0.1097,-0.07594 0.1097,-0.320649 v -4.446895 q 0,-0.244706 -0.1097,-0.320649 -0.10125,-0.07594 -0.55691,-0.07594 h -0.20252 v -0.261582 q 0.29534,0.02531 1.24884,0.02531 0.94508,0 1.24041,-0.02531 v 0.261582 h -0.20252 q -0.45565,0 -0.56535,0.07594 -0.10126,0.07594 -0.10126,0.320649 v 1.974523 h 2.523 v -1.974523 q 0,-0.244706 -0.10969,-0.320649 -0.10126,-0.07594 -0.55692,-0.07594 h -0.20251 v -0.261582 q 0.29533,0.02531 1.24884,0.02531 0.94507,0 1.2404,-0.02531 v 0.261582 h -0.20251 q -0.45566,0 -0.56536,0.07594 -0.10125,0.07594 -0.10125,0.320649 v 4.446895 q 0,0.244706 0.10125,0.320649 0.1097,0.07594 0.56536,0.07594 h 0.20251 v 0.261582 q -0.29533,-0.02531 -1.24884,-0.02531 -0.94507,0 -1.2404,0.02531 v -0.261582 h 0.20251 q 0.45566,0 0.55692,-0.07594 0.10969,-0.07594 0.10969,-0.320649 v -2.21079 h -2.523 v 2.21079 q 0,0.244706 0.10126,0.320649 0.1097,0.07594 0.56535,0.07594 h 0.20252 v 0.261582 q -0.29533,-0.02531 -1.24884,-0.02531 -0.94507,0 -1.24041,0.02531 z m 6.47253,-0.118134 q 0,-0.05907 0.0759,-0.151886 l 2.35424,-3.181175 h -0.96195 q -0.66661,0 -0.886,0.244705 -0.21096,0.244706 -0.25315,0.928195 h -0.21095 l 0.0928,-1.358539 h 2.7002 q 0.0928,0 0.12657,0.0084 0.0422,0 0.0675,0.02531 0.0253,0.02532 0.0253,0.07594 0,0.05063 -0.0759,0.143449 l -2.3458,3.172737 h 0.9957 q 0.70036,0 0.93663,-0.286897 0.23627,-0.295334 0.29534,-1.08008 h 0.21095 l -0.14345,1.57793 h -2.78458 q -0.13501,0 -0.1772,-0.01688 -0.0422,-0.01688 -0.0422,-0.101258 z"
       id="text2"
       style="font-weight:500;font-size:8.43813px;font-family:'CMU Serif';-inkscape-font-specification:'CMU Serif Medium';text-align:justify;letter-spacing:0.186135px;fill:#ffffff;stroke-width:1.407;stroke-linecap:round;stroke-linejoin:round;paint-order:markers stroke fill"
       aria-label="50 Hz" />
    <path
       d="m 76.820138,129.49394 v -0.26158 l 2.590506,-3.95749 q 0.0675,-0.10125 0.168762,-0.10125 0.09282,0 0.109696,0.0422 0.02531,0.0337 0.02531,0.1772 v 3.83935 h 0.843813 v 0.26158 h -0.843813 v 0.73412 q 0,0.2447 0.101258,0.32065 0.101257,0.0759 0.54004,0.0759 h 0.177201 v 0.26158 q -0.345963,-0.0253 -1.147586,-0.0253 -0.793184,0 -1.139147,0.0253 v -0.26158 h 0.1772 q 0.438783,0 0.540041,-0.0759 0.101257,-0.076 0.101257,-0.32065 v -0.73412 z m 0.236267,-0.26158 h 2.058904 v -3.14743 z m 4.28705,-2.06735 q 0,-0.44722 0.126572,-0.75099 0.13501,-0.31221 0.413469,-0.61598 0.506287,-0.5316 1.240405,-0.5316 0.312211,0 0.590669,0.13501 0.278458,0.12657 0.54004,0.43034 0.27002,0.29533 0.430345,0.886 0.160324,0.58224 0.160324,1.3923 0,1.30791 -0.632859,2.13484 -0.63286,0.82694 -1.485111,0.82694 -0.540041,0 -0.86069,-0.24471 -0.312211,-0.2447 -0.312211,-0.66661 0,-0.21939 0.118134,-0.31221 0.126572,-0.0928 0.27002,-0.0928 0.151887,0 0.270021,0.10126 0.118133,0.10126 0.118133,0.28689 0,0.15189 -0.101257,0.27003 -0.09282,0.11813 -0.337525,0.11813 0.244705,0.30377 0.826936,0.30377 0.210954,0 0.421907,-0.0928 0.210953,-0.10126 0.438783,-0.33752 0.227829,-0.23627 0.362839,-0.73412 0.143449,-0.49785 0.143449,-1.19821 v -0.27002 q -0.337526,0.84381 -1.054767,0.84381 -0.708803,0 -1.198214,-0.54004 -0.489412,-0.54848 -0.489412,-1.34167 z m 0.759432,0.008 q 0,0.83538 0.151886,1.14759 0.261582,0.5316 0.784746,0.5316 0.514726,0 0.76787,-0.45566 0.261582,-0.4641 0.261582,-1.0632 0,-0.82694 -0.13501,-1.18978 -0.253144,-0.66661 -0.81006,-0.66661 -0.556917,0 -0.843813,0.5316 -0.177201,0.31221 -0.177201,1.16446 z m 6.565827,3.71278 v -0.26158 h 0.202515 q 0.455659,0 0.556917,-0.0759 0.109696,-0.076 0.109696,-0.32065 v -4.4469 q 0,-0.2447 -0.109696,-0.32065 -0.101258,-0.0759 -0.556917,-0.0759 h -0.202515 v -0.26158 q 0.295335,0.0253 1.248844,0.0253 0.94507,0 1.240405,-0.0253 v 0.26158 h -0.202515 q -0.455659,0 -0.565355,0.0759 -0.101258,0.076 -0.101258,0.32065 v 1.97452 h 2.523001 v -1.97452 q 0,-0.2447 -0.109695,-0.32065 -0.101258,-0.0759 -0.556917,-0.0759 h -0.202515 v -0.26158 q 0.295334,0.0253 1.248843,0.0253 0.945071,0 1.240405,-0.0253 v 0.26158 h -0.202515 q -0.455659,0 -0.565355,0.0759 -0.101257,0.076 -0.101257,0.32065 v 4.4469 q 0,0.2447 0.101257,0.32065 0.109696,0.0759 0.565355,0.0759 h 0.202515 v 0.26158 q -0.295334,-0.0253 -1.248843,-0.0253 -0.945071,0 -1.240405,0.0253 v -0.26158 h 0.202515 q 0.455659,0 0.556917,-0.0759 0.109695,-0.076 0.109695,-0.32065 v -2.21079 h -2.523001 v 2.21079 q 0,0.2447 0.101258,0.32065 0.109696,0.0759 0.565355,0.0759 h 0.202515 v 0.26158 q -0.295335,-0.0253 -1.248844,-0.0253 -0.94507,0 -1.240405,0.0253 z m 6.472526,-0.11813 q 0,-0.0591 0.07594,-0.15189 l 2.354238,-3.18117 h -0.961947 q -0.666612,0 -0.886003,0.2447 -0.210954,0.24471 -0.253144,0.9282 h -0.210953 l 0.09282,-1.35854 h 2.700202 q 0.09282,0 0.126572,0.008 0.04219,0 0.0675,0.0253 0.02531,0.0253 0.02531,0.0759 0,0.0506 -0.07594,0.14345 l -2.3458,3.17274 h 0.995699 q 0.700365,0 0.936633,-0.2869 0.236267,-0.29533 0.295334,-1.08008 h 0.210953 l -0.143448,1.57793 h -2.784583 q -0.13501,0 -0.177201,-0.0169 -0.04219,-0.0169 -0.04219,-0.10125 z"
       id="text3"
       style="font-weight:500;font-size:8.43813px;font-family:'CMU Serif';-inkscape-font-specification:'CMU Serif Medium';text-align:justify;letter-spacing:0.186135px;fill:#ffffff;stroke-width:1.407;stroke-linecap:round;stroke-linejoin:round;paint-order:markers stroke fill"
       aria-label="49 Hz" />
    <path
       d="m 137.07857,129.52769 q 0,-0.25314 0.13501,-0.34596 0.13501,-0.10126 0.27846,-0.10126 0.19407,0 0.30377,0.12657 0.11813,0.11814 0.11813,0.2869 0,0.16876 -0.11813,0.29533 -0.1097,0.11814 -0.30377,0.11814 -0.0928,0 -0.14345,-0.0169 0.10969,0.38816 0.44722,0.66661 0.34596,0.27846 0.79318,0.27846 0.56536,0 0.90288,-0.54848 0.20252,-0.3544 0.20252,-1.15602 0,-0.7088 -0.15189,-1.06321 -0.23627,-0.54004 -0.71724,-0.54004 -0.68349,0 -1.08852,0.59067 -0.0506,0.076 -0.10969,0.076 -0.0844,0 -0.10126,-0.0422 -0.0169,-0.0506 -0.0169,-0.1772 v -2.49769 q 0,-0.20252 0.0844,-0.20252 0.0338,0 0.10126,0.0253 0.5316,0.23627 1.12227,0.23627 0.60755,0 1.14759,-0.24471 0.0422,-0.0253 0.0675,-0.0253 0.0844,0 0.0844,0.0928 0,0.0337 -0.0675,0.13501 -0.0675,0.0928 -0.21095,0.21939 -0.14345,0.12657 -0.32909,0.2447 -0.18564,0.11814 -0.45566,0.20252 -0.27002,0.0759 -0.56535,0.0759 -0.35441,0 -0.71724,-0.1097 v 1.64544 q 0.43878,-0.43034 1.07164,-0.43034 0.67505,0 1.13915,0.54847 0.46409,0.54004 0.46409,1.29948 0,0.79318 -0.54848,1.34166 -0.54847,0.54004 -1.29103,0.54004 -0.67505,0 -1.10539,-0.48097 -0.42191,-0.48098 -0.42191,-1.06321 z m 4.73427,-3.45963 v -0.26158 q 1.01258,0 1.53574,-0.54004 0.14345,0 0.16876,0.0337 0.0253,0.0337 0.0253,0.18564 v 4.73379 q 0,0.25314 0.11813,0.32909 0.12657,0.0759 0.66661,0.0759 h 0.27002 v 0.26158 q -0.29533,-0.0253 -1.36697,-0.0253 -1.07165,0 -1.36698,0.0253 v -0.26158 h 0.27002 q 0.5316,0 0.65817,-0.0759 0.12657,-0.076 0.12657,-0.32909 v -4.37095 q -0.43878,0.21939 -1.10539,0.21939 z m 6.92867,4.81817 v -0.26158 h 0.20251 q 0.45566,0 0.55692,-0.0759 0.10969,-0.076 0.10969,-0.32065 v -4.4469 q 0,-0.2447 -0.10969,-0.32065 -0.10126,-0.0759 -0.55692,-0.0759 h -0.20251 v -0.26158 q 0.29533,0.0253 1.24884,0.0253 0.94507,0 1.2404,-0.0253 v 0.26158 h -0.20251 q -0.45566,0 -0.56536,0.0759 -0.10125,0.076 -0.10125,0.32065 v 1.97452 h 2.523 v -1.97452 q 0,-0.2447 -0.1097,-0.32065 -0.10125,-0.0759 -0.55691,-0.0759 h -0.20252 v -0.26158 q 0.29534,0.0253 1.24884,0.0253 0.94507,0 1.24041,-0.0253 v 0.26158 h -0.20252 q -0.45565,0 -0.56535,0.0759 -0.10126,0.076 -0.10126,0.32065 v 4.4469 q 0,0.2447 0.10126,0.32065 0.1097,0.0759 0.56535,0.0759 h 0.20252 v 0.26158 q -0.29534,-0.0253 -1.24884,-0.0253 -0.94507,0 -1.24041,0.0253 v -0.26158 h 0.20252 q 0.45566,0 0.55691,-0.0759 0.1097,-0.076 0.1097,-0.32065 v -2.21079 h -2.523 v 2.21079 q 0,0.2447 0.10125,0.32065 0.1097,0.0759 0.56536,0.0759 h 0.20251 v 0.26158 q -0.29533,-0.0253 -1.24884,-0.0253 -0.94507,0 -1.2404,0.0253 z m 6.47252,-0.11813 q 0,-0.0591 0.0759,-0.15189 l 2.35424,-3.18117 h -0.96194 q -0.66662,0 -0.88601,0.2447 -0.21095,0.24471 -0.25314,0.9282 h -0.21095 l 0.0928,-1.35854 h 2.7002 q 0.0928,0 0.12657,0.008 0.0422,0 0.0675,0.0253 0.0253,0.0253 0.0253,0.0759 0,0.0506 -0.076,0.14345 l -2.3458,3.17274 h 0.9957 q 0.70037,0 0.93664,-0.2869 0.23626,-0.29533 0.29533,-1.08008 h 0.21095 l -0.14344,1.57793 h -2.78459 q -0.13501,0 -0.1772,-0.0169 -0.0422,-0.0169 -0.0422,-0.10125 z"
       id="text4"
       style="font-weight:500;font-size:8.43813px;font-family:'CMU Serif';-inkscape-font-specification:'CMU Serif Medium';text-align:justify;letter-spacing:0.186135px;fill:#ffffff;stroke-width:1.407;stroke-linecap:round;stroke-linejoin:round;paint-order:markers stroke fill"
       aria-label="51 Hz" />
  </g>
</svg>
