<?xml version="1.0" encoding="UTF-8" standalone="no"?>
<!-- Created with Inkscape (http://www.inkscape.org/) -->

<svg
   width="143.59464mm"
   height="225.67543mm"
   viewBox="0 0 143.59464 225.67543"
   version="1.1"
   id="svg1"
   xml:space="preserve"
   inkscape:version="1.3 (0e150ed, 2023-07-21)"
   sodipodi:docname="market-flowchart.svg"
   xmlns:inkscape="http://www.inkscape.org/namespaces/inkscape"
   xmlns:sodipodi="http://sodipodi.sourceforge.net/DTD/sodipodi-0.dtd"
   xmlns="http://www.w3.org/2000/svg"
   xmlns:svg="http://www.w3.org/2000/svg"><sodipodi:namedview
     id="namedview1"
     pagecolor="#727272"
     bordercolor="#000000"
     borderopacity="0.25"
     inkscape:showpageshadow="2"
     inkscape:pageopacity="0.0"
     inkscape:pagecheckerboard="0"
     inkscape:deskcolor="#d1d1d1"
     inkscape:document-units="mm"
     inkscape:zoom="0.36973444"
     inkscape:cx="223.13312"
     inkscape:cy="102.77647"
     inkscape:window-width="1312"
     inkscape:window-height="449"
     inkscape:window-x="0"
     inkscape:window-y="38"
     inkscape:window-maximized="0"
     inkscape:current-layer="layer1" /><defs
     id="defs1" /><g
     inkscape:label="Layer 1"
     inkscape:groupmode="layer"
     id="layer1"
     transform="translate(-29.541607,-35.524712)"><g
       id="path18"><g
         id="g9"><path
           d="m 141.76537,200.9392 -2.8,7.7 -2.8,-7.7 c 1.631,1.4 3.962,1.4 5.6,0 z"
           style="color:#000000;fill:#ffffff;fill-rule:evenodd;-inkscape-stroke:none"
           id="path10" /><path
           d="m 105.24296,59.875064 -7.7,-2.8 7.7,-2.8 c -1.4,1.631 -1.4,3.962 0,5.6 z"
           style="color:#000000;fill:#ffffff;fill-rule:evenodd;-inkscape-stroke:none"
           id="path9" /></g><path
         style="color:#000000;fill:#ffffff;stroke-linecap:round;stroke-linejoin:round;-inkscape-stroke:none;paint-order:markers stroke fill"
         d="m 103.84375,56.574219 a 0.5,0.5 0 0 0 -0.5,0.5 0.5,0.5 0 0 0 0.5,0.5 h 34.62109 V 202.33984 a 0.5,0.5 0 0 0 0.5,0.5 0.5,0.5 0 0 0 0.5,-0.5 V 57.074219 a 0.50005,0.50005 0 0 0 -0.5,-0.5 z"
         id="path11" /></g><rect
       style="fill:#f2f2f2;fill-opacity:1;stroke-width:1;stroke-linecap:round;stroke-linejoin:round;-inkscape-stroke:none;paint-order:markers stroke fill"
       id="rect6"
       width="143.59464"
       height="49.734585"
       x="29.541607"
       y="211.46556"
       ry="11.218331" /><rect
       style="fill:#d3dfbd;fill-opacity:1;stroke-width:1;stroke-linecap:round;stroke-linejoin:round;-inkscape-stroke:none;paint-order:markers stroke fill"
       id="rect1"
       width="60.20504"
       height="44.873322"
       x="36.646549"
       y="35.524712"
       ry="11.218331" /><g
       id="text1"
       style="font-weight:500;font-size:8.57998px;font-family:'CMU Serif';-inkscape-font-specification:'CMU Serif Medium';text-align:center;letter-spacing:0.189265px;text-anchor:middle;stroke-width:1.43066;stroke-linecap:round;stroke-linejoin:round;paint-order:markers stroke fill"
       aria-label="Generation/&#10;Production"><path
         d="m 44.275641,55.03989 q -0.883737,-0.909478 -0.883737,-2.213634 0,-1.304157 0.883737,-2.205055 0.892318,-0.909478 2.102096,-0.909478 0.300299,0 0.557698,0.06864 0.2574,0.06864 0.463319,0.205919 0.20592,0.13728 0.308879,0.23166 0.11154,0.0858 0.2574,0.231659 l 0.428999,-0.634918 q 0.06864,-0.10296 0.137279,-0.10296 0.06864,0 0.07722,0.0429 0.01716,0.03432 0.01716,0.163019 v 2.033456 q 0,0.137279 -0.01716,0.171599 -0.01716,0.03432 -0.120119,0.03432 -0.0858,0 -0.10296,-0.02574 -0.01716,-0.02574 -0.03432,-0.12012 -0.1287,-0.926637 -0.652079,-1.475756 -0.514798,-0.557699 -1.218357,-0.557699 -0.205919,0 -0.437579,0.05148 -0.223079,0.0429 -0.557698,0.22308 -0.33462,0.171599 -0.592019,0.463318 -0.248819,0.28314 -0.437579,0.832259 -0.18018,0.549118 -0.18018,1.278417 0,0.720718 0.18018,1.278417 0.18876,0.549118 0.446159,0.840838 0.257399,0.283139 0.592019,0.463318 0.343199,0.18018 0.583438,0.23166 0.24024,0.0429 0.454739,0.0429 0.14586,0 0.317459,-0.02574 0.1716,-0.03432 0.428999,-0.1287 0.2574,-0.09438 0.420419,-0.317459 0.16302,-0.231659 0.16302,-0.566279 v -0.549118 q 0,-0.2574 -0.1287,-0.33462 -0.120119,-0.07722 -0.669238,-0.07722 h -0.274559 v -0.26598 q 0.308879,0.02574 1.381376,0.02574 0.09438,0 1.046758,-0.02574 v 0.26598 q -0.411839,0 -0.506219,0.06006 -0.0858,0.06006 -0.0858,0.31746 v 1.492916 q 0,0.19734 -0.07722,0.19734 -0.06864,0 -0.265979,-0.18876 -0.197339,-0.197339 -0.283139,-0.343199 -0.20592,0.360359 -0.652079,0.540539 -0.446159,0.188759 -0.952378,0.188759 -1.235517,0 -2.119255,-0.909478 z m 5.791979,-1.166877 q 0,-0.806518 0.514799,-1.381377 0.523379,-0.574858 1.269837,-0.574858 0.755038,0 1.141137,0.489059 0.394679,0.489058 0.394679,1.192617 0,0.128699 -0.03432,0.154439 -0.03432,0.02574 -0.180179,0.02574 h -2.393815 q 0,0.875158 0.2574,1.286997 0.360359,0.574859 0.969538,0.574859 0.0858,0 0.180179,-0.01716 0.10296,-0.01716 0.308879,-0.0858 0.20592,-0.07722 0.3861,-0.274559 0.180179,-0.19734 0.283139,-0.506219 0.02574,-0.12012 0.11154,-0.12012 0.111539,0 0.111539,0.10296 0,0.07722 -0.0858,0.248819 -0.07722,0.16302 -0.23166,0.36894 -0.15444,0.197339 -0.454739,0.351779 -0.300299,0.145859 -0.660658,0.145859 -0.755039,0 -1.321317,-0.566278 -0.566279,-0.574859 -0.566279,-1.415697 z m 0.720718,-0.274559 h 2.033456 q 0,-0.18018 -0.03432,-0.377519 -0.02574,-0.20592 -0.12012,-0.480479 -0.0858,-0.28314 -0.300299,-0.454739 -0.20592,-0.18018 -0.514799,-0.18018 -0.13728,0 -0.291719,0.06006 -0.14586,0.06006 -0.32604,0.20592 -0.180179,0.137279 -0.308879,0.463319 -0.12012,0.317459 -0.13728,0.763618 z m 3.312364,2.162155 v -0.26598 q 0.454739,0 0.557698,-0.05148 0.11154,-0.06006 0.11154,-0.334619 v -2.299434 q 0,-0.31746 -0.11154,-0.394679 -0.111539,-0.0858 -0.557698,-0.0858 v -0.26598 l 1.209777,-0.09438 v 0.900897 q 0.403259,-0.900897 1.269837,-0.900897 0.643498,0 0.900898,0.317459 0.188759,0.214499 0.223079,0.454739 0.0429,0.240239 0.0429,0.857998 v 1.638776 q 0.0086,0.180179 0.14586,0.223079 0.137279,0.03432 0.523379,0.03432 v 0.26598 q -0.875158,-0.02574 -0.960958,-0.02574 -0.06864,0 -0.969538,0.02574 v -0.26598 q 0.454739,0 0.557699,-0.05148 0.11154,-0.06006 0.11154,-0.334619 v -1.999135 q 0,-0.437579 -0.13728,-0.694978 -0.1287,-0.2574 -0.497639,-0.2574 -0.446159,0 -0.806518,0.377519 -0.351779,0.368939 -0.351779,0.995278 v 1.578716 q 0,0.27456 0.102959,0.334619 0.11154,0.05148 0.566279,0.05148 v 0.26598 q -0.875158,-0.02574 -0.960958,-0.02574 -0.06864,0 -0.969537,0.02574 z m 4.91682,-1.887596 q 0,-0.806518 0.514799,-1.381377 0.523379,-0.574858 1.269837,-0.574858 0.755038,0 1.141137,0.489059 0.394679,0.489058 0.394679,1.192617 0,0.128699 -0.03432,0.154439 -0.03432,0.02574 -0.180179,0.02574 h -2.393814 q 0,0.875158 0.257399,1.286997 0.360359,0.574859 0.969538,0.574859 0.0858,0 0.180179,-0.01716 0.10296,-0.01716 0.308879,-0.0858 0.20592,-0.07722 0.3861,-0.274559 0.180179,-0.19734 0.283139,-0.506219 0.02574,-0.12012 0.11154,-0.12012 0.111539,0 0.111539,0.10296 0,0.07722 -0.0858,0.248819 -0.07722,0.16302 -0.23166,0.36894 -0.15444,0.197339 -0.454739,0.351779 -0.300299,0.145859 -0.660658,0.145859 -0.755038,0 -1.321317,-0.566278 -0.566279,-0.574859 -0.566279,-1.415697 z m 0.720718,-0.274559 h 2.033456 q 0,-0.18018 -0.03432,-0.377519 -0.02574,-0.20592 -0.12012,-0.480479 -0.0858,-0.28314 -0.300299,-0.454739 -0.20592,-0.18018 -0.514799,-0.18018 -0.13728,0 -0.291719,0.06006 -0.14586,0.06006 -0.32604,0.20592 -0.180179,0.137279 -0.308879,0.463319 -0.12012,0.317459 -0.13728,0.763618 z m 3.278044,2.162155 v -0.26598 q 0.454739,0 0.557699,-0.05148 0.11154,-0.06006 0.11154,-0.334619 v -2.299434 q 0,-0.31746 -0.11154,-0.394679 -0.11154,-0.0858 -0.557699,-0.0858 v -0.26598 l 1.192618,-0.09438 v 0.943797 q 0.120119,-0.368939 0.377519,-0.652078 0.257399,-0.291719 0.677818,-0.291719 0.274559,0 0.454739,0.154439 0.18018,0.15444 0.18018,0.368939 0,0.18876 -0.12012,0.28314 -0.11154,0.09438 -0.24882,0.09438 -0.154439,0 -0.265979,-0.09438 -0.10296,-0.10296 -0.10296,-0.27456 0,-0.102959 0.0429,-0.180179 0.05148,-0.0858 0.0858,-0.11154 0.0429,-0.03432 0.06864,-0.0429 -0.01716,-0.0086 -0.09438,-0.0086 -0.471899,0 -0.746458,0.471899 -0.26598,0.471899 -0.26598,1.141137 v 1.321317 q 0,0.24882 0.10296,0.326039 0.10296,0.07722 0.549119,0.07722 h 0.180179 v 0.26598 q -0.343199,-0.02574 -1.089657,-0.02574 -0.10296,0 -0.265979,0.0086 -0.16302,0 -0.377519,0.0086 -0.2145,0.0086 -0.33462,0.0086 z m 3.664147,-0.815098 q 0,-0.729299 0.857998,-1.115398 0.514799,-0.248819 1.578717,-0.308879 v -0.317459 q 0,-0.531959 -0.28314,-0.815098 -0.274559,-0.28314 -0.626338,-0.28314 -0.626339,0 -0.926638,0.394679 0.257399,0.0086 0.343199,0.13728 0.09438,0.1287 0.09438,0.257399 0,0.1716 -0.11154,0.28314 -0.10296,0.111539 -0.283139,0.111539 -0.1716,0 -0.283139,-0.102959 -0.11154,-0.11154 -0.11154,-0.3003 0,-0.420419 0.377519,-0.694978 0.377519,-0.274559 0.918058,-0.274559 0.703558,0 1.175457,0.471899 0.14586,0.145859 0.214499,0.334619 0.07722,0.188759 0.0858,0.317459 0.0086,0.12012 0.0086,0.360359 v 1.715996 q 0,0.05148 0.01716,0.13728 0.01716,0.07722 0.09438,0.188759 0.07722,0.10296 0.20592,0.10296 0.308879,0 0.308879,-0.549119 v -0.480478 h 0.214499 v 0.480478 q 0,0.454739 -0.240239,0.634919 -0.24024,0.18018 -0.463319,0.18018 -0.283139,0 -0.463319,-0.20592 -0.18018,-0.214499 -0.205919,-0.497639 -0.1287,0.326039 -0.428999,0.540539 -0.29172,0.205919 -0.694979,0.205919 -0.308879,0 -0.600598,-0.07722 -0.29172,-0.07722 -0.531959,-0.29172 -0.24024,-0.214499 -0.24024,-0.540538 z m 0.660659,-0.0086 q 0,0.317459 0.223079,0.523378 0.23166,0.20592 0.549119,0.20592 0.360359,0 0.677818,-0.274559 0.32604,-0.28314 0.32604,-0.832259 v -0.857998 q -0.952378,0.03432 -1.364217,0.41184 -0.411839,0.377519 -0.411839,0.823678 z m 3.62124,-2.608314 v -0.18876 q 0.394679,-0.01716 0.652079,-0.291719 0.265979,-0.283139 0.351779,-0.626339 0.09438,-0.343199 0.10296,-0.737878 h 0.214499 v 1.578716 h 1.226937 v 0.26598 h -1.226937 v 2.385234 q 0,0.926638 0.574859,0.926638 0.248819,0 0.411839,-0.248819 0.16302,-0.2574 0.16302,-0.712139 v -0.471899 h 0.214499 v 0.489059 q 0,0.463319 -0.214499,0.815098 -0.2145,0.343199 -0.634919,0.343199 -0.15444,0 -0.308879,-0.0429 -0.15444,-0.03432 -0.351779,-0.13728 -0.19734,-0.10296 -0.32604,-0.351779 -0.120119,-0.2574 -0.120119,-0.626339 v -2.368074 z m 3.638406,3.431992 v -0.26598 q 0.454739,0 0.557698,-0.05148 0.11154,-0.06006 0.11154,-0.334619 v -2.308014 q 0,-0.31746 -0.11154,-0.394679 -0.102959,-0.07722 -0.523378,-0.07722 v -0.26598 l 1.201197,-0.09438 v 3.148852 q 0,0.2574 0.0858,0.317459 0.09438,0.06006 0.514798,0.06006 v 0.26598 q -0.875157,-0.02574 -0.892317,-0.02574 -0.12012,0 -0.943798,0.02574 z m 0.360359,-5.285268 q 0,-0.1716 0.1287,-0.308879 0.137279,-0.14586 0.326039,-0.14586 0.188759,0 0.317459,0.1287 0.13728,0.1287 0.13728,0.326039 0,0.19734 -0.13728,0.326039 -0.1287,0.1287 -0.317459,0.1287 -0.19734,0 -0.326039,-0.13728 -0.1287,-0.137279 -0.1287,-0.317459 z m 2.728924,4.821949 q -0.566278,-0.557699 -0.566278,-1.372797 0,-0.815098 0.549118,-1.407117 0.557699,-0.600598 1.355637,-0.600598 0.780778,0 1.338477,0.592018 0.557699,0.592019 0.557699,1.415697 0,0.806518 -0.566279,1.372797 -0.557699,0.557698 -1.338477,0.557698 -0.763618,0 -1.329897,-0.557698 z m 0.14586,-1.441437 q 0,0.832258 0.214499,1.209777 0.33462,0.574859 0.978118,0.574859 0.317459,0 0.583439,-0.1716 0.265979,-0.171599 0.411839,-0.463319 0.188759,-0.377519 0.188759,-1.149717 0,-0.823678 -0.223079,-1.192617 -0.334619,-0.557699 -0.969538,-0.557699 -0.274559,0 -0.549119,0.14586 -0.265979,0.14586 -0.428999,0.428999 -0.205919,0.377519 -0.205919,1.175457 z m 3.801422,1.904756 v -0.26598 q 0.454739,0 0.557699,-0.05148 0.111539,-0.06006 0.111539,-0.334619 v -2.299434 q 0,-0.31746 -0.111539,-0.394679 -0.11154,-0.0858 -0.557699,-0.0858 v -0.26598 l 1.209777,-0.09438 v 0.900897 q 0.403259,-0.900897 1.269837,-0.900897 0.643499,0 0.900898,0.317459 0.188759,0.214499 0.223079,0.454739 0.0429,0.240239 0.0429,0.857998 v 1.638776 q 0.0086,0.180179 0.14586,0.223079 0.13728,0.03432 0.523379,0.03432 v 0.26598 q -0.875158,-0.02574 -0.960958,-0.02574 -0.06864,0 -0.969538,0.02574 v -0.26598 q 0.454739,0 0.557699,-0.05148 0.11154,-0.06006 0.11154,-0.334619 v -1.999135 q 0,-0.437579 -0.13728,-0.694978 -0.1287,-0.2574 -0.497639,-0.2574 -0.446159,0 -0.806518,0.377519 -0.351779,0.368939 -0.351779,0.995278 v 1.578716 q 0,0.27456 0.10296,0.334619 0.111539,0.05148 0.566278,0.05148 v 0.26598 q -0.875158,-0.02574 -0.960957,-0.02574 -0.06864,0 -0.969538,0.02574 z m 5.165641,2.024875 q 0,-0.0429 0.03432,-0.13728 l 3.028733,-8.090921 q 0,-0.0086 0.01716,-0.05148 0.02574,-0.05148 0.03432,-0.07722 0.01716,-0.03432 0.0429,-0.06006 0.02574,-0.02574 0.06006,-0.02574 0.0858,0 0.0858,0.102959 0,0.0086 -0.02574,0.11154 l -3.037313,8.099501 q -0.05148,0.14586 -0.0858,0.18876 -0.02574,0.0429 -0.07722,0.0429 -0.07722,0 -0.07722,-0.10296 z"
         id="path26" /><path
         d="m 45.395827,66.485584 v -0.26598 h 0.205919 q 0.463319,0 0.566279,-0.07722 0.11154,-0.07722 0.11154,-0.326039 v -4.521649 q 0,-0.24882 -0.11154,-0.32604 -0.10296,-0.07722 -0.566279,-0.07722 h -0.205919 v -0.26598 h 3.028733 q 0.866578,0 1.441436,0.480479 0.583439,0.471899 0.583439,1.115398 0,0.634918 -0.592019,1.098237 -0.583438,0.454739 -1.364217,0.454739 h -1.450016 v 2.042035 q 0,0.24882 0.10296,0.326039 0.111539,0.07722 0.574858,0.07722 h 0.20592 v 0.26598 q -0.300299,-0.02574 -1.269837,-0.02574 -0.960958,0 -1.261257,0.02574 z m 1.621616,-2.934354 h 1.184037 q 0.386099,0 0.660659,-0.102959 0.283139,-0.11154 0.411839,-0.24024 0.128699,-0.137279 0.197339,-0.351779 0.07722,-0.214499 0.0858,-0.334619 0.0086,-0.12012 0.0086,-0.300299 0,-0.18876 -0.0086,-0.30888 -0.0086,-0.120119 -0.0858,-0.334619 -0.06864,-0.214499 -0.197339,-0.343199 -0.1287,-0.13728 -0.411839,-0.24024 -0.27456,-0.102959 -0.660659,-0.102959 h -0.763618 q -0.291719,0 -0.360359,0.06006 -0.06006,0.06006 -0.06006,0.283139 z m 4.341961,2.934354 v -0.26598 q 0.454739,0 0.557699,-0.05148 0.11154,-0.06006 0.11154,-0.334619 V 63.53407 q 0,-0.317459 -0.11154,-0.394679 -0.11154,-0.0858 -0.557699,-0.0858 v -0.26598 l 1.192617,-0.09438 v 0.943798 q 0.12012,-0.368939 0.37752,-0.652078 0.257399,-0.29172 0.677818,-0.29172 0.274559,0 0.454739,0.15444 0.180179,0.15444 0.180179,0.368939 0,0.18876 -0.120119,0.28314 -0.11154,0.09438 -0.24882,0.09438 -0.154439,0 -0.265979,-0.09438 -0.10296,-0.10296 -0.10296,-0.27456 0,-0.10296 0.0429,-0.180179 0.05148,-0.0858 0.0858,-0.11154 0.0429,-0.03432 0.06864,-0.0429 -0.01716,-0.0086 -0.09438,-0.0086 -0.471899,0 -0.746458,0.471899 -0.26598,0.471899 -0.26598,1.141137 v 1.321317 q 0,0.24882 0.10296,0.326039 0.10296,0.07722 0.549119,0.07722 h 0.180179 v 0.26598 q -0.343199,-0.02574 -1.089657,-0.02574 -0.10296,0 -0.265979,0.0086 -0.16302,0 -0.37752,0.0086 -0.214499,0.0086 -0.334619,0.0086 z m 4.110306,-0.463319 q -0.566279,-0.557699 -0.566279,-1.372797 0,-0.815098 0.549119,-1.407117 0.557698,-0.600598 1.355637,-0.600598 0.780778,0 1.338476,0.592018 0.557699,0.592019 0.557699,1.415697 0,0.806518 -0.566279,1.372797 -0.557698,0.557698 -1.338476,0.557698 -0.763619,0 -1.329897,-0.557698 z m 0.145859,-1.441437 q 0,0.832258 0.2145,1.209777 0.334619,0.574859 0.978118,0.574859 0.317459,0 0.583438,-0.1716 0.26598,-0.171599 0.411839,-0.463319 0.18876,-0.377519 0.18876,-1.149717 0,-0.823678 -0.22308,-1.192617 -0.334619,-0.557699 -0.969537,-0.557699 -0.27456,0 -0.549119,0.14586 -0.265979,0.145859 -0.428999,0.428999 -0.20592,0.377519 -0.20592,1.175457 z m 4.05882,0.06006 q 0,-0.815098 0.566278,-1.381377 0.574859,-0.566279 1.347057,-0.566279 0.652079,0 1.081078,0.531959 v -1.853275 q 0,-0.31746 -0.11154,-0.39468 -0.11154,-0.0858 -0.557699,-0.0858 v -0.26598 l 1.235517,-0.09438 v 5.208048 q 0,0.31746 0.11154,0.403259 0.11154,0.07722 0.557699,0.07722 v 0.26598 l -1.261257,0.09438 v -0.566278 q -0.446159,0.566278 -1.149718,0.566278 -0.737878,0 -1.278417,-0.566278 -0.540538,-0.566279 -0.540538,-1.372797 z m 0.712138,0.0086 q 0,0.797938 0.248819,1.192617 0.3432,0.549119 0.900898,0.549119 0.634919,0 1.012438,-0.600599 0.09438,-0.145859 0.09438,-0.317459 V 63.71425 q 0,-0.1716 -0.09438,-0.317459 -0.351779,-0.514799 -0.926638,-0.514799 -0.600599,0 -0.969538,0.549119 -0.265979,0.411839 -0.265979,1.218357 z m 4.221841,-1.595876 v -0.26598 l 1.261257,-0.09438 v 2.848554 q 0,0.205919 0.01716,0.326039 0.01716,0.12012 0.0858,0.257399 0.06864,0.13728 0.231659,0.20592 0.16302,0.06006 0.420419,0.06006 0.463319,0 0.746459,-0.377519 0.291719,-0.386099 0.291719,-0.952378 V 63.53407 q 0,-0.317459 -0.11154,-0.394679 -0.11154,-0.0858 -0.557699,-0.0858 v -0.26598 l 1.261258,-0.09438 v 3.045893 q 0,0.31746 0.111539,0.403259 0.11154,0.07722 0.557699,0.07722 v 0.26598 l -1.235517,0.09438 v -0.772198 q -0.360359,0.772198 -1.106818,0.772198 -0.377519,0 -0.634918,-0.09438 -0.257399,-0.09438 -0.386099,-0.2145 -0.1287,-0.12012 -0.19734,-0.351779 -0.06864,-0.23166 -0.07722,-0.368939 -0.0086,-0.14586 -0.0086,-0.420419 V 63.84295 q 0,-0.583439 -0.0858,-0.686399 -0.0858,-0.102959 -0.583439,-0.102959 z m 5.50884,2.960093 q -0.540539,-0.566279 -0.540539,-1.381377 0,-0.815098 0.531959,-1.398537 0.540539,-0.592018 1.329897,-0.592018 0.523379,0 0.918058,0.248819 0.394679,0.248819 0.394679,0.669238 0,0.18876 -0.11154,0.3003 -0.11154,0.102959 -0.283139,0.102959 -0.18018,0 -0.291719,-0.111539 -0.10296,-0.11154 -0.10296,-0.28314 0,-0.07722 0.02574,-0.145859 0.02574,-0.07722 0.120119,-0.15444 0.09438,-0.0858 0.2574,-0.09438 -0.308879,-0.317459 -0.918058,-0.317459 -0.437579,0 -0.797938,0.411839 -0.360359,0.411839 -0.360359,1.347057 0,0.489059 0.120119,0.849418 0.12012,0.360359 0.31746,0.549119 0.197339,0.180179 0.386099,0.265979 0.197339,0.0858 0.386099,0.0858 0.840838,0 1.123977,-0.900898 0.02574,-0.0858 0.11154,-0.0858 0.11154,0 0.11154,0.0858 0,0.0429 -0.03432,0.15444 -0.03432,0.102959 -0.13728,0.274559 -0.10296,0.1716 -0.257399,0.326039 -0.14586,0.14586 -0.411839,0.2574 -0.2574,0.102959 -0.583439,0.102959 -0.755038,0 -1.304157,-0.566278 z m 3.329522,-2.960093 v -0.18876 q 0.394679,-0.01716 0.652078,-0.291719 0.26598,-0.28314 0.35178,-0.626339 0.09438,-0.343199 0.102959,-0.737878 h 0.2145 v 1.578716 h 1.226937 v 0.26598 h -1.226937 v 2.385234 q 0,0.926638 0.574858,0.926638 0.24882,0 0.411839,-0.24882 0.16302,-0.257399 0.16302,-0.712138 v -0.471899 h 0.2145 v 0.489059 q 0,0.463319 -0.2145,0.815098 -0.214499,0.343199 -0.634918,0.343199 -0.15444,0 -0.30888,-0.0429 -0.154439,-0.03432 -0.351779,-0.137279 -0.197339,-0.10296 -0.326039,-0.351779 -0.12012,-0.2574 -0.12012,-0.626339 v -2.368074 z m 3.638405,3.431992 v -0.26598 q 0.454739,0 0.557699,-0.05148 0.11154,-0.06006 0.11154,-0.334619 V 63.52549 q 0,-0.317459 -0.11154,-0.394679 -0.10296,-0.07722 -0.523379,-0.07722 v -0.26598 l 1.201197,-0.09438 v 3.148853 q 0,0.257399 0.0858,0.317459 0.09438,0.06006 0.514799,0.06006 v 0.26598 q -0.875158,-0.02574 -0.892318,-0.02574 -0.12012,0 -0.943798,0.02574 z m 0.36036,-5.285268 q 0,-0.1716 0.128699,-0.308879 0.13728,-0.14586 0.326039,-0.14586 0.18876,0 0.31746,0.1287 0.137279,0.128699 0.137279,0.326039 0,0.197339 -0.137279,0.326039 -0.1287,0.1287 -0.31746,0.1287 -0.197339,0 -0.326039,-0.13728 -0.128699,-0.137279 -0.128699,-0.317459 z m 2.728928,4.821949 q -0.566279,-0.557699 -0.566279,-1.372797 0,-0.815098 0.549119,-1.407117 0.557698,-0.600598 1.355636,-0.600598 0.780779,0 1.338477,0.592018 0.557699,0.592019 0.557699,1.415697 0,0.806518 -0.566279,1.372797 -0.557698,0.557698 -1.338477,0.557698 -0.763618,0 -1.329896,-0.557698 z m 0.145859,-1.441437 q 0,0.832258 0.2145,1.209777 0.334619,0.574859 0.978117,0.574859 0.31746,0 0.583439,-0.1716 0.265979,-0.171599 0.411839,-0.463319 0.18876,-0.377519 0.18876,-1.149717 0,-0.823678 -0.22308,-1.192617 -0.334619,-0.557699 -0.969538,-0.557699 -0.274559,0 -0.549118,0.14586 -0.26598,0.145859 -0.428999,0.428999 -0.20592,0.377519 -0.20592,1.175457 z m 3.801418,1.904756 v -0.26598 q 0.454739,0 0.557699,-0.05148 0.11154,-0.06006 0.11154,-0.334619 V 63.53407 q 0,-0.317459 -0.11154,-0.394679 -0.11154,-0.0858 -0.557699,-0.0858 v -0.26598 l 1.209778,-0.09438 v 0.900898 q 0.403259,-0.900898 1.269837,-0.900898 0.643498,0 0.900898,0.31746 0.188759,0.214499 0.223079,0.454739 0.0429,0.240239 0.0429,0.857998 v 1.638776 q 0.0086,0.180179 0.14586,0.223079 0.137279,0.03432 0.523378,0.03432 v 0.26598 q -0.875158,-0.02574 -0.960957,-0.02574 -0.06864,0 -0.969538,0.02574 v -0.26598 q 0.454739,0 0.557699,-0.05148 0.111539,-0.06006 0.111539,-0.334619 V 63.83437 q 0,-0.437579 -0.137279,-0.694979 -0.1287,-0.257399 -0.497639,-0.257399 -0.446159,0 -0.806518,0.377519 -0.35178,0.368939 -0.35178,0.995278 v 1.578716 q 0,0.274559 0.10296,0.334619 0.11154,0.05148 0.566279,0.05148 v 0.26598 q -0.875158,-0.02574 -0.960958,-0.02574 -0.06864,0 -0.969538,0.02574 z"
         id="path27" /></g><rect
       style="fill:#d9d9d9;fill-opacity:1;stroke-width:1;stroke-linecap:round;stroke-linejoin:round;-inkscape-stroke:none;paint-order:markers stroke fill"
       id="rect2"
       width="60.20504"
       height="44.873322"
       x="36.646549"
       y="93.88826"
       ry="11.218331" /><rect
       style="fill:#d9d9d9;fill-opacity:1;stroke-width:1;stroke-linecap:round;stroke-linejoin:round;-inkscape-stroke:none;paint-order:markers stroke fill"
       id="rect3"
       width="60.20504"
       height="44.873322"
       x="36.646549"
       y="152.90791"
       ry="11.218331" /><rect
       style="fill:#ffeeaa;stroke-width:1;stroke-linecap:round;stroke-linejoin:round;-inkscape-stroke:none;paint-order:markers stroke fill"
       id="rect4"
       width="60.205044"
       height="38.142353"
       x="36.646549"
       y="217.26167"
       ry="7.10495" /><rect
       style="fill:#ffaaaa;stroke-width:1;stroke-linecap:round;stroke-linejoin:round;-inkscape-stroke:none;paint-order:markers stroke fill"
       id="rect5"
       width="60.205044"
       height="38.142353"
       x="105.82626"
       y="217.26167"
       ry="7.10495" /><path
       d="m 41.628716,115.30389 0.16302,-1.9305 h 5.242368 l 0.163019,1.9305 h -0.214499 q -0.03432,-0.3861 -0.06864,-0.60918 -0.02574,-0.22308 -0.10296,-0.429 -0.06864,-0.2145 -0.163019,-0.31746 -0.0858,-0.10296 -0.2574,-0.18018 -0.171599,-0.0858 -0.394679,-0.10296 -0.223079,-0.0257 -0.557699,-0.0257 -0.394679,0 -0.489058,0.0172 -0.10296,0.0257 -0.1287,0.10296 -0.02574,0.0686 -0.02574,0.22308 v 4.52165 q 0,0.1716 0.03432,0.24024 0.03432,0.0686 0.231659,0.12012 0.19734,0.0515 0.634919,0.0515 h 0.343199 v 0.26598 q -0.351779,-0.0257 -1.630196,-0.0257 -1.269837,0 -1.621616,0.0257 v -0.26598 h 0.343199 q 0.437579,0 0.634918,-0.0515 0.19734,-0.0515 0.23166,-0.12012 0.03432,-0.0686 0.03432,-0.24024 v -4.52165 q 0,-0.12012 -0.0086,-0.1716 -0.0086,-0.0515 -0.05148,-0.0944 -0.03432,-0.0429 -0.12012,-0.0601 -0.0858,-0.0172 -0.463319,-0.0172 -0.334619,0 -0.557698,0.0257 -0.22308,0.0172 -0.394679,0.10296 -0.1716,0.0772 -0.26598,0.18018 -0.0858,0.10296 -0.163019,0.31746 -0.06864,0.20592 -0.10296,0.429 -0.02574,0.22308 -0.06006,0.60918 z m 5.603216,3.87815 v -0.26598 q 0.454738,0 0.557698,-0.0515 0.11154,-0.0601 0.11154,-0.33462 v -2.29944 q 0,-0.31745 -0.11154,-0.39467 -0.111539,-0.0858 -0.557698,-0.0858 v -0.26598 l 1.192617,-0.0944 v 0.94379 q 0.120119,-0.36894 0.377519,-0.65207 0.257399,-0.29172 0.677818,-0.29172 0.27456,0 0.454739,0.15444 0.18018,0.15444 0.18018,0.36894 0,0.18875 -0.12012,0.28313 -0.11154,0.0944 -0.248819,0.0944 -0.15444,0 -0.26598,-0.0944 -0.102959,-0.10296 -0.102959,-0.27456 0,-0.10295 0.0429,-0.18017 0.05148,-0.0858 0.0858,-0.11154 0.0429,-0.0343 0.06864,-0.0429 -0.01716,-0.009 -0.09438,-0.009 -0.471899,0 -0.746458,0.47189 -0.265979,0.4719 -0.265979,1.14114 v 1.32132 q 0,0.24882 0.102959,0.32604 0.10296,0.0772 0.549119,0.0772 h 0.18018 v 0.26598 q -0.343199,-0.0257 -1.089658,-0.0257 -0.102959,0 -0.265979,0.009 -0.16302,0 -0.377519,0.009 -0.2145,0.009 -0.334619,0.009 z m 3.664147,-0.8151 q 0,-0.7293 0.857998,-1.1154 0.514798,-0.24882 1.578716,-0.30888 v -0.31746 q 0,-0.53196 -0.283139,-0.81509 -0.27456,-0.28314 -0.626339,-0.28314 -0.626339,0 -0.926638,0.39467 0.2574,0.009 0.343199,0.13728 0.09438,0.1287 0.09438,0.2574 0,0.1716 -0.11154,0.28314 -0.102959,0.11154 -0.283139,0.11154 -0.1716,0 -0.283139,-0.10296 -0.11154,-0.11154 -0.11154,-0.3003 0,-0.42041 0.377519,-0.69497 0.377519,-0.27456 0.918058,-0.27456 0.703558,0 1.175457,0.4719 0.14586,0.14585 0.2145,0.33461 0.07722,0.18876 0.0858,0.31746 0.0086,0.12012 0.0086,0.36036 v 1.716 q 0,0.0515 0.01716,0.13728 0.01716,0.0772 0.09438,0.18876 0.07722,0.10296 0.20592,0.10296 0.308879,0 0.308879,-0.54912 v -0.48048 h 0.2145 v 0.48048 q 0,0.45474 -0.24024,0.63492 -0.240239,0.18018 -0.463319,0.18018 -0.283139,0 -0.463319,-0.20592 -0.180179,-0.2145 -0.205919,-0.49764 -0.1287,0.32604 -0.428999,0.54054 -0.29172,0.20592 -0.694979,0.20592 -0.308879,0 -0.600598,-0.0772 -0.29172,-0.0772 -0.531959,-0.29172 -0.240239,-0.2145 -0.240239,-0.54054 z m 0.660658,-0.009 q 0,0.31746 0.22308,0.52338 0.231659,0.20592 0.549118,0.20592 0.360359,0 0.677819,-0.27456 0.326039,-0.28314 0.326039,-0.83226 v -0.858 q -0.952378,0.0343 -1.364217,0.41184 -0.411839,0.37752 -0.411839,0.82368 z m 3.73278,0.82368 v -0.26598 q 0.454739,0 0.557699,-0.0515 0.11154,-0.0601 0.11154,-0.33462 v -2.29944 q 0,-0.31745 -0.11154,-0.39467 -0.11154,-0.0858 -0.557699,-0.0858 v -0.26598 l 1.209777,-0.0944 v 0.90089 q 0.40326,-0.90089 1.269838,-0.90089 0.643498,0 0.900897,0.31746 0.18876,0.21449 0.22308,0.45473 0.0429,0.24024 0.0429,0.858 v 1.63878 q 0.0086,0.18018 0.145859,0.22308 0.13728,0.0343 0.523379,0.0343 v 0.26598 q -0.875158,-0.0257 -0.960958,-0.0257 -0.06864,0 -0.969537,0.0257 v -0.26598 q 0.454739,0 0.557698,-0.0515 0.11154,-0.0601 0.11154,-0.33462 v -1.99914 q 0,-0.43758 -0.13728,-0.69497 -0.128699,-0.2574 -0.497638,-0.2574 -0.446159,0 -0.806518,0.37751 -0.35178,0.36894 -0.35178,0.99528 v 1.57872 q 0,0.27456 0.10296,0.33462 0.11154,0.0515 0.566279,0.0515 v 0.26598 q -0.875158,-0.0257 -0.960958,-0.0257 -0.06864,0 -0.969538,0.0257 z m 4.959721,-0.11154 v -1.13256 q 0,-0.0944 0,-0.1287 0.0086,-0.0343 0.03432,-0.0601 0.02574,-0.0257 0.07722,-0.0257 0.06006,0 0.07722,0.0257 0.02574,0.0257 0.0429,0.12012 0.1287,0.59202 0.403259,0.90948 0.28314,0.30888 0.789358,0.30888 0.480479,0 0.720719,-0.2145 0.248819,-0.2145 0.248819,-0.56628 0,-0.62634 -0.892318,-0.78936 -0.514799,-0.10296 -0.729298,-0.1716 -0.2145,-0.0686 -0.403259,-0.22308 -0.368939,-0.3003 -0.368939,-0.7293 0,-0.429 0.326039,-0.73787 0.326039,-0.31746 1.046757,-0.31746 0.480479,0 0.806519,0.24024 0.09438,-0.0772 0.145859,-0.13728 0.11154,-0.10296 0.1716,-0.10296 0.06864,0 0.07722,0.0429 0.01716,0.0429 0.01716,0.16302 v 0.86657 q 0,0.0944 -0.0086,0.1287 0,0.0343 -0.02574,0.0601 -0.02574,0.0172 -0.07722,0.0172 -0.09438,0 -0.10296,-0.0772 -0.06864,-1.03817 -1.003858,-1.03817 -0.506218,0 -0.737878,0.19734 -0.223079,0.18876 -0.223079,0.45473 0,0.14586 0.06864,0.2574 0.06864,0.11154 0.154439,0.18018 0.09438,0.0601 0.2574,0.12012 0.171599,0.0601 0.274559,0.0858 0.10296,0.0172 0.300299,0.0601 0.686399,0.1287 0.978118,0.41184 0.360359,0.36036 0.360359,0.8151 0,0.50622 -0.343199,0.84942 -0.343199,0.3432 -1.038178,0.3432 -0.557698,0 -0.943797,-0.36894 -0.05148,0.0515 -0.09438,0.0944 -0.03432,0.0429 -0.05148,0.0601 -0.0086,0.0172 -0.01716,0.0257 0,0.009 -0.0086,0.0172 -0.1716,0.1716 -0.2145,0.1716 -0.06864,0 -0.0858,-0.0429 -0.0086,-0.0429 -0.0086,-0.16302 z m 3.561189,0.11154 v -0.26598 q 0.454739,0 0.557698,-0.0515 0.11154,-0.0601 0.11154,-0.33462 v -2.29944 q 0,-0.31745 -0.11154,-0.39467 -0.111539,-0.0858 -0.557698,-0.0858 v -0.26598 l 1.209777,-0.0944 v 0.90089 q 0.403259,-0.90089 1.269837,-0.90089 1.003857,0 1.141137,0.84083 0.14586,-0.32603 0.454739,-0.58343 0.308879,-0.2574 0.789358,-0.2574 0.643499,0 0.900898,0.31746 0.18876,0.21449 0.22308,0.45473 0.0429,0.24024 0.0429,0.858 v 1.63878 q 0.0086,0.18018 0.14586,0.22308 0.13728,0.0343 0.523379,0.0343 v 0.26598 q -0.875158,-0.0257 -0.960958,-0.0257 -0.06864,0 -0.969538,0.0257 v -0.26598 q 0.454739,0 0.557699,-0.0515 0.11154,-0.0601 0.11154,-0.33462 v -1.99914 q 0,-0.43758 -0.13728,-0.69497 -0.1287,-0.2574 -0.497639,-0.2574 -0.446159,0 -0.806518,0.37751 -0.351779,0.36894 -0.351779,0.99528 v 1.57872 q 0,0.27456 0.10296,0.33462 0.11154,0.0515 0.566279,0.0515 v 0.26598 q -0.875158,-0.0257 -0.960958,-0.0257 -0.06864,0 -0.969538,0.0257 v -0.26598 q 0.454739,0 0.557699,-0.0515 0.111539,-0.0601 0.111539,-0.33462 v -1.99914 q 0,-0.43758 -0.137279,-0.69497 -0.1287,-0.2574 -0.497639,-0.2574 -0.446159,0 -0.806518,0.37751 -0.351779,0.36894 -0.351779,0.99528 v 1.57872 q 0,0.27456 0.102959,0.33462 0.11154,0.0515 0.566279,0.0515 v 0.26598 q -0.875158,-0.0257 -0.960958,-0.0257 -0.06864,0 -0.969537,0.0257 z m 7.344954,0 v -0.26598 q 0.454739,0 0.557699,-0.0515 0.111539,-0.0601 0.111539,-0.33462 v -2.30802 q 0,-0.31745 -0.111539,-0.39467 -0.10296,-0.0772 -0.523379,-0.0772 v -0.26598 l 1.201197,-0.0944 v 3.14885 q 0,0.2574 0.0858,0.31746 0.09438,0.0601 0.514799,0.0601 v 0.26598 q -0.875158,-0.0257 -0.892318,-0.0257 -0.12012,0 -0.943798,0.0257 z m 0.360359,-5.28527 q 0,-0.1716 0.1287,-0.30888 0.137279,-0.14586 0.326039,-0.14586 0.18876,0 0.317459,0.1287 0.13728,0.1287 0.13728,0.32604 0,0.19734 -0.13728,0.32604 -0.128699,0.1287 -0.317459,0.1287 -0.19734,0 -0.326039,-0.13728 -0.1287,-0.13728 -0.1287,-0.31746 z m 2.205546,5.17373 v -1.13256 q 0,-0.0944 0,-0.1287 0.0086,-0.0343 0.03432,-0.0601 0.02574,-0.0257 0.07722,-0.0257 0.06006,0 0.07722,0.0257 0.02574,0.0257 0.0429,0.12012 0.1287,0.59202 0.403259,0.90948 0.283139,0.30888 0.789358,0.30888 0.480479,0 0.720718,-0.2145 0.24882,-0.2145 0.24882,-0.56628 0,-0.62634 -0.892318,-0.78936 -0.514799,-0.10296 -0.729298,-0.1716 -0.2145,-0.0686 -0.403259,-0.22308 -0.368939,-0.3003 -0.368939,-0.7293 0,-0.429 0.326039,-0.73787 0.326039,-0.31746 1.046757,-0.31746 0.480479,0 0.806518,0.24024 0.09438,-0.0772 0.14586,-0.13728 0.11154,-0.10296 0.1716,-0.10296 0.06864,0 0.07722,0.0429 0.01716,0.0429 0.01716,0.16302 v 0.86657 q 0,0.0944 -0.0086,0.1287 0,0.0343 -0.02574,0.0601 -0.02574,0.0172 -0.07722,0.0172 -0.09438,0 -0.10296,-0.0772 -0.06864,-1.03817 -1.003858,-1.03817 -0.506219,0 -0.737878,0.19734 -0.223079,0.18876 -0.223079,0.45473 0,0.14586 0.06864,0.2574 0.06864,0.11154 0.15444,0.18018 0.09438,0.0601 0.257399,0.12012 0.1716,0.0601 0.27456,0.0858 0.10296,0.0172 0.300299,0.0601 0.686398,0.1287 0.978118,0.41184 0.360359,0.36036 0.360359,0.8151 0,0.50622 -0.343199,0.84942 -0.343199,0.3432 -1.038178,0.3432 -0.557699,0 -0.943798,-0.36894 -0.05148,0.0515 -0.09438,0.0944 -0.03432,0.0429 -0.05148,0.0601 -0.0086,0.0172 -0.01716,0.0257 0,0.009 -0.0086,0.0172 -0.1716,0.1716 -0.2145,0.1716 -0.06864,0 -0.0858,-0.0429 -0.0086,-0.0429 -0.0086,-0.16302 z m 3.56977,0 v -1.13256 q 0,-0.0944 0,-0.1287 0.0086,-0.0343 0.03432,-0.0601 0.02574,-0.0257 0.07722,-0.0257 0.06006,0 0.07722,0.0257 0.02574,0.0257 0.0429,0.12012 0.128699,0.59202 0.403259,0.90948 0.283139,0.30888 0.789358,0.30888 0.480479,0 0.720718,-0.2145 0.24882,-0.2145 0.24882,-0.56628 0,-0.62634 -0.892318,-0.78936 -0.514799,-0.10296 -0.729298,-0.1716 -0.2145,-0.0686 -0.40326,-0.22308 -0.368939,-0.3003 -0.368939,-0.7293 0,-0.429 0.32604,-0.73787 0.326039,-0.31746 1.046757,-0.31746 0.480479,0 0.806518,0.24024 0.09438,-0.0772 0.14586,-0.13728 0.11154,-0.10296 0.171599,-0.10296 0.06864,0 0.07722,0.0429 0.01716,0.0429 0.01716,0.16302 v 0.86657 q 0,0.0944 -0.0086,0.1287 0,0.0343 -0.02574,0.0601 -0.02574,0.0172 -0.07722,0.0172 -0.09438,0 -0.10296,-0.0772 -0.06864,-1.03817 -1.003858,-1.03817 -0.506219,0 -0.737878,0.19734 -0.22308,0.18876 -0.22308,0.45473 0,0.14586 0.06864,0.2574 0.06864,0.11154 0.15444,0.18018 0.09438,0.0601 0.257399,0.12012 0.1716,0.0601 0.27456,0.0858 0.102959,0.0172 0.300299,0.0601 0.686398,0.1287 0.978118,0.41184 0.360359,0.36036 0.360359,0.8151 0,0.50622 -0.343199,0.84942 -0.3432,0.3432 -1.038178,0.3432 -0.557699,0 -0.943798,-0.36894 -0.05148,0.0515 -0.09438,0.0944 -0.03432,0.0429 -0.05148,0.0601 -0.0086,0.0172 -0.01716,0.0257 0,0.009 -0.0086,0.0172 -0.1716,0.1716 -0.2145,0.1716 -0.06864,0 -0.0858,-0.0429 -0.0086,-0.0429 -0.0086,-0.16302 z m 3.569771,0.11154 v -0.26598 q 0.454739,0 0.557699,-0.0515 0.11154,-0.0601 0.11154,-0.33462 v -2.30802 q 0,-0.31745 -0.11154,-0.39467 -0.10296,-0.0772 -0.523379,-0.0772 v -0.26598 l 1.201197,-0.0944 v 3.14885 q 0,0.2574 0.0858,0.31746 0.09438,0.0601 0.514799,0.0601 v 0.26598 q -0.875158,-0.0257 -0.892318,-0.0257 -0.12012,0 -0.943798,0.0257 z m 0.360359,-5.28527 q 0,-0.1716 0.1287,-0.30888 0.13728,-0.14586 0.326039,-0.14586 0.18876,0 0.317459,0.1287 0.13728,0.1287 0.13728,0.32604 0,0.19734 -0.13728,0.32604 -0.128699,0.1287 -0.317459,0.1287 -0.197339,0 -0.326039,-0.13728 -0.1287,-0.13728 -0.1287,-0.31746 z m 2.728926,4.82195 q -0.566278,-0.5577 -0.566278,-1.3728 0,-0.8151 0.549118,-1.40712 0.557699,-0.60059 1.355637,-0.60059 0.780778,0 1.338477,0.59201 0.557699,0.59202 0.557699,1.4157 0,0.80652 -0.566279,1.3728 -0.557699,0.5577 -1.338477,0.5577 -0.763618,0 -1.329897,-0.5577 z m 0.14586,-1.44144 q 0,0.83226 0.2145,1.20978 0.334619,0.57486 0.978117,0.57486 0.31746,0 0.583439,-0.1716 0.265979,-0.1716 0.411839,-0.46332 0.18876,-0.37752 0.18876,-1.14972 0,-0.82368 -0.22308,-1.19262 -0.334619,-0.55769 -0.969538,-0.55769 -0.274559,0 -0.549118,0.14586 -0.26598,0.14586 -0.428999,0.42899 -0.20592,0.37752 -0.20592,1.17546 z m 3.801418,1.90476 v -0.26598 q 0.454739,0 0.557699,-0.0515 0.11154,-0.0601 0.11154,-0.33462 v -2.29944 q 0,-0.31745 -0.11154,-0.39467 -0.11154,-0.0858 -0.557699,-0.0858 v -0.26598 l 1.209777,-0.0944 v 0.90089 q 0.403259,-0.90089 1.269837,-0.90089 0.643499,0 0.900898,0.31746 0.18876,0.21449 0.22308,0.45473 0.0429,0.24024 0.0429,0.858 v 1.63878 q 0.0086,0.18018 0.145859,0.22308 0.13728,0.0343 0.523379,0.0343 v 0.26598 q -0.875158,-0.0257 -0.960958,-0.0257 -0.06864,0 -0.969537,0.0257 v -0.26598 q 0.454739,0 0.557698,-0.0515 0.11154,-0.0601 0.11154,-0.33462 v -1.99914 q 0,-0.43758 -0.13728,-0.69497 -0.128699,-0.2574 -0.497638,-0.2574 -0.446159,0 -0.806519,0.37751 -0.351779,0.36894 -0.351779,0.99528 v 1.57872 q 0,0.27456 0.10296,0.33462 0.11154,0.0515 0.566279,0.0515 v 0.26598 q -0.875158,-0.0257 -0.960958,-0.0257 -0.06864,0 -0.969538,0.0257 z"
       id="text10"
       style="font-weight:500;font-size:8.57998px;font-family:'CMU Serif';-inkscape-font-specification:'CMU Serif Medium';text-align:center;letter-spacing:0.189265px;text-anchor:middle;stroke-width:1.43066;stroke-linecap:round;stroke-linejoin:round;paint-order:markers stroke fill"
       aria-label="Transmission" /><path
       d="m 43.288942,178.20171 v -0.26598 h 0.20592 q 0.463319,0 0.566278,-0.0772 0.11154,-0.0772 0.11154,-0.32604 v -4.52165 q 0,-0.24882 -0.11154,-0.32604 -0.102959,-0.0772 -0.566278,-0.0772 h -0.20592 v -0.26598 h 3.140273 q 1.098237,0 1.861856,0.87516 0.763618,0.87516 0.763618,2.10209 0,1.2012 -0.772198,2.04204 -0.763619,0.84084 -1.853276,0.84084 z m 1.621616,-0.60918 q 0,0.22308 0.06006,0.28314 0.06864,0.0601 0.360359,0.0601 h 0.866578 q 0.566279,0 0.943798,-0.23166 0.386099,-0.23166 0.583439,-0.49764 0.471899,-0.6435 0.471899,-1.8876 0,-1.30415 -0.446159,-1.91333 -0.574859,-0.79794 -1.561557,-0.79794 h -0.857998 q -0.291719,0 -0.360359,0.0601 -0.06006,0.0601 -0.06006,0.28314 z m 5.097002,0.60918 v -0.26598 q 0.454739,0 0.557698,-0.0515 0.11154,-0.0601 0.11154,-0.33462 v -2.30802 q 0,-0.31746 -0.11154,-0.39468 -0.102959,-0.0772 -0.523378,-0.0772 v -0.26598 l 1.201197,-0.0944 v 3.14886 q 0,0.2574 0.0858,0.31746 0.09438,0.0601 0.514798,0.0601 v 0.26598 q -0.875158,-0.0257 -0.892318,-0.0257 -0.120119,0 -0.943797,0.0257 z m 0.360359,-5.28527 q 0,-0.1716 0.1287,-0.30888 0.137279,-0.14586 0.326039,-0.14586 0.188759,0 0.317459,0.1287 0.13728,0.1287 0.13728,0.32604 0,0.19734 -0.13728,0.32604 -0.1287,0.1287 -0.317459,0.1287 -0.19734,0 -0.326039,-0.13728 -0.1287,-0.13728 -0.1287,-0.31746 z m 2.205548,5.17373 v -1.13256 q 0,-0.0944 0,-0.1287 0.0086,-0.0343 0.03432,-0.0601 0.02574,-0.0257 0.07722,-0.0257 0.06006,0 0.07722,0.0257 0.02574,0.0257 0.0429,0.12012 0.1287,0.59202 0.403259,0.90948 0.28314,0.30888 0.789358,0.30888 0.480479,0 0.720719,-0.2145 0.248819,-0.2145 0.248819,-0.56628 0,-0.62634 -0.892318,-0.78936 -0.514799,-0.10296 -0.729298,-0.1716 -0.2145,-0.0686 -0.403259,-0.22308 -0.368939,-0.3003 -0.368939,-0.7293 0,-0.429 0.326039,-0.73788 0.326039,-0.31746 1.046757,-0.31746 0.480479,0 0.806519,0.24024 0.09438,-0.0772 0.145859,-0.13728 0.11154,-0.10296 0.1716,-0.10296 0.06864,0 0.07722,0.0429 0.01716,0.0429 0.01716,0.16302 v 0.86658 q 0,0.0944 -0.0086,0.1287 0,0.0343 -0.02574,0.0601 -0.02574,0.0172 -0.07722,0.0172 -0.09438,0 -0.10296,-0.0772 -0.06864,-1.03818 -1.003858,-1.03818 -0.506218,0 -0.737878,0.19734 -0.223079,0.18876 -0.223079,0.45474 0,0.14586 0.06864,0.2574 0.06864,0.11154 0.154439,0.18018 0.09438,0.0601 0.2574,0.12012 0.171599,0.0601 0.274559,0.0858 0.10296,0.0172 0.300299,0.0601 0.686399,0.1287 0.978118,0.41184 0.360359,0.36036 0.360359,0.8151 0,0.50622 -0.343199,0.84942 -0.343199,0.3432 -1.038178,0.3432 -0.557698,0 -0.943797,-0.36894 -0.05148,0.0515 -0.09438,0.0944 -0.03432,0.0429 -0.05148,0.0601 -0.0086,0.0172 -0.01716,0.0257 0,0.009 -0.0086,0.0172 -0.1716,0.1716 -0.2145,0.1716 -0.06864,0 -0.0858,-0.0429 -0.0086,-0.0429 -0.0086,-0.16302 z m 3.449649,-3.32046 v -0.18876 q 0.394679,-0.0172 0.652078,-0.29171 0.26598,-0.28314 0.35178,-0.62634 0.09438,-0.3432 0.102959,-0.73788 h 0.2145 v 1.57871 h 1.226937 v 0.26598 h -1.226937 v 2.38524 q 0,0.92664 0.574858,0.92664 0.24882,0 0.411839,-0.24882 0.16302,-0.2574 0.16302,-0.71214 v -0.4719 h 0.2145 v 0.48906 q 0,0.46332 -0.2145,0.8151 -0.214499,0.3432 -0.634918,0.3432 -0.15444,0 -0.30888,-0.0429 -0.154439,-0.0343 -0.351779,-0.13728 -0.197339,-0.10296 -0.326039,-0.35178 -0.12012,-0.2574 -0.12012,-0.62634 v -2.36808 z m 3.595504,3.432 v -0.26598 q 0.454739,0 0.557699,-0.0515 0.11154,-0.0601 0.11154,-0.33462 v -2.29944 q 0,-0.31746 -0.11154,-0.39468 -0.11154,-0.0858 -0.557699,-0.0858 v -0.26598 l 1.192618,-0.0944 v 0.9438 q 0.120119,-0.36894 0.377519,-0.65208 0.257399,-0.29172 0.677818,-0.29172 0.27456,0 0.454739,0.15444 0.18018,0.15444 0.18018,0.36894 0,0.18876 -0.12012,0.28314 -0.11154,0.0944 -0.248819,0.0944 -0.15444,0 -0.26598,-0.0944 -0.10296,-0.10296 -0.10296,-0.27456 0,-0.10296 0.0429,-0.18018 0.05148,-0.0858 0.0858,-0.11154 0.0429,-0.0343 0.06864,-0.0429 -0.01716,-0.009 -0.09438,-0.009 -0.471899,0 -0.746458,0.4719 -0.265979,0.4719 -0.265979,1.14114 v 1.32132 q 0,0.24882 0.102959,0.32604 0.10296,0.0772 0.549119,0.0772 h 0.18018 v 0.26598 q -0.3432,-0.0257 -1.089658,-0.0257 -0.10296,0 -0.265979,0.009 -0.16302,0 -0.377519,0.009 -0.2145,0.009 -0.33462,0.009 z m 3.586928,0 v -0.26598 q 0.454739,0 0.557698,-0.0515 0.11154,-0.0601 0.11154,-0.33462 v -2.30802 q 0,-0.31746 -0.11154,-0.39468 -0.102959,-0.0772 -0.523378,-0.0772 v -0.26598 l 1.201197,-0.0944 v 3.14886 q 0,0.2574 0.0858,0.31746 0.09438,0.0601 0.514798,0.0601 v 0.26598 q -0.875158,-0.0257 -0.892317,-0.0257 -0.12012,0 -0.943798,0.0257 z m 0.360359,-5.28527 q 0,-0.1716 0.1287,-0.30888 0.137279,-0.14586 0.326039,-0.14586 0.188759,0 0.317459,0.1287 0.13728,0.1287 0.13728,0.32604 0,0.19734 -0.13728,0.32604 -0.1287,0.1287 -0.317459,0.1287 -0.19734,0 -0.326039,-0.13728 -0.1287,-0.13728 -0.1287,-0.31746 z m 2.162647,-0.30888 v -0.26598 l 1.235517,-0.0944 v 2.71985 q 0.497639,-0.5577 1.175458,-0.5577 0.737878,0 1.278417,0.56628 0.540538,0.56628 0.540538,1.3728 0,0.8151 -0.566278,1.38138 -0.566279,0.56628 -1.347057,0.56628 -0.712138,0 -1.123977,-0.62634 -0.3003,0.52338 -0.30888,0.53196 h -0.214499 v -5.11367 q 0,-0.31746 -0.11154,-0.39468 -0.11154,-0.0858 -0.557699,-0.0858 z m 1.261257,4.61603 q 0,0.18018 0.12012,0.36036 0.343199,0.52338 0.900898,0.52338 0.600599,0 0.969538,-0.54912 0.265979,-0.41184 0.265979,-1.21836 0,-0.79794 -0.248819,-1.19262 -0.3432,-0.54912 -0.900898,-0.54912 -0.626339,0 -1.012438,0.54912 -0.09438,0.13728 -0.09438,0.30888 z m 3.724205,-2.45388 v -0.26598 l 1.261257,-0.0944 v 2.84856 q 0,0.20592 0.01716,0.32604 0.01716,0.12012 0.0858,0.2574 0.06864,0.13728 0.23166,0.20592 0.16302,0.0601 0.420419,0.0601 0.463319,0 0.746458,-0.37752 0.291719,-0.3861 0.291719,-0.95238 v -1.52724 q 0,-0.31746 -0.111539,-0.39468 -0.11154,-0.0858 -0.557699,-0.0858 v -0.26598 l 1.261257,-0.0944 v 3.0459 q 0,0.31746 0.11154,0.40326 0.11154,0.0772 0.557699,0.0772 v 0.26598 l -1.235518,0.0944 v -0.7722 q -0.360359,0.7722 -1.106817,0.7722 -0.377519,0 -0.634919,-0.0944 -0.257399,-0.0944 -0.386099,-0.2145 -0.128699,-0.12012 -0.197339,-0.35178 -0.06864,-0.23166 -0.07722,-0.36894 -0.0086,-0.14586 -0.0086,-0.42042 v -1.287 q 0,-0.58344 -0.0858,-0.6864 -0.0858,-0.10296 -0.583438,-0.10296 z m 4.839601,0 v -0.18876 q 0.394679,-0.0172 0.652079,-0.29171 0.265979,-0.28314 0.351779,-0.62634 0.09438,-0.3432 0.10296,-0.73788 h 0.214499 v 1.57871 h 1.226937 v 0.26598 h -1.226937 v 2.38524 q 0,0.92664 0.574859,0.92664 0.248819,0 0.411839,-0.24882 0.163019,-0.2574 0.163019,-0.71214 v -0.4719 h 0.2145 v 0.48906 q 0,0.46332 -0.2145,0.8151 -0.214499,0.3432 -0.634918,0.3432 -0.15444,0 -0.308879,-0.0429 -0.15444,-0.0343 -0.35178,-0.13728 -0.197339,-0.10296 -0.326039,-0.35178 -0.120119,-0.2574 -0.120119,-0.62634 v -2.36808 z m 3.638404,3.432 v -0.26598 q 0.454739,0 0.557698,-0.0515 0.11154,-0.0601 0.11154,-0.33462 v -2.30802 q 0,-0.31746 -0.11154,-0.39468 -0.102959,-0.0772 -0.523378,-0.0772 v -0.26598 l 1.201197,-0.0944 v 3.14886 q 0,0.2574 0.0858,0.31746 0.09438,0.0601 0.514799,0.0601 v 0.26598 q -0.875158,-0.0257 -0.892318,-0.0257 -0.12012,0 -0.943798,0.0257 z m 0.360359,-5.28527 q 0,-0.1716 0.1287,-0.30888 0.137279,-0.14586 0.326039,-0.14586 0.188759,0 0.317459,0.1287 0.13728,0.1287 0.13728,0.32604 0,0.19734 -0.13728,0.32604 -0.1287,0.1287 -0.317459,0.1287 -0.19734,0 -0.326039,-0.13728 -0.1287,-0.13728 -0.1287,-0.31746 z m 2.728926,4.82195 q -0.566279,-0.5577 -0.566279,-1.3728 0,-0.8151 0.549119,-1.40712 0.557699,-0.6006 1.355637,-0.6006 0.780778,0 1.338477,0.59202 0.557699,0.59202 0.557699,1.4157 0,0.80652 -0.566279,1.3728 -0.557699,0.5577 -1.338477,0.5577 -0.763618,0 -1.329897,-0.5577 z m 0.14586,-1.44144 q 0,0.83226 0.214499,1.20978 0.334619,0.57486 0.978118,0.57486 0.317459,0 0.583439,-0.1716 0.265979,-0.1716 0.411839,-0.46332 0.188759,-0.37752 0.188759,-1.14972 0,-0.82368 -0.223079,-1.19262 -0.33462,-0.5577 -0.969538,-0.5577 -0.274559,0 -0.549119,0.14586 -0.265979,0.14586 -0.428999,0.429 -0.205919,0.37752 -0.205919,1.17546 z m 3.801418,1.90476 v -0.26598 q 0.454739,0 0.557699,-0.0515 0.111539,-0.0601 0.111539,-0.33462 v -2.29944 q 0,-0.31746 -0.111539,-0.39468 -0.11154,-0.0858 -0.557699,-0.0858 v -0.26598 l 1.209777,-0.0944 v 0.9009 q 0.403259,-0.9009 1.269837,-0.9009 0.643499,0 0.900898,0.31746 0.18876,0.2145 0.22308,0.45474 0.0429,0.24024 0.0429,0.858 v 1.63878 q 0.0086,0.18018 0.14586,0.22308 0.13728,0.0343 0.523379,0.0343 v 0.26598 q -0.875158,-0.0257 -0.960958,-0.0257 -0.06864,0 -0.969538,0.0257 v -0.26598 q 0.454739,0 0.557699,-0.0515 0.11154,-0.0601 0.11154,-0.33462 v -1.99914 q 0,-0.43758 -0.13728,-0.69498 -0.1287,-0.2574 -0.497639,-0.2574 -0.446159,0 -0.806518,0.37752 -0.351779,0.36894 -0.351779,0.99528 v 1.57872 q 0,0.27456 0.10296,0.33462 0.111539,0.0515 0.566278,0.0515 v 0.26598 q -0.875158,-0.0257 -0.960957,-0.0257 -0.06864,0 -0.969538,0.0257 z"
       id="text11"
       style="font-weight:500;font-size:8.57998px;font-family:'CMU Serif';-inkscape-font-specification:'CMU Serif Medium';text-align:center;letter-spacing:0.189265px;text-anchor:middle;stroke-width:1.43066;stroke-linecap:round;stroke-linejoin:round;paint-order:markers stroke fill"
       aria-label="Distribution" /><rect
       style="fill:#bee3ed;fill-opacity:1;stroke-width:1;stroke-linecap:round;stroke-linejoin:round;-inkscape-stroke:none;paint-order:markers stroke fill"
       id="rect7"
       width="46.369095"
       height="26.176107"
       x="114.74037"
       y="100.59103"
       ry="5.9831119" /><g
       id="text13"
       style="font-weight:500;font-size:8.57998px;font-family:'CMU Serif';-inkscape-font-specification:'CMU Serif Medium';text-align:center;letter-spacing:0.189265px;text-anchor:middle;stroke-width:1.43066;stroke-linecap:round;stroke-linejoin:round;paint-order:markers stroke fill"
       aria-label="System&#10;Operator"><path
         d="m 124.46599,110.49161 v -1.71599 q 0,-0.0944 0,-0.1287 0.009,-0.0343 0.0343,-0.0601 0.0257,-0.0257 0.0772,-0.0257 0.0944,0 0.10296,0.0858 0.0257,0.84942 0.53196,1.32132 0.49764,0.46331 1.35564,0.46331 0.5148,0 0.83226,-0.36894 0.31746,-0.36893 0.31746,-0.85799 0,-0.46332 -0.26598,-0.78936 -0.11154,-0.14586 -0.2574,-0.24024 -0.13728,-0.0944 -0.22308,-0.12012 -0.0858,-0.0343 -0.24882,-0.0772 -1.06392,-0.2574 -1.13256,-0.28314 -0.50622,-0.1716 -0.8151,-0.6006 -0.30887,-0.43758 -0.30887,-0.96954 0,-0.68639 0.48047,-1.17545 0.48906,-0.48906 1.19262,-0.48906 0.35178,0 0.6435,0.11154 0.3003,0.11154 0.42042,0.2145 0.12012,0.0944 0.30888,0.27456 l 0.3003,-0.48906 q 0.0686,-0.11154 0.1287,-0.11154 0.0686,0 0.0772,0.0429 0.0172,0.0343 0.0172,0.16302 v 1.72457 q 0,0.0944 -0.009,0.1287 0,0.0343 -0.0257,0.0601 -0.0257,0.0172 -0.0772,0.0172 -0.0858,0 -0.10296,-0.10296 -0.24024,-1.79321 -1.6731,-1.79321 -0.48906,0 -0.8151,0.33462 -0.31746,0.32604 -0.31746,0.78935 0,0.37752 0.23166,0.6864 0.24024,0.30888 0.63492,0.40326 l 1.09824,0.26598 q 0.54912,0.1287 0.91806,0.61776 0.36894,0.48048 0.36894,1.1154 0,0.7293 -0.48048,1.26125 -0.4719,0.52338 -1.20978,0.52338 -0.53196,0 -0.9438,-0.18018 -0.41184,-0.1716 -0.63492,-0.42042 -0.1716,0.28314 -0.28314,0.44616 l -0.0257,0.0429 q -0.0686,0.11154 -0.1287,0.11154 -0.0686,0 -0.0858,-0.0429 -0.009,-0.0429 -0.009,-0.16302 z m 4.63368,1.08108 q 0,-0.18018 0.10296,-0.27456 0.11154,-0.0944 0.25739,-0.0944 0.15444,0 0.2574,0.0944 0.10296,0.10296 0.10296,0.26598 0,0.31746 -0.33462,0.36036 0.16302,0.15444 0.40326,0.15444 0.2574,0 0.46332,-0.18876 0.20592,-0.18876 0.29172,-0.36894 0.0944,-0.18018 0.22308,-0.50622 0.12012,-0.2574 0.2145,-0.50622 l -1.287,-3.13169 q -0.0858,-0.20592 -0.2145,-0.24882 -0.1287,-0.0515 -0.48047,-0.0515 v -0.26598 q 0.38609,0.0257 0.83225,0.0257 0.26598,0 0.93522,-0.0257 v 0.26598 q -0.48048,0 -0.48048,0.22308 0,0.0257 0.0515,0.15444 l 0.95238,2.30802 0.86658,-2.11068 q 0.0515,-0.12012 0.0515,-0.20592 0,-0.35178 -0.40326,-0.36894 v -0.26598 q 0.56628,0.0257 0.74646,0.0257 0.35178,0 0.6435,-0.0257 v 0.26598 q -0.57486,0 -0.79794,0.54912 l -1.51008,3.66365 q -0.41184,0.97812 -1.09824,0.97812 -0.32604,0 -0.55769,-0.20592 -0.23166,-0.19734 -0.23166,-0.48906 z m 4.83102,-1.17546 v -1.13255 q 0,-0.0944 0,-0.1287 0.009,-0.0343 0.0343,-0.0601 0.0257,-0.0257 0.0772,-0.0257 0.0601,0 0.0772,0.0257 0.0257,0.0257 0.0429,0.12012 0.1287,0.59202 0.40326,0.90947 0.28314,0.30888 0.78935,0.30888 0.48048,0 0.72072,-0.2145 0.24882,-0.21449 0.24882,-0.56627 0,-0.62634 -0.89232,-0.78936 -0.5148,-0.10296 -0.72929,-0.1716 -0.2145,-0.0686 -0.40326,-0.22308 -0.36894,-0.3003 -0.36894,-0.7293 0,-0.429 0.32604,-0.73788 0.32604,-0.31746 1.04675,-0.31746 0.48048,0 0.80652,0.24024 0.0944,-0.0772 0.14586,-0.13728 0.11154,-0.10296 0.1716,-0.10296 0.0686,0 0.0772,0.0429 0.0172,0.0429 0.0172,0.16302 v 0.86658 q 0,0.0944 -0.009,0.1287 0,0.0343 -0.0257,0.0601 -0.0257,0.0172 -0.0772,0.0172 -0.0944,0 -0.10296,-0.0772 -0.0686,-1.03818 -1.00386,-1.03818 -0.50621,0 -0.73787,0.19734 -0.22308,0.18876 -0.22308,0.45474 0,0.14586 0.0686,0.2574 0.0686,0.11154 0.15444,0.18018 0.0944,0.0601 0.2574,0.12012 0.17159,0.0601 0.27455,0.0858 0.10296,0.0172 0.3003,0.0601 0.6864,0.1287 0.97812,0.41184 0.36036,0.36036 0.36036,0.8151 0,0.50622 -0.3432,0.84941 -0.3432,0.3432 -1.03818,0.3432 -0.55769,0 -0.94379,-0.36894 -0.0515,0.0515 -0.0944,0.0944 -0.0343,0.0429 -0.0515,0.0601 -0.009,0.0172 -0.0172,0.0257 0,0.009 -0.009,0.0172 -0.1716,0.1716 -0.2145,0.1716 -0.0686,0 -0.0858,-0.0429 -0.009,-0.0429 -0.009,-0.16302 z m 3.44965,-3.32045 v -0.18876 q 0.39468,-0.0172 0.65207,-0.29172 0.26598,-0.28314 0.35178,-0.62634 0.0944,-0.34319 0.10296,-0.73787 h 0.2145 v 1.57871 h 1.22694 v 0.26598 h -1.22694 v 2.38524 q 0,0.92663 0.57486,0.92663 0.24882,0 0.41184,-0.24882 0.16302,-0.25739 0.16302,-0.71213 v -0.4719 h 0.2145 v 0.48906 q 0,0.46332 -0.2145,0.81509 -0.2145,0.3432 -0.63492,0.3432 -0.15444,0 -0.30888,-0.0429 -0.15444,-0.0343 -0.35178,-0.13728 -0.19734,-0.10296 -0.32604,-0.35178 -0.12012,-0.25739 -0.12012,-0.62633 v -2.36808 z m 3.5955,1.5444 q 0,-0.80652 0.5148,-1.38138 0.52338,-0.57486 1.26984,-0.57486 0.75504,0 1.14113,0.48906 0.39468,0.48906 0.39468,1.19262 0,0.1287 -0.0343,0.15444 -0.0343,0.0257 -0.18018,0.0257 h -2.39381 q 0,0.87516 0.2574,1.287 0.36036,0.57485 0.96954,0.57485 0.0858,0 0.18018,-0.0172 0.10296,-0.0172 0.30888,-0.0858 0.20591,-0.0772 0.38609,-0.27456 0.18018,-0.19733 0.28314,-0.50621 0.0257,-0.12012 0.11154,-0.12012 0.11154,0 0.11154,0.10296 0,0.0772 -0.0858,0.24882 -0.0772,0.16302 -0.23166,0.36893 -0.15444,0.19734 -0.45473,0.35178 -0.3003,0.14586 -0.66066,0.14586 -0.75504,0 -1.32132,-0.56628 -0.56628,-0.57485 -0.56628,-1.41569 z m 0.72072,-0.27456 h 2.03345 q 0,-0.18018 -0.0343,-0.37752 -0.0257,-0.20592 -0.12012,-0.48048 -0.0858,-0.28314 -0.30029,-0.45474 -0.20592,-0.18018 -0.5148,-0.18018 -0.13728,0 -0.29172,0.0601 -0.14586,0.0601 -0.32604,0.20592 -0.18018,0.13728 -0.30888,0.46332 -0.12012,0.31746 -0.13728,0.76362 z m 3.31236,2.16215 v -0.26598 q 0.45474,0 0.5577,-0.0515 0.11154,-0.0601 0.11154,-0.33461 v -2.29944 q 0,-0.31746 -0.11154,-0.39468 -0.11154,-0.0858 -0.5577,-0.0858 v -0.26598 l 1.20978,-0.0944 v 0.9009 q 0.40326,-0.9009 1.26984,-0.9009 1.00385,0 1.14113,0.84084 0.14586,-0.32604 0.45474,-0.58344 0.30888,-0.2574 0.78936,-0.2574 0.6435,0 0.9009,0.31746 0.18876,0.2145 0.22308,0.45474 0.0429,0.24024 0.0429,0.858 v 1.63878 q 0.009,0.18017 0.14586,0.22307 0.13728,0.0343 0.52338,0.0343 v 0.26598 q -0.87516,-0.0257 -0.96096,-0.0257 -0.0686,0 -0.96954,0.0257 v -0.26598 q 0.45474,0 0.5577,-0.0515 0.11154,-0.0601 0.11154,-0.33461 v -1.99914 q 0,-0.43758 -0.13728,-0.69498 -0.1287,-0.2574 -0.49764,-0.2574 -0.44616,0 -0.80652,0.37752 -0.35178,0.36894 -0.35178,0.99528 v 1.57872 q 0,0.27455 0.10296,0.33461 0.11154,0.0515 0.56628,0.0515 v 0.26598 q -0.87515,-0.0257 -0.96095,-0.0257 -0.0686,0 -0.96954,0.0257 v -0.26598 q 0.45474,0 0.5577,-0.0515 0.11154,-0.0601 0.11154,-0.33461 v -1.99914 q 0,-0.43758 -0.13728,-0.69498 -0.1287,-0.2574 -0.49764,-0.2574 -0.44616,0 -0.80652,0.37752 -0.35178,0.36894 -0.35178,0.99528 v 1.57872 q 0,0.27455 0.10296,0.33461 0.11154,0.0515 0.56628,0.0515 v 0.26598 q -0.87516,-0.0257 -0.96096,-0.0257 -0.0686,0 -0.96954,0.0257 z"
         id="path28" /><path
         d="m 120.79781,118.32514 q 0,-1.31274 0.84083,-2.22222 0.84084,-0.91806 2.00772,-0.91806 1.17546,0 2.0163,0.91806 0.84083,0.91806 0.84083,2.22222 0,1.29557 -0.84083,2.19647 -0.84084,0.9009 -2.0163,0.9009 -1.1583,0 -2.00772,-0.89232 -0.84083,-0.9009 -0.84083,-2.20505 z m 0.88373,-0.12012 q 0,0.79793 0.18876,1.40711 0.18876,0.60918 0.48906,0.9438 0.30888,0.32604 0.63492,0.48906 0.32604,0.15444 0.66066,0.15444 0.32604,0 0.6435,-0.15444 0.32604,-0.15444 0.62634,-0.48048 0.30888,-0.32604 0.49764,-0.93522 0.19734,-0.61776 0.19734,-1.42427 0,-0.62634 -0.13728,-1.13256 -0.1287,-0.50622 -0.3432,-0.80652 -0.20592,-0.30888 -0.48048,-0.50622 -0.26598,-0.20592 -0.52338,-0.28314 -0.24882,-0.0772 -0.48906,-0.0772 -0.3003,0 -0.61776,0.13728 -0.30888,0.1287 -0.62634,0.429 -0.31746,0.29172 -0.52338,0.87516 -0.19734,0.57486 -0.19734,1.36422 z m 5.73192,4.42727 q 0.45474,0 0.5577,-0.0601 0.11154,-0.0515 0.11154,-0.32604 v -4.01543 q 0,-0.28314 -0.11154,-0.35178 -0.10296,-0.0772 -0.5577,-0.0772 v -0.26598 l 1.23552,-0.0944 v 0.56628 q 0.5148,-0.56628 1.2012,-0.56628 0.7293,0 1.26125,0.56628 0.53196,0.56627 0.53196,1.37279 0,0.8151 -0.56627,1.38138 -0.56628,0.56628 -1.34706,0.56628 -0.429,0 -0.72072,-0.2145 -0.28314,-0.22308 -0.33462,-0.3861 v 0.0772 1.44144 q 0,0.27456 0.10296,0.32604 0.11154,0.0601 0.56628,0.0601 v 0.26597 q -0.9009,-0.0257 -0.96954,-0.0257 -0.0858,0 -0.96096,0.0257 z m 1.26126,-2.37666 q 0,0.1287 0.0172,0.18018 0.0172,0.0429 0.10296,0.18018 0.3432,0.52338 0.9009,0.52338 0.48906,0 0.858,-0.49764 0.37752,-0.50622 0.37752,-1.26126 0,-0.72072 -0.3432,-1.21835 -0.33462,-0.50622 -0.80652,-0.50622 -0.33462,0 -0.62634,0.18018 -0.29172,0.18018 -0.48048,0.50622 z m 3.93012,-0.90948 q 0,-0.80652 0.5148,-1.38137 0.52338,-0.57486 1.26984,-0.57486 0.75504,0 1.14113,0.48906 0.39468,0.48906 0.39468,1.19261 0,0.1287 -0.0343,0.15444 -0.0343,0.0257 -0.18018,0.0257 h -2.39381 q 0,0.87516 0.2574,1.287 0.36036,0.57486 0.96954,0.57486 0.0858,0 0.18018,-0.0172 0.10296,-0.0172 0.30888,-0.0858 0.20592,-0.0772 0.3861,-0.27456 0.18017,-0.19734 0.28313,-0.50622 0.0257,-0.12012 0.11154,-0.12012 0.11154,0 0.11154,0.10296 0,0.0772 -0.0858,0.24882 -0.0772,0.16302 -0.23166,0.36894 -0.15443,0.19734 -0.45473,0.35178 -0.3003,0.14586 -0.66066,0.14586 -0.75504,0 -1.32132,-0.56628 -0.56628,-0.57486 -0.56628,-1.4157 z m 0.72072,-0.27456 h 2.03346 q 0,-0.18018 -0.0343,-0.37752 -0.0257,-0.20591 -0.12012,-0.48047 -0.0858,-0.28314 -0.3003,-0.45474 -0.20592,-0.18018 -0.5148,-0.18018 -0.13728,0 -0.29172,0.0601 -0.14586,0.0601 -0.32604,0.20592 -0.18018,0.13728 -0.30888,0.46332 -0.12012,0.31745 -0.13728,0.76361 z m 3.27804,2.16216 v -0.26598 q 0.45474,0 0.5577,-0.0515 0.11154,-0.0601 0.11154,-0.33462 v -2.29943 q 0,-0.31746 -0.11154,-0.39468 -0.11154,-0.0858 -0.5577,-0.0858 v -0.26598 l 1.19262,-0.0944 v 0.9438 q 0.12012,-0.36894 0.37752,-0.65208 0.2574,-0.29172 0.67782,-0.29172 0.27456,0 0.45474,0.15444 0.18018,0.15444 0.18018,0.36894 0,0.18876 -0.12012,0.28314 -0.11154,0.0944 -0.24882,0.0944 -0.15444,0 -0.26598,-0.0944 -0.10296,-0.10296 -0.10296,-0.27456 0,-0.10296 0.0429,-0.18018 0.0515,-0.0858 0.0858,-0.11154 0.0429,-0.0343 0.0686,-0.0429 -0.0172,-0.009 -0.0944,-0.009 -0.4719,0 -0.74646,0.4719 -0.26598,0.47189 -0.26598,1.14113 v 1.32132 q 0,0.24882 0.10296,0.32604 0.10296,0.0772 0.54912,0.0772 h 0.18018 v 0.26598 q -0.3432,-0.0257 -1.08966,-0.0257 -0.10296,0 -0.26598,0.009 -0.16302,0 -0.37752,0.009 -0.2145,0.009 -0.33462,0.009 z m 3.66415,-0.8151 q 0,-0.7293 0.858,-1.1154 0.5148,-0.24882 1.57871,-0.30888 v -0.31746 q 0,-0.53195 -0.28314,-0.81509 -0.27455,-0.28314 -0.62633,-0.28314 -0.62634,0 -0.92664,0.39468 0.2574,0.009 0.3432,0.13728 0.0944,0.1287 0.0944,0.2574 0,0.17159 -0.11154,0.28313 -0.10296,0.11154 -0.28314,0.11154 -0.1716,0 -0.28314,-0.10296 -0.11154,-0.11154 -0.11154,-0.30029 0,-0.42042 0.37752,-0.69498 0.37752,-0.27456 0.91806,-0.27456 0.70355,0 1.17545,0.4719 0.14586,0.14586 0.2145,0.33462 0.0772,0.18876 0.0858,0.31746 0.009,0.12011 0.009,0.36035 v 1.716 q 0,0.0515 0.0172,0.13728 0.0172,0.0772 0.0944,0.18876 0.0772,0.10296 0.20592,0.10296 0.30888,0 0.30888,-0.54912 v -0.48048 h 0.2145 v 0.48048 q 0,0.45474 -0.24024,0.63492 -0.24024,0.18018 -0.46332,0.18018 -0.28314,0 -0.46332,-0.20592 -0.18018,-0.2145 -0.20592,-0.49764 -0.1287,0.32604 -0.42899,0.54054 -0.29172,0.20592 -0.69498,0.20592 -0.30888,0 -0.6006,-0.0772 -0.29172,-0.0772 -0.53196,-0.29172 -0.24024,-0.2145 -0.24024,-0.54054 z m 0.66066,-0.009 q 0,0.31746 0.22308,0.52338 0.23166,0.20592 0.54912,0.20592 0.36036,0 0.67781,-0.27456 0.32604,-0.28314 0.32604,-0.83226 v -0.858 q -0.95237,0.0343 -1.36421,0.41184 -0.41184,0.37752 -0.41184,0.82368 z m 3.62124,-2.60831 V 117.613 q 0.39468,-0.0172 0.65208,-0.29172 0.26598,-0.28314 0.35178,-0.62634 0.0944,-0.3432 0.10296,-0.73788 h 0.2145 v 1.57872 h 1.22693 v 0.26598 h -1.22693 v 2.38523 q 0,0.92664 0.57486,0.92664 0.24882,0 0.41184,-0.24882 0.16302,-0.2574 0.16302,-0.71214 v -0.4719 h 0.21449 v 0.48906 q 0,0.46332 -0.21449,0.8151 -0.2145,0.3432 -0.63492,0.3432 -0.15444,0 -0.30888,-0.0429 -0.15444,-0.0343 -0.35178,-0.13728 -0.19734,-0.10296 -0.32604,-0.35178 -0.12012,-0.2574 -0.12012,-0.62634 v -2.36807 z m 4.16178,2.96867 q -0.56628,-0.5577 -0.56628,-1.3728 0,-0.8151 0.54912,-1.40711 0.5577,-0.6006 1.35564,-0.6006 0.78078,0 1.33848,0.59202 0.5577,0.59201 0.5577,1.41569 0,0.80652 -0.56628,1.3728 -0.5577,0.5577 -1.33848,0.5577 -0.76362,0 -1.3299,-0.5577 z m 0.14586,-1.44144 q 0,0.83226 0.2145,1.20978 0.33462,0.57486 0.97812,0.57486 0.31746,0 0.58344,-0.1716 0.26598,-0.1716 0.41184,-0.46332 0.18876,-0.37752 0.18876,-1.14972 0,-0.82367 -0.22308,-1.19261 -0.33462,-0.5577 -0.96954,-0.5577 -0.27456,0 -0.54912,0.14586 -0.26598,0.14586 -0.429,0.429 -0.20592,0.37752 -0.20592,1.17545 z m 3.7671,1.90476 v -0.26598 q 0.45474,0 0.5577,-0.0515 0.11154,-0.0601 0.11154,-0.33462 v -2.29943 q 0,-0.31746 -0.11154,-0.39468 -0.11154,-0.0858 -0.5577,-0.0858 v -0.26598 l 1.19262,-0.0944 v 0.9438 q 0.12012,-0.36894 0.37752,-0.65208 0.2574,-0.29172 0.67782,-0.29172 0.27456,0 0.45474,0.15444 0.18018,0.15444 0.18018,0.36894 0,0.18876 -0.12012,0.28314 -0.11154,0.0944 -0.24882,0.0944 -0.15444,0 -0.26598,-0.0944 -0.10296,-0.10296 -0.10296,-0.27456 0,-0.10296 0.0429,-0.18018 0.0515,-0.0858 0.0858,-0.11154 0.0429,-0.0343 0.0686,-0.0429 -0.0172,-0.009 -0.0944,-0.009 -0.4719,0 -0.74646,0.4719 -0.26598,0.47189 -0.26598,1.14113 v 1.32132 q 0,0.24882 0.10296,0.32604 0.10296,0.0772 0.54912,0.0772 h 0.18018 v 0.26598 q -0.3432,-0.0257 -1.08966,-0.0257 -0.10296,0 -0.26598,0.009 -0.16302,0 -0.37752,0.009 -0.2145,0.009 -0.33462,0.009 z"
         id="path29" /></g><path
       d="m 46.751703,236.32856 q 0,-1.29558 0.883738,-2.20506 0.883738,-0.90948 2.102095,-0.90948 0.37752,0 0.712139,0.13728 0.334619,0.13728 0.489059,0.2574 0.154439,0.12012 0.377519,0.3432 l 0.428999,-0.63492 q 0.06864,-0.10296 0.137279,-0.10296 0.06864,0 0.07722,0.0429 0.01716,0.0343 0.01716,0.16302 v 2.03346 q 0,0.13728 -0.01716,0.1716 -0.01716,0.0343 -0.12012,0.0343 -0.0858,0 -0.102959,-0.0257 -0.01716,-0.0257 -0.03432,-0.12012 -0.1287,-0.92664 -0.643499,-1.47576 -0.514798,-0.5577 -1.226937,-0.5577 -0.205919,0 -0.437579,0.0515 -0.223079,0.0429 -0.557698,0.22308 -0.32604,0.1716 -0.583439,0.46332 -0.24882,0.29172 -0.437579,0.84084 -0.18018,0.54912 -0.18018,1.27842 0,0.72071 0.18018,1.27841 0.188759,0.54912 0.437579,0.84084 0.257399,0.28314 0.583439,0.46332 0.334619,0.1716 0.566278,0.22308 0.23166,0.0429 0.437579,0.0429 0.737878,0 1.304157,-0.52338 0.566279,-0.52338 0.617759,-1.40712 0.0086,-0.0429 0.0086,-0.0601 0,-0.0172 0.0086,-0.0343 0.0086,-0.0257 0.02574,-0.0343 0.02574,-0.009 0.06006,-0.009 0.11154,0 0.11154,0.14586 0,0.8151 -0.626338,1.5015 -0.626339,0.6864 -1.613037,0.6864 -1.218357,0 -2.102095,-0.9009 -0.883738,-0.90948 -0.883738,-2.22221 z m 6.178076,-0.49764 v -0.26598 l 1.261257,-0.0944 v 2.84855 q 0,0.20592 0.01716,0.32604 0.01716,0.12012 0.0858,0.2574 0.06864,0.13728 0.231659,0.20592 0.16302,0.0601 0.420419,0.0601 0.463319,0 0.746458,-0.37752 0.29172,-0.3861 0.29172,-0.95238 v -1.52723 q 0,-0.31746 -0.11154,-0.39468 -0.11154,-0.0858 -0.557699,-0.0858 v -0.26598 l 1.261257,-0.0944 v 3.04589 q 0,0.31746 0.11154,0.40326 0.11154,0.0772 0.557699,0.0772 v 0.26598 l -1.235517,0.0944 v -0.7722 q -0.360359,0.7722 -1.106818,0.7722 -0.377519,0 -0.634918,-0.0944 -0.2574,-0.0944 -0.386099,-0.2145 -0.1287,-0.12012 -0.19734,-0.35178 -0.06864,-0.23166 -0.07722,-0.36894 -0.0086,-0.14586 -0.0086,-0.42042 v -1.28699 q 0,-0.58344 -0.0858,-0.6864 -0.0858,-0.10296 -0.583439,-0.10296 z m 4.95972,3.32045 v -1.13256 q 0,-0.0944 0,-0.1287 0.0086,-0.0343 0.03432,-0.0601 0.02574,-0.0257 0.07722,-0.0257 0.06006,0 0.07722,0.0257 0.02574,0.0257 0.0429,0.12012 0.128699,0.59202 0.403259,0.90948 0.283139,0.30888 0.789358,0.30888 0.480479,0 0.720718,-0.2145 0.24882,-0.2145 0.24882,-0.56628 0,-0.62634 -0.892318,-0.78936 -0.514799,-0.10296 -0.729298,-0.1716 -0.2145,-0.0686 -0.40326,-0.22308 -0.368939,-0.3003 -0.368939,-0.72929 0,-0.429 0.32604,-0.73788 0.326039,-0.31746 1.046757,-0.31746 0.480479,0 0.806518,0.24024 0.09438,-0.0772 0.14586,-0.13728 0.11154,-0.10296 0.171599,-0.10296 0.06864,0 0.07722,0.0429 0.01716,0.0429 0.01716,0.16302 v 0.86658 q 0,0.0944 -0.0086,0.1287 0,0.0343 -0.02574,0.06 -0.02574,0.0172 -0.07722,0.0172 -0.09438,0 -0.10296,-0.0772 -0.06864,-1.03818 -1.003858,-1.03818 -0.506219,0 -0.737878,0.19734 -0.22308,0.18876 -0.22308,0.45474 0,0.14586 0.06864,0.2574 0.06864,0.11154 0.15444,0.18018 0.09438,0.06 0.257399,0.12011 0.1716,0.0601 0.27456,0.0858 0.102959,0.0172 0.300299,0.0601 0.686398,0.1287 0.978118,0.41184 0.360359,0.36036 0.360359,0.8151 0,0.50622 -0.343199,0.84942 -0.3432,0.3432 -1.038178,0.3432 -0.557699,0 -0.943798,-0.36894 -0.05148,0.0515 -0.09438,0.0944 -0.03432,0.0429 -0.05148,0.0601 -0.0086,0.0172 -0.01716,0.0257 0,0.009 -0.0086,0.0172 -0.1716,0.1716 -0.2145,0.1716 -0.06864,0 -0.0858,-0.0429 -0.0086,-0.0429 -0.0086,-0.16302 z m 3.44965,-3.32045 v -0.18876 q 0.394679,-0.0172 0.652078,-0.29172 0.265979,-0.28314 0.351779,-0.62634 0.09438,-0.3432 0.10296,-0.73788 h 0.214499 v 1.57872 h 1.226938 v 0.26598 h -1.226938 v 2.38523 q 0,0.92664 0.574859,0.92664 0.248819,0 0.411839,-0.24882 0.16302,-0.2574 0.16302,-0.71214 v -0.4719 h 0.214499 v 0.48906 q 0,0.46332 -0.214499,0.8151 -0.2145,0.3432 -0.634919,0.3432 -0.154439,0 -0.308879,-0.0429 -0.15444,-0.0343 -0.351779,-0.13728 -0.19734,-0.10296 -0.326039,-0.35178 -0.12012,-0.2574 -0.12012,-0.62634 v -2.36807 z m 4.161783,2.96867 q -0.566279,-0.5577 -0.566279,-1.3728 0,-0.81509 0.549119,-1.40711 0.557699,-0.6006 1.355637,-0.6006 0.780778,0 1.338477,0.59202 0.557698,0.59202 0.557698,1.41569 0,0.80652 -0.566278,1.3728 -0.557699,0.5577 -1.338477,0.5577 -0.763619,0 -1.329897,-0.5577 z m 0.145859,-1.44144 q 0,0.83226 0.2145,1.20978 0.334619,0.57486 0.978118,0.57486 0.317459,0 0.583438,-0.1716 0.26598,-0.1716 0.411839,-0.46332 0.18876,-0.37752 0.18876,-1.14972 0,-0.82367 -0.22308,-1.19261 -0.334619,-0.5577 -0.969537,-0.5577 -0.27456,0 -0.549119,0.14586 -0.265979,0.14586 -0.428999,0.429 -0.20592,0.37752 -0.20592,1.17545 z m 3.801421,1.90476 v -0.26598 q 0.454738,0 0.557698,-0.0515 0.11154,-0.0601 0.11154,-0.33462 v -2.29943 q 0,-0.31746 -0.11154,-0.39468 -0.111539,-0.0858 -0.557698,-0.0858 v -0.26598 l 1.209777,-0.0944 v 0.9009 q 0.403259,-0.9009 1.269837,-0.9009 1.003857,0 1.141137,0.84084 0.14586,-0.32604 0.454739,-0.58344 0.308879,-0.2574 0.789358,-0.2574 0.643499,0 0.900898,0.31746 0.18876,0.2145 0.22308,0.45474 0.0429,0.24024 0.0429,0.85799 v 1.63878 q 0.0086,0.18018 0.14586,0.22308 0.13728,0.0343 0.523379,0.0343 v 0.26598 q -0.875158,-0.0257 -0.960958,-0.0257 -0.06864,0 -0.969538,0.0257 v -0.26598 q 0.454739,0 0.557699,-0.0515 0.11154,-0.0601 0.11154,-0.33462 v -1.99913 q 0,-0.43758 -0.13728,-0.69498 -0.1287,-0.2574 -0.497639,-0.2574 -0.446159,0 -0.806518,0.37752 -0.351779,0.36894 -0.351779,0.99527 v 1.57872 q 0,0.27456 0.10296,0.33462 0.11154,0.0515 0.566278,0.0515 v 0.26598 q -0.875158,-0.0257 -0.960957,-0.0257 -0.06864,0 -0.969538,0.0257 v -0.26598 q 0.454739,0 0.557699,-0.0515 0.111539,-0.0601 0.111539,-0.33462 v -1.99913 q 0,-0.43758 -0.137279,-0.69498 -0.1287,-0.2574 -0.497639,-0.2574 -0.446159,0 -0.806518,0.37752 -0.351779,0.36894 -0.351779,0.99527 v 1.57872 q 0,0.27456 0.102959,0.33462 0.11154,0.0515 0.566279,0.0515 v 0.26598 q -0.875158,-0.0257 -0.960958,-0.0257 -0.06864,0 -0.969537,0.0257 z m 7.302054,-1.8876 q 0,-0.80651 0.514799,-1.38137 0.523378,-0.57486 1.269837,-0.57486 0.755038,0 1.141137,0.48906 0.394679,0.48906 0.394679,1.19261 0,0.1287 -0.03432,0.15444 -0.03432,0.0257 -0.180179,0.0257 h -2.393815 q 0,0.87516 0.2574,1.287 0.360359,0.57486 0.969537,0.57486 0.0858,0 0.18018,-0.0172 0.10296,-0.0172 0.308879,-0.0858 0.20592,-0.0772 0.386099,-0.27456 0.18018,-0.19734 0.28314,-0.50622 0.02574,-0.12012 0.111539,-0.12012 0.11154,0 0.11154,0.10296 0,0.0772 -0.0858,0.24882 -0.07722,0.16302 -0.231659,0.36894 -0.15444,0.19734 -0.454739,0.35178 -0.300299,0.14586 -0.660659,0.14586 -0.755038,0 -1.321316,-0.56628 -0.566279,-0.57486 -0.566279,-1.4157 z m 0.720718,-0.27456 h 2.033455 q 0,-0.18018 -0.03432,-0.37752 -0.02574,-0.20591 -0.12012,-0.48047 -0.0858,-0.28314 -0.300299,-0.45474 -0.20592,-0.18018 -0.514799,-0.18018 -0.13728,0 -0.29172,0.0601 -0.145859,0.0601 -0.326039,0.20592 -0.180179,0.13728 -0.308879,0.46332 -0.12012,0.31746 -0.13728,0.76361 z m 3.278044,2.16216 v -0.26598 q 0.454739,0 0.557699,-0.0515 0.111539,-0.0601 0.111539,-0.33462 v -2.29943 q 0,-0.31746 -0.111539,-0.39468 -0.11154,-0.0858 -0.557699,-0.0858 v -0.26598 l 1.192617,-0.0944 v 0.9438 q 0.12012,-0.36894 0.377519,-0.65208 0.2574,-0.29172 0.677819,-0.29172 0.274559,0 0.454739,0.15444 0.180179,0.15444 0.180179,0.36894 0,0.18876 -0.120119,0.28314 -0.11154,0.0944 -0.24882,0.0944 -0.154439,0 -0.265979,-0.0944 -0.10296,-0.10296 -0.10296,-0.27456 0,-0.10296 0.0429,-0.18018 0.05148,-0.0858 0.0858,-0.11154 0.0429,-0.0343 0.06864,-0.0429 -0.01716,-0.009 -0.09438,-0.009 -0.471899,0 -0.746458,0.4719 -0.26598,0.4719 -0.26598,1.14113 v 1.32132 q 0,0.24882 0.10296,0.32604 0.10296,0.0772 0.549119,0.0772 h 0.180179 v 0.26598 q -0.343199,-0.0257 -1.089657,-0.0257 -0.10296,0 -0.26598,0.009 -0.163019,0 -0.377519,0.009 -0.214499,0.009 -0.334619,0.009 z m 3.586925,-0.11154 v -1.13256 q 0,-0.0944 0,-0.1287 0.0086,-0.0343 0.03432,-0.0601 0.02574,-0.0257 0.07722,-0.0257 0.06006,0 0.07722,0.0257 0.02574,0.0257 0.0429,0.12012 0.1287,0.59202 0.403259,0.90948 0.283139,0.30888 0.789358,0.30888 0.480479,0 0.720718,-0.2145 0.24882,-0.2145 0.24882,-0.56628 0,-0.62634 -0.892318,-0.78936 -0.514799,-0.10296 -0.729298,-0.1716 -0.2145,-0.0686 -0.403259,-0.22308 -0.36894,-0.3003 -0.36894,-0.72929 0,-0.429 0.32604,-0.73788 0.326039,-0.31746 1.046757,-0.31746 0.480479,0 0.806518,0.24024 0.09438,-0.0772 0.14586,-0.13728 0.11154,-0.10296 0.1716,-0.10296 0.06864,0 0.07722,0.0429 0.01716,0.0429 0.01716,0.16302 v 0.86658 q 0,0.0944 -0.0086,0.1287 0,0.0343 -0.02574,0.06 -0.02574,0.0172 -0.07722,0.0172 -0.09438,0 -0.10296,-0.0772 -0.06864,-1.03818 -1.003858,-1.03818 -0.506219,0 -0.737878,0.19734 -0.22308,0.18876 -0.22308,0.45474 0,0.14586 0.06864,0.2574 0.06864,0.11154 0.15444,0.18018 0.09438,0.06 0.257399,0.12011 0.1716,0.0601 0.27456,0.0858 0.102959,0.0172 0.300299,0.0601 0.686398,0.1287 0.978118,0.41184 0.360359,0.36036 0.360359,0.8151 0,0.50622 -0.343199,0.84942 -0.3432,0.3432 -1.038178,0.3432 -0.557699,0 -0.943798,-0.36894 -0.05148,0.0515 -0.09438,0.0944 -0.03432,0.0429 -0.05148,0.0601 -0.0086,0.0172 -0.01716,0.0257 0,0.009 -0.0086,0.0172 -0.1716,0.1716 -0.2145,0.1716 -0.06864,0 -0.0858,-0.0429 -0.0086,-0.0429 -0.0086,-0.16302 z"
       id="text15"
       style="font-weight:500;font-size:8.57998px;font-family:'CMU Serif';-inkscape-font-specification:'CMU Serif Medium';text-align:center;letter-spacing:0.189265px;text-anchor:middle;stroke-width:1.43066;stroke-linecap:round;stroke-linejoin:round;paint-order:markers stroke fill"
       aria-label="Customers" /><g
       id="text17"
       style="font-weight:500;font-size:8.57998px;font-family:'CMU Serif';-inkscape-font-specification:'CMU Serif Medium';text-align:center;letter-spacing:0.189265px;text-anchor:middle;stroke-width:1.43066;stroke-linecap:round;stroke-linejoin:round;paint-order:markers stroke fill"
       aria-label="Suppliers/&#10;shippers"><path
         d="m 116.24838,234.11492 v -1.716 q 0,-0.0944 0,-0.1287 0.009,-0.0343 0.0343,-0.0601 0.0257,-0.0257 0.0772,-0.0257 0.0944,0 0.10296,0.0858 0.0257,0.84942 0.53195,1.32132 0.49764,0.46332 1.35564,0.46332 0.5148,0 0.83226,-0.36894 0.31746,-0.36894 0.31746,-0.858 0,-0.46332 -0.26598,-0.78936 -0.11154,-0.14585 -0.2574,-0.24023 -0.13728,-0.0944 -0.22308,-0.12012 -0.0858,-0.0343 -0.24882,-0.0772 -1.06392,-0.2574 -1.13256,-0.28314 -0.50622,-0.1716 -0.81509,-0.6006 -0.30888,-0.43758 -0.30888,-0.96954 0,-0.6864 0.48047,-1.17546 0.48906,-0.48906 1.19262,-0.48906 0.35178,0 0.6435,0.11154 0.3003,0.11154 0.42042,0.2145 0.12012,0.0944 0.30888,0.27456 l 0.3003,-0.48906 q 0.0686,-0.11154 0.1287,-0.11154 0.0686,0 0.0772,0.0429 0.0172,0.0343 0.0172,0.16302 v 1.72458 q 0,0.0944 -0.009,0.1287 0,0.0343 -0.0257,0.0601 -0.0257,0.0172 -0.0772,0.0172 -0.0858,0 -0.10296,-0.10296 -0.24024,-1.79322 -1.6731,-1.79322 -0.48906,0 -0.8151,0.33462 -0.31746,0.32604 -0.31746,0.78936 0,0.37752 0.23166,0.6864 0.24024,0.30888 0.63492,0.40326 l 1.09824,0.26598 q 0.54912,0.1287 0.91806,0.61776 0.36894,0.48048 0.36894,1.11539 0,0.7293 -0.48048,1.26126 -0.4719,0.52338 -1.20978,0.52338 -0.53196,0 -0.9438,-0.18018 -0.41184,-0.1716 -0.63492,-0.42042 -0.17159,0.28314 -0.28313,0.44616 l -0.0257,0.0429 q -0.0686,0.11154 -0.1287,0.11154 -0.0686,0 -0.0858,-0.0429 -0.009,-0.0429 -0.009,-0.16302 z m 4.74522,-3.41483 v -0.26598 l 1.26125,-0.0944 v 2.84855 q 0,0.20592 0.0172,0.32604 0.0172,0.12012 0.0858,0.2574 0.0686,0.13728 0.23166,0.20592 0.16302,0.0601 0.42042,0.0601 0.46332,0 0.74646,-0.37752 0.29172,-0.3861 0.29172,-0.95238 v -1.52723 q 0,-0.31746 -0.11154,-0.39468 -0.11154,-0.0858 -0.5577,-0.0858 v -0.26598 l 1.26126,-0.0944 v 3.04589 q 0,0.31746 0.11154,0.40326 0.11154,0.0772 0.5577,0.0772 v 0.26598 l -1.23552,0.0944 v -0.7722 q -0.36036,0.7722 -1.10682,0.7722 -0.37752,0 -0.63492,-0.0944 -0.2574,-0.0944 -0.3861,-0.2145 -0.1287,-0.12012 -0.19734,-0.35178 -0.0686,-0.23166 -0.0772,-0.36894 -0.009,-0.14586 -0.009,-0.42042 v -1.28699 q 0,-0.58344 -0.0858,-0.6864 -0.0858,-0.10296 -0.58343,-0.10296 z m 4.91682,4.83053 q 0.45474,0 0.5577,-0.0601 0.11153,-0.0515 0.11153,-0.32604 v -4.01543 q 0,-0.28314 -0.11153,-0.35178 -0.10296,-0.0772 -0.5577,-0.0772 v -0.26598 l 1.23551,-0.0944 v 0.56628 q 0.5148,-0.56628 1.2012,-0.56628 0.7293,0 1.26126,0.56628 0.53196,0.56628 0.53196,1.37279 0,0.8151 -0.56628,1.38138 -0.56628,0.56628 -1.34706,0.56628 -0.429,0 -0.72072,-0.2145 -0.28314,-0.22308 -0.33462,-0.3861 v 0.0772 1.44144 q 0,0.27456 0.10296,0.32604 0.11154,0.0601 0.56628,0.0601 v 0.26598 q -0.9009,-0.0257 -0.96954,-0.0257 -0.0858,0 -0.96095,0.0257 z m 1.26125,-2.37666 q 0,0.1287 0.0172,0.18018 0.0172,0.0429 0.10296,0.18018 0.3432,0.52338 0.9009,0.52338 0.48906,0 0.858,-0.49764 0.37752,-0.50622 0.37752,-1.26126 0,-0.72071 -0.3432,-1.21835 -0.33462,-0.50622 -0.80652,-0.50622 -0.33462,0 -0.62634,0.18018 -0.29172,0.18018 -0.48048,0.50622 z m 3.68989,2.37666 q 0.45474,0 0.5577,-0.0601 0.11154,-0.0515 0.11154,-0.32604 v -4.01543 q 0,-0.28314 -0.11154,-0.35178 -0.10296,-0.0772 -0.5577,-0.0772 v -0.26598 l 1.23551,-0.0944 v 0.56628 q 0.5148,-0.56628 1.2012,-0.56628 0.7293,0 1.26126,0.56628 0.53196,0.56628 0.53196,1.37279 0,0.8151 -0.56628,1.38138 -0.56628,0.56628 -1.34706,0.56628 -0.429,0 -0.72072,-0.2145 -0.28314,-0.22308 -0.33462,-0.3861 v 0.0772 1.44144 q 0,0.27456 0.10296,0.32604 0.11154,0.0601 0.56628,0.0601 v 0.26598 q -0.9009,-0.0257 -0.96954,-0.0257 -0.0858,0 -0.96095,0.0257 z m 1.26125,-2.37666 q 0,0.1287 0.0172,0.18018 0.0172,0.0429 0.10296,0.18018 0.3432,0.52338 0.9009,0.52338 0.48906,0 0.858,-0.49764 0.37752,-0.50622 0.37752,-1.26126 0,-0.72071 -0.3432,-1.21835 -0.33462,-0.50622 -0.80652,-0.50622 -0.33462,0 -0.62634,0.18018 -0.29172,0.18018 -0.48048,0.50622 z m 3.73279,0.97812 v -0.26598 q 0.45474,0 0.55769,-0.0515 0.11154,-0.0601 0.11154,-0.33462 v -4.46159 q 0,-0.31746 -0.11154,-0.39468 -0.11153,-0.0858 -0.55769,-0.0858 v -0.26598 l 1.23551,-0.0944 V 233.48 q 0,0.27456 0.10296,0.33462 0.11154,0.0515 0.56628,0.0515 v 0.26598 q -0.10296,0 -0.32604,-0.009 -0.2145,-0.009 -0.37752,-0.009 -0.15444,-0.009 -0.24882,-0.009 -0.10296,0 -0.95237,0.0257 z m 2.5659,0 v -0.26598 q 0.45474,0 0.5577,-0.0515 0.11154,-0.0601 0.11154,-0.33462 v -2.30801 q 0,-0.31746 -0.11154,-0.39468 -0.10296,-0.0772 -0.52338,-0.0772 v -0.26598 l 1.2012,-0.0944 v 3.14885 q 0,0.2574 0.0858,0.31746 0.0944,0.0601 0.5148,0.0601 v 0.26598 q -0.87516,-0.0257 -0.89232,-0.0257 -0.12012,0 -0.9438,0.0257 z m 0.36036,-5.28527 q 0,-0.1716 0.1287,-0.30888 0.13728,-0.14586 0.32604,-0.14586 0.18876,0 0.31746,0.1287 0.13728,0.1287 0.13728,0.32604 0,0.19734 -0.13728,0.32604 -0.1287,0.1287 -0.31746,0.1287 -0.19734,0 -0.32604,-0.13728 -0.1287,-0.13728 -0.1287,-0.31746 z m 2.16265,3.39767 q 0,-0.80651 0.5148,-1.38137 0.52338,-0.57486 1.26984,-0.57486 0.75504,0 1.14113,0.48906 0.39468,0.48906 0.39468,1.19262 0,0.12869 -0.0343,0.15443 -0.0343,0.0257 -0.18018,0.0257 h -2.39381 q 0,0.87516 0.2574,1.287 0.36036,0.57486 0.96954,0.57486 0.0858,0 0.18018,-0.0172 0.10296,-0.0172 0.30888,-0.0858 0.20591,-0.0772 0.38609,-0.27456 0.18018,-0.19734 0.28314,-0.50622 0.0257,-0.12012 0.11154,-0.12012 0.11154,0 0.11154,0.10296 0,0.0772 -0.0858,0.24882 -0.0772,0.16302 -0.23166,0.36894 -0.15444,0.19734 -0.45473,0.35178 -0.3003,0.14586 -0.66066,0.14586 -0.75504,0 -1.32132,-0.56628 -0.56628,-0.57486 -0.56628,-1.4157 z m 0.72072,-0.27455 h 2.03345 q 0,-0.18018 -0.0343,-0.37752 -0.0257,-0.20592 -0.12011,-0.48048 -0.0858,-0.28314 -0.3003,-0.45474 -0.20592,-0.18018 -0.5148,-0.18018 -0.13728,0 -0.29172,0.0601 -0.14586,0.0601 -0.32604,0.20592 -0.18018,0.13728 -0.30888,0.46332 -0.12012,0.31746 -0.13728,0.76362 z m 3.27804,2.16215 v -0.26598 q 0.45474,0 0.5577,-0.0515 0.11154,-0.0601 0.11154,-0.33462 v -2.29943 q 0,-0.31746 -0.11154,-0.39468 -0.11154,-0.0858 -0.5577,-0.0858 v -0.26598 l 1.19262,-0.0944 v 0.9438 q 0.12012,-0.36894 0.37752,-0.65208 0.2574,-0.29172 0.67782,-0.29172 0.27456,0 0.45474,0.15444 0.18018,0.15444 0.18018,0.36894 0,0.18876 -0.12012,0.28314 -0.11154,0.0944 -0.24882,0.0944 -0.15444,0 -0.26598,-0.0944 -0.10296,-0.10296 -0.10296,-0.27456 0,-0.10296 0.0429,-0.18018 0.0515,-0.0858 0.0858,-0.11154 0.0429,-0.0343 0.0686,-0.0429 -0.0172,-0.009 -0.0944,-0.009 -0.4719,0 -0.74646,0.4719 -0.26598,0.4719 -0.26598,1.14113 v 1.32132 q 0,0.24882 0.10296,0.32604 0.10296,0.0772 0.54912,0.0772 h 0.18018 v 0.26598 q -0.3432,-0.0257 -1.08966,-0.0257 -0.10296,0 -0.26598,0.009 -0.16302,0 -0.37752,0.009 -0.2145,0.009 -0.33462,0.009 z m 3.58693,-0.11154 v -1.13256 q 0,-0.0944 0,-0.1287 0.009,-0.0343 0.0343,-0.0601 0.0257,-0.0257 0.0772,-0.0257 0.0601,0 0.0772,0.0257 0.0257,0.0257 0.0429,0.12012 0.1287,0.59202 0.40326,0.90948 0.28314,0.30888 0.78936,0.30888 0.48048,0 0.72072,-0.2145 0.24881,-0.2145 0.24881,-0.56628 0,-0.62634 -0.89231,-0.78936 -0.5148,-0.10296 -0.7293,-0.1716 -0.2145,-0.0686 -0.40326,-0.22308 -0.36894,-0.30029 -0.36894,-0.72929 0,-0.429 0.32604,-0.73788 0.32604,-0.31746 1.04676,-0.31746 0.48048,0 0.80652,0.24024 0.0944,-0.0772 0.14586,-0.13728 0.11153,-0.10296 0.17159,-0.10296 0.0686,0 0.0772,0.0429 0.0172,0.0429 0.0172,0.16302 v 0.86658 q 0,0.0944 -0.009,0.1287 0,0.0343 -0.0257,0.0601 -0.0257,0.0172 -0.0772,0.0172 -0.0944,0 -0.10296,-0.0772 -0.0686,-1.03818 -1.00385,-1.03818 -0.50622,0 -0.73788,0.19734 -0.22308,0.18876 -0.22308,0.45474 0,0.14586 0.0686,0.2574 0.0686,0.11154 0.15444,0.18018 0.0944,0.0601 0.2574,0.12012 0.1716,0.0601 0.27456,0.0858 0.10296,0.0172 0.3003,0.0601 0.6864,0.1287 0.97811,0.41183 0.36036,0.36036 0.36036,0.8151 0,0.50622 -0.3432,0.84942 -0.34319,0.3432 -1.03817,0.3432 -0.5577,0 -0.9438,-0.36894 -0.0515,0.0515 -0.0944,0.0944 -0.0343,0.0429 -0.0515,0.0601 -0.009,0.0172 -0.0172,0.0257 0,0.009 -0.009,0.0172 -0.1716,0.1716 -0.2145,0.1716 -0.0686,0 -0.0858,-0.0429 -0.009,-0.0429 -0.009,-0.16302 z m 3.77569,2.13642 q 0,-0.0429 0.0343,-0.13728 l 3.02873,-8.09093 q 0,-0.009 0.0172,-0.0515 0.0257,-0.0515 0.0343,-0.0772 0.0172,-0.0343 0.0429,-0.06 0.0257,-0.0257 0.0601,-0.0257 0.0858,0 0.0858,0.10295 0,0.009 -0.0257,0.11154 l -3.03731,8.09951 q -0.0515,0.14586 -0.0858,0.18876 -0.0257,0.0429 -0.0772,0.0429 -0.0772,0 -0.0772,-0.10296 z"
         id="path30" /><path
         d="m 120.23881,244.74552 v -1.13256 q 0,-0.0944 0,-0.1287 0.009,-0.0343 0.0343,-0.0601 0.0257,-0.0257 0.0772,-0.0257 0.0601,0 0.0772,0.0257 0.0257,0.0257 0.0429,0.12012 0.1287,0.59202 0.40326,0.90948 0.28314,0.30888 0.78935,0.30888 0.48048,0 0.72072,-0.2145 0.24882,-0.2145 0.24882,-0.56628 0,-0.62634 -0.89232,-0.78936 -0.51479,-0.10296 -0.72929,-0.1716 -0.2145,-0.0686 -0.40326,-0.22308 -0.36894,-0.3003 -0.36894,-0.7293 0,-0.429 0.32604,-0.73788 0.32604,-0.31746 1.04675,-0.31746 0.48048,0 0.80652,0.24024 0.0944,-0.0772 0.14586,-0.13728 0.11154,-0.10296 0.1716,-0.10296 0.0686,0 0.0772,0.0429 0.0172,0.0429 0.0172,0.16302 v 0.86658 q 0,0.0944 -0.009,0.1287 0,0.0343 -0.0257,0.0601 -0.0257,0.0172 -0.0772,0.0172 -0.0944,0 -0.10296,-0.0772 -0.0686,-1.03818 -1.00386,-1.03818 -0.50621,0 -0.73787,0.19734 -0.22308,0.18876 -0.22308,0.45474 0,0.14586 0.0686,0.2574 0.0686,0.11154 0.15444,0.18018 0.0944,0.0601 0.2574,0.12012 0.1716,0.0601 0.27455,0.0858 0.10296,0.0172 0.3003,0.0601 0.6864,0.1287 0.97812,0.41184 0.36036,0.36036 0.36036,0.8151 0,0.50622 -0.3432,0.84942 -0.3432,0.34319 -1.03818,0.34319 -0.55769,0 -0.94379,-0.36893 -0.0515,0.0515 -0.0944,0.0944 -0.0343,0.0429 -0.0515,0.0601 -0.009,0.0172 -0.0172,0.0257 0,0.009 -0.009,0.0172 -0.1716,0.17159 -0.2145,0.17159 -0.0686,0 -0.0858,-0.0429 -0.009,-0.0429 -0.009,-0.16301 z m 3.56119,0.11153 v -0.26597 q 0.45474,0 0.5577,-0.0515 0.11154,-0.0601 0.11154,-0.33462 v -4.46159 q 0,-0.31746 -0.11154,-0.39468 -0.11154,-0.0858 -0.5577,-0.0858 v -0.26598 l 1.23551,-0.0944 v 2.98583 h 0.009 q 0.13728,-0.30888 0.44616,-0.56628 0.30888,-0.2574 0.78936,-0.2574 0.6435,0 0.9009,0.31746 0.18876,0.2145 0.22308,0.45474 0.0429,0.24024 0.0429,0.858 v 1.63878 q 0.009,0.18018 0.14586,0.22308 0.13728,0.0343 0.52338,0.0343 v 0.26597 q -0.87516,-0.0257 -0.96096,-0.0257 -0.0686,0 -0.96954,0.0257 v -0.26597 q 0.45474,0 0.5577,-0.0515 0.11154,-0.0601 0.11154,-0.33462 v -1.99914 q 0,-0.43758 -0.13728,-0.69498 -0.1287,-0.2574 -0.49764,-0.2574 -0.44616,0 -0.80652,0.37752 -0.35178,0.36894 -0.35178,0.99528 v 1.57872 q 0,0.27456 0.10296,0.33462 0.11154,0.0515 0.56628,0.0515 v 0.26597 q -0.87516,-0.0257 -0.96096,-0.0257 -0.0686,0 -0.96953,0.0257 z m 4.95972,0 v -0.26597 q 0.45474,0 0.5577,-0.0515 0.11154,-0.0601 0.11154,-0.33462 v -2.30802 q 0,-0.31746 -0.11154,-0.39468 -0.10296,-0.0772 -0.52338,-0.0772 v -0.26598 l 1.20119,-0.0944 v 3.14886 q 0,0.2574 0.0858,0.31746 0.0944,0.0601 0.5148,0.0601 v 0.26597 q -0.87516,-0.0257 -0.89232,-0.0257 -0.12011,0 -0.94379,0.0257 z m 0.36036,-5.28526 q 0,-0.1716 0.1287,-0.30888 0.13728,-0.14586 0.32604,-0.14586 0.18875,0 0.31745,0.1287 0.13728,0.1287 0.13728,0.32604 0,0.19734 -0.13728,0.32604 -0.1287,0.1287 -0.31745,0.1287 -0.19734,0 -0.32604,-0.13728 -0.1287,-0.13728 -0.1287,-0.31746 z m 2.16264,6.6838 q 0.45474,0 0.5577,-0.0601 0.11154,-0.0515 0.11154,-0.32604 v -4.01543 q 0,-0.28314 -0.11154,-0.35178 -0.10296,-0.0772 -0.5577,-0.0772 v -0.26598 l 1.23552,-0.0944 v 0.56628 q 0.5148,-0.56628 1.2012,-0.56628 0.7293,0 1.26125,0.56628 0.53196,0.56628 0.53196,1.3728 0,0.8151 -0.56627,1.38138 -0.56628,0.56627 -1.34706,0.56627 -0.429,0 -0.72072,-0.21449 -0.28314,-0.22308 -0.33462,-0.3861 v 0.0772 1.44143 q 0,0.27456 0.10296,0.32604 0.11154,0.0601 0.56628,0.0601 v 0.26598 q -0.9009,-0.0257 -0.96954,-0.0257 -0.0858,0 -0.96096,0.0257 z m 1.26126,-2.37665 q 0,0.1287 0.0172,0.18018 0.0172,0.0429 0.10296,0.18018 0.3432,0.52338 0.9009,0.52338 0.48906,0 0.858,-0.49764 0.37752,-0.50622 0.37752,-1.26126 0,-0.72072 -0.3432,-1.21836 -0.33462,-0.50622 -0.80652,-0.50622 -0.33462,0 -0.62634,0.18018 -0.29172,0.18018 -0.48048,0.50622 z m 3.68988,2.37665 q 0.45474,0 0.5577,-0.0601 0.11154,-0.0515 0.11154,-0.32604 v -4.01543 q 0,-0.28314 -0.11154,-0.35178 -0.10296,-0.0772 -0.5577,-0.0772 v -0.26598 l 1.23552,-0.0944 v 0.56628 q 0.5148,-0.56628 1.2012,-0.56628 0.7293,0 1.26126,0.56628 0.53195,0.56628 0.53195,1.3728 0,0.8151 -0.56627,1.38138 -0.56628,0.56627 -1.34706,0.56627 -0.429,0 -0.72072,-0.21449 -0.28314,-0.22308 -0.33462,-0.3861 v 0.0772 1.44143 q 0,0.27456 0.10296,0.32604 0.11154,0.0601 0.56628,0.0601 v 0.26598 q -0.9009,-0.0257 -0.96954,-0.0257 -0.0858,0 -0.96096,0.0257 z m 1.26126,-2.37665 q 0,0.1287 0.0172,0.18018 0.0172,0.0429 0.10296,0.18018 0.3432,0.52338 0.9009,0.52338 0.48906,0 0.858,-0.49764 0.37752,-0.50622 0.37752,-1.26126 0,-0.72072 -0.3432,-1.21836 -0.33462,-0.50622 -0.80652,-0.50622 -0.33462,0 -0.62634,0.18018 -0.29172,0.18018 -0.48048,0.50622 z m 3.93012,-0.90948 q 0,-0.80652 0.5148,-1.38138 0.52338,-0.57486 1.26984,-0.57486 0.75504,0 1.14113,0.48906 0.39468,0.48906 0.39468,1.19262 0,0.1287 -0.0343,0.15444 -0.0343,0.0257 -0.18018,0.0257 h -2.39381 q 0,0.87516 0.2574,1.287 0.36036,0.57486 0.96954,0.57486 0.0858,0 0.18018,-0.0172 0.10296,-0.0172 0.30888,-0.0858 0.20592,-0.0772 0.3861,-0.27456 0.18017,-0.19734 0.28313,-0.50622 0.0257,-0.12012 0.11154,-0.12012 0.11154,0 0.11154,0.10296 0,0.0772 -0.0858,0.24882 -0.0772,0.16302 -0.23166,0.36894 -0.15443,0.19734 -0.45473,0.35178 -0.3003,0.14585 -0.66066,0.14585 -0.75504,0 -1.32132,-0.56627 -0.56628,-0.57486 -0.56628,-1.4157 z m 0.72072,-0.27456 h 2.03346 q 0,-0.18018 -0.0343,-0.37752 -0.0257,-0.20592 -0.12012,-0.48048 -0.0858,-0.28314 -0.3003,-0.45474 -0.20592,-0.18018 -0.5148,-0.18018 -0.13728,0 -0.29172,0.0601 -0.14586,0.0601 -0.32604,0.20592 -0.18018,0.13728 -0.30888,0.46332 -0.12012,0.31746 -0.13728,0.76362 z m 3.27804,2.16215 v -0.26597 q 0.45474,0 0.5577,-0.0515 0.11154,-0.0601 0.11154,-0.33462 v -2.29944 q 0,-0.31746 -0.11154,-0.39468 -0.11154,-0.0858 -0.5577,-0.0858 v -0.26598 l 1.19262,-0.0944 v 0.9438 q 0.12012,-0.36894 0.37752,-0.65208 0.2574,-0.29172 0.67782,-0.29172 0.27456,0 0.45474,0.15444 0.18018,0.15444 0.18018,0.36894 0,0.18876 -0.12012,0.28314 -0.11154,0.0944 -0.24882,0.0944 -0.15444,0 -0.26598,-0.0944 -0.10296,-0.10296 -0.10296,-0.27456 0,-0.10296 0.0429,-0.18018 0.0515,-0.0858 0.0858,-0.11154 0.0429,-0.0343 0.0686,-0.0429 -0.0172,-0.009 -0.0944,-0.009 -0.4719,0 -0.74646,0.4719 -0.26598,0.4719 -0.26598,1.14114 v 1.32132 q 0,0.24882 0.10296,0.32604 0.10296,0.0772 0.54912,0.0772 h 0.18018 v 0.26597 q -0.3432,-0.0257 -1.08966,-0.0257 -0.10296,0 -0.26598,0.009 -0.16302,0 -0.37752,0.009 -0.2145,0.009 -0.33462,0.009 z m 3.58693,-0.11153 v -1.13256 q 0,-0.0944 0,-0.1287 0.009,-0.0343 0.0343,-0.0601 0.0257,-0.0257 0.0772,-0.0257 0.0601,0 0.0772,0.0257 0.0257,0.0257 0.0429,0.12012 0.1287,0.59202 0.40326,0.90948 0.28314,0.30888 0.78936,0.30888 0.48048,0 0.72072,-0.2145 0.24882,-0.2145 0.24882,-0.56628 0,-0.62634 -0.89232,-0.78936 -0.5148,-0.10296 -0.7293,-0.1716 -0.2145,-0.0686 -0.40326,-0.22308 -0.36894,-0.3003 -0.36894,-0.7293 0,-0.429 0.32604,-0.73788 0.32604,-0.31746 1.04676,-0.31746 0.48048,0 0.80652,0.24024 0.0944,-0.0772 0.14586,-0.13728 0.11154,-0.10296 0.1716,-0.10296 0.0686,0 0.0772,0.0429 0.0171,0.0429 0.0171,0.16302 v 0.86658 q 0,0.0944 -0.009,0.1287 0,0.0343 -0.0257,0.0601 -0.0257,0.0172 -0.0772,0.0172 -0.0944,0 -0.10296,-0.0772 -0.0686,-1.03818 -1.00386,-1.03818 -0.50622,0 -0.73788,0.19734 -0.22308,0.18876 -0.22308,0.45474 0,0.14586 0.0686,0.2574 0.0686,0.11154 0.15444,0.18018 0.0944,0.0601 0.2574,0.12012 0.1716,0.0601 0.27456,0.0858 0.10296,0.0172 0.3003,0.0601 0.6864,0.1287 0.97812,0.41184 0.36035,0.36036 0.36035,0.8151 0,0.50622 -0.34319,0.84942 -0.3432,0.34319 -1.03818,0.34319 -0.5577,0 -0.9438,-0.36893 -0.0515,0.0515 -0.0944,0.0944 -0.0343,0.0429 -0.0515,0.0601 -0.009,0.0172 -0.0172,0.0257 0,0.009 -0.009,0.0172 -0.1716,0.17159 -0.2145,0.17159 -0.0686,0 -0.0858,-0.0429 -0.009,-0.0429 -0.009,-0.16301 z"
         id="path31" /></g><g
       id="path20"><g
         id="g12"><path
           d="m 107.5496,110.20189 7.7,2.8 -7.7,2.8 c 1.4,-1.631 1.4,-3.962 0,-5.6 z"
           style="color:#000000;fill:#ffffff;fill-rule:evenodd;-inkscape-stroke:none"
           id="path13" /><path
           d="m 105.24296,115.80189 -7.7,-2.8 7.7,-2.8 c -1.4,1.631 -1.4,3.962 0,5.6 z"
           style="color:#000000;fill:#ffffff;fill-rule:evenodd;-inkscape-stroke:none"
           id="path12" /></g><path
         style="color:#000000;fill:#ffffff;stroke-linecap:round;stroke-linejoin:round;-inkscape-stroke:none;paint-order:markers stroke fill"
         d="m 103.84375,112.50195 a 0.5,0.5 0 0 0 -0.5,0.5 0.5,0.5 0 0 0 0.5,0.5 h 5.10547 a 0.5,0.5 0 0 0 0.5,-0.5 0.5,0.5 0 0 0 -0.5,-0.5 z"
         id="path14" /></g><g
       id="path21"><g
         id="g15"><path
           d="m 152.60945,202.82067 -6.74381,4.65306 2.17978,-7.89801 c 0.51804,2.0861 2.41782,3.43681 4.56403,3.24495 z"
           style="color:#000000;fill:#ffffff;fill-rule:evenodd;-inkscape-stroke:none"
           id="path16" /><path
           d="m 107.60195,51.413673 -8.088566,1.305814 5.360496,-6.196379 c -0.42809,2.106394 0.70746,4.142092 2.72807,4.890565 z"
           style="color:#000000;fill:#ffffff;fill-rule:evenodd;-inkscape-stroke:none"
           id="path15" /></g><path
         style="color:#000000;fill:#ffffff;stroke-linecap:round;stroke-linejoin:round;-inkscape-stroke:none;paint-order:markers stroke fill"
         d="m 125.41406,43.753906 c -6.46391,-0.272642 -13.3961,1.416736 -20.64258,5.458985 a 0.5,0.5 0 0 0 -0.19335,0.68164 0.5,0.5 0 0 0 0.68164,0.19336 c 14.22872,-7.937114 26.92671,-6.633057 37.4121,0.802734 10.4854,7.435791 18.72494,21.088862 23.67969,37.878906 9.90951,33.580089 6.67788,79.635629 -17.24219,113.279299 a 0.5,0.5 0 0 0 0.11719,0.69726 0.5,0.5 0 0 0 0.69727,-0.11718 C 174.06859,168.6692 177.30685,122.36052 167.31055,88.486328 162.3124,71.549232 154.00396,57.700467 143.25,50.074219 137.87302,46.261095 131.87797,44.026548 125.41406,43.753906 Z"
         id="path17" /></g><g
       id="path22"><g
         id="g2"><path
           d="m 69.722665,85.257091 -2.8,7.7 -2.8,-7.7 c 1.631,1.4 3.962,1.4 5.6,0 z"
           style="color:#000000;fill:#ffffff;fill-rule:evenodd;-inkscape-stroke:none"
           id="path2" /></g><path
         style="color:#000000;fill:#ffffff;stroke-linecap:round;stroke-linejoin:round;-inkscape-stroke:none;paint-order:markers stroke fill"
         d="m 66.921875,82.007812 a 0.5,0.5 0 0 0 -0.5,0.5 v 4.148438 a 0.5,0.5 0 0 0 0.5,0.5 0.5,0.5 0 0 0 0.5,-0.5 v -4.148438 a 0.5,0.5 0 0 0 -0.5,-0.5 z"
         id="path3" /></g><g
       id="path24"><g
         id="g4"><path
           d="m 69.722665,143.37867 -2.8,7.7 -2.8,-7.7 c 1.631,1.4 3.962,1.4 5.6,0 z"
           style="color:#000000;fill:#ffffff;fill-rule:evenodd;-inkscape-stroke:none"
           id="path4" /></g><path
         style="color:#000000;fill:#ffffff;stroke-linecap:round;stroke-linejoin:round;-inkscape-stroke:none;paint-order:markers stroke fill"
         d="m 66.921875,140.12891 a 0.5,0.5 0 0 0 -0.5,0.5 v 4.15039 a 0.5,0.5 0 0 0 0.5,0.5 0.5,0.5 0 0 0 0.5,-0.5 v -4.15039 a 0.5,0.5 0 0 0 -0.5,-0.5 z"
         id="path5" /></g><g
       id="path25"><g
         id="g6"><path
           d="m 69.722665,202.46894 -2.8,7.7 -2.8,-7.7 c 1.631,1.4 3.962,1.4 5.6,0 z"
           style="color:#000000;fill:#ffffff;fill-rule:evenodd;-inkscape-stroke:none"
           id="path6" /></g><path
         style="color:#000000;fill:#ffffff;stroke-linecap:round;stroke-linejoin:round;-inkscape-stroke:none;paint-order:markers stroke fill"
         d="m 66.921875,199.21875 a 0.5,0.5 0 0 0 -0.5,0.5 v 4.15039 a 0.5,0.5 0 0 0 0.5,0.5 0.5,0.5 0 0 0 0.5,-0.5 v -4.15039 a 0.5,0.5 0 0 0 -0.5,-0.5 z"
         id="path8" /></g></g></svg>
