<?xml version="1.0" encoding="UTF-8" standalone="no"?>
<svg
   version="1.2"
   viewBox="0 0 1587 327"
   width="1587"
   height="327"
   id="svg1"
   sodipodi:docname="NGG_BIG.svg"
   inkscape:version="1.3 (0e150ed, 2023-07-21)"
   xmlns:inkscape="http://www.inkscape.org/namespaces/inkscape"
   xmlns:sodipodi="http://sodipodi.sourceforge.net/DTD/sodipodi-0.dtd"
   xmlns="http://www.w3.org/2000/svg"
   xmlns:svg="http://www.w3.org/2000/svg">
  <defs
     id="defs1" />
  <sodipodi:namedview
     id="namedview1"
     pagecolor="#ffffff"
     bordercolor="#000000"
     borderopacity="0.25"
     inkscape:showpageshadow="2"
     inkscape:pageopacity="0.0"
     inkscape:pagecheckerboard="0"
     inkscape:deskcolor="#d1d1d1"
     inkscape:zoom="0.35286704"
     inkscape:cx="792.08304"
     inkscape:cy="164.36786"
     inkscape:window-width="1312"
     inkscape:window-height="449"
     inkscape:window-x="294"
     inkscape:window-y="1118"
     inkscape:window-maximized="0"
     inkscape:current-layer="svg1" />
  <title
     id="title1">logo (30)-svg</title>
  <style
     id="style1">&#10;		.s0 { fill: #00148c } &#10;	</style>
  <g
     id="Page-1"
     style="fill:#ffffff">
    <g
       id="logo-global"
       style="fill:#ffffff">
      <path
         id="Fill-25"
         fill-rule="evenodd"
         class="s0"
         d="m1586.7 260.2h-42v-20.6h-0.6c-10.4 18.5-29.4 24.9-47.2 24.9-48.4 0-68.7-43-68.7-88 0-56.6 31.9-84.3 67.7-84.3 27.6 0 40.5 15.1 47.3 25.6h0.6v-78.5h42.9zm-79.1-31.1c27.3 0 38-22.8 38-47 0-26.2-7.3-52.7-36.8-52.7-27.3 0-36.4 24.3-36.4 50.2 0 19.4 7.6 49.5 35.2 49.5z"
         style="fill:#ffffff" />
      <path
         id="Fill-1"
         class="s0"
         d="m1410.5 31.6l-31.5 31.6-31.5-31.6 31.5-31.6z"
         style="fill:#ffffff" />
      <path
         id="Fill-2"
         class="s0"
         d="m1357.6 95.4h42.9v164.7h-42.9z"
         style="fill:#ffffff" />
      <path
         id="Fill-24"
         class="s0"
         d="m1233.5 96.5h41.1v28.4h0.6c8.9-16.7 18.7-32.7 44.8-32.7 2.7 0 5.5 0.3 8.2 0.6v43.7c-3.6-0.6-8.2-0.6-12.2-0.6-33.4 0-39.6 20.9-39.6 39.1v85.2h-42.9z"
         style="fill:#ffffff" />
      <path
         id="Fill-23"
         fill-rule="evenodd"
         class="s0"
         d="m1196.7 96.5v155.1c0 28.3-2.1 75.4-82.4 75.4-33.8 0-69.3-14.5-71.2-49.2h46.6c1.9 8.3 5.3 16.6 30.1 16.6 23 0 34-11.1 34-37.6v-19.7l-0.6-0.6c-7 12.7-17.8 24.6-43.5 24.6-39.3 0-70.2-27.3-70.2-84.6 0-56.6 31.9-84.3 67.7-84.3 30.4 0 42.6 17.9 47.8 28.6h0.7v-24.3zm-79.1 128.3c29.1 0 36.4-24.9 36.4-47.4 0-26.4-12.8-47.9-36.8-47.9-15.9 0-33.7 11.7-33.7 49.8 0 20.9 8.6 45.5 34.1 45.5z"
         style="fill:#ffffff" />
      <path
         id="Fill-21"
         class="s0"
         d="m989.8 40.5h19.3v219.7h-19.3z"
         style="fill:#ffffff" />
      <path
         id="Fill-20"
         fill-rule="evenodd"
         class="s0"
         d="m818.1 150.1c1.9-37.3 27.9-53.3 64.1-53.3 27.9 0 58.2 8.6 58.2 51.1v84.3c0 7.4 3.7 11.7 11.4 11.7 2.1 0 4.6-0.6 6.1-1.2v16.3c-4.3 0.9-7.4 1.2-12.5 1.2-19.7 0-22.7-11.1-22.7-27.7h-0.6c-13.5 20.6-27.3 32.3-57.7 32.3-29.1 0-53-14.4-53-46.4 0-44.7 43.2-46.2 84.9-51.1 15.9-1.8 24.8-4 24.8-21.5 0-26.2-18.7-32.7-41.4-32.7-23.8 0-41.6 11.1-42.2 37zm102.9 23.3h-0.6c-2.4 4.7-11 6.2-16.2 7.1-32.8 5.9-73.6 5.6-73.6 36.6 0 19.4 17.2 31.4 35.3 31.4 29.4 0 55.5-18.8 55.1-49.8z"
         style="fill:#ffffff" />
      <path
         id="Fill-18"
         class="s0"
         d="m655.1 101.5h19.3v27.3h0.6c7.1-19 28.2-32 50.6-32 44.5 0 57.9 23.4 57.9 61.3v102.1h-19.3v-99.1c0-27.3-8.9-47.9-40.2-47.9-30.6 0-49 23.3-49.6 54.4v92.6h-19.3z"
         style="fill:#ffffff" />
      <path
         id="Fill-17"
         fill-rule="evenodd"
         class="s0"
         d="m626.6 180.8c0 45.6-26.4 84-74.8 84-48.5 0-74.8-38.4-74.8-84 0-45.5 26.3-84 74.8-84 48.4 0 74.8 38.5 74.8 84zm-130.3 0c0 33.9 18.4 67.7 55.5 67.7 37.1 0 55.5-33.8 55.5-67.7 0-33.8-18.4-67.7-55.5-67.7-37.1 0-55.5 33.9-55.5 67.7z"
         style="fill:#ffffff" />
      <path
         id="Fill-16"
         class="s0"
         d="m428.5 40.5h19.4v31.1h-19.4z"
         style="fill:#ffffff" />
      <path
         id="Fill-15"
         class="s0"
         d="m428.5 101.4h19.4v158.8h-19.4z"
         style="fill:#ffffff" />
      <path
         id="Fill-11"
         class="s0"
         d="m361.4 101.4h32.2v16.3h-32.2v107.1c0 12.6 1.9 20 15.7 20.9q8.2 0 16.5-0.9v16.6c-5.8 0-11.3 0.6-17.2 0.6-25.7 0-34.6-8.6-34.3-35.6v-108.7h-27.6v-16.3h27.6v-47.7h19.3z"
         style="fill:#ffffff" />
      <path
         id="Fill-7"
         fill-rule="evenodd"
         class="s0"
         d="m163.1 150.1c1.8-37.3 27.9-53.3 64-53.3 27.9 0 58.3 8.6 58.3 51.1v84.3c0 7.4 3.6 11.7 11.3 11.7 2.2 0 4.6-0.6 6.2-1.2v16.3c-4.3 0.9-7.4 1.2-12.6 1.2-19.6 0-22.7-11.1-22.7-27.7h-0.6c-13.5 20.6-27.3 32.3-57.6 32.3-29.2 0-53.1-14.4-53.1-46.4 0-44.7 43.3-46.2 84.9-51.1 16-1.8 24.9-4 24.9-21.5 0-26.2-18.7-32.7-41.4-32.7-23.9 0-41.7 11.1-42.3 37zm103 23.3h-0.6c-2.5 4.7-11.1 6.2-16.3 7.1-32.8 5.9-73.6 5.6-73.6 36.6 0 19.4 17.2 31.4 35.3 31.4 29.4 0 55.5-18.8 55.2-49.8z"
         style="fill:#ffffff" />
      <path
         id="Fill-3"
         class="s0"
         d="m0 101.5h19.3v27.3h0.6c7.1-19 28.2-32 50.6-32 44.5 0 57.9 23.4 57.9 61.3v102.1h-19.3v-99.1c0-27.3-8.9-47.9-40.1-47.9-30.7 0-49.1 23.3-49.7 54.4v92.6h-19.3z"
         style="fill:#ffffff" />
    </g>
  </g>
</svg>
